<svg width="75" height="74" viewBox="0 0 75 74" fill="none" xmlns="http://www.w3.org/2000/svg">
<g clip-path="url(#clip0_428_325)">
<path d="M13.1948 41.5999C7.87207 41.5999 7.87207 49.7851 13.1948 49.7851C14.3661 49.7851 15.2791 49.4412 15.7786 49.1833L16.1403 51.9518C15.3135 52.2957 14.1249 52.5193 13.1948 52.5193C4.08245 52.5193 4.09968 38.9001 13.1948 38.9001C14.1249 38.9001 15.0379 39.0721 15.8475 39.4332L15.5202 42.1846C15.0207 41.9266 14.3661 41.5999 13.1948 41.5999Z" fill="#2B2A29"/>
<path d="M25.356 52.4849V47.1198H21.3424V52.4849H18.6553V39.0721H21.3424V44.4372H25.356V39.0721H28.0432V52.4849H25.356Z" fill="#2B2A29"/>
<path d="M37.2761 48.5298L36.0531 45.0391L34.7956 48.5298H37.2761ZM35.898 38.5906H36.1736L41.8236 52.4849H38.8091L38.2579 51.0404H33.8137L33.2797 52.4849H30.248L35.898 38.5906Z" fill="#2B2A29"/>
<path d="M55.5351 38.8658H56.3792V52.4849H53.6576L53.6748 45.0047L50.2469 48.5986L46.8018 45.0047V52.4849H44.0802V38.8658H44.9414L50.2469 44.7467L55.5351 38.8658Z" fill="#2B2A29"/>
<path d="M64.8369 44.7467C66.6456 44.7467 66.6456 41.7547 64.8369 41.7547H62.477V44.7467H64.8369ZM59.7899 52.4849V39.0893H65.0609C70.2802 39.0893 70.263 47.3605 65.0609 47.3605H62.477V52.4849H59.7899Z" fill="#2B2A29"/>
<path d="M0 64.9863V57.1278H3.94465V58.6926H1.56752V60.2746H3.65181V61.8394H1.56752V63.4215H4.08245V64.9863H0Z" fill="#009FA6"/>
<path d="M8.88839 64.9863H7.32086V56.9558H7.73427L11.7134 61.5815V57.1278H13.2981V65.1582H12.8847L8.88839 60.7045V64.9863Z" fill="#009FA6"/>
<path d="M18.4141 58.6926V63.4215H19.1892C22.2554 63.4215 22.2554 58.6926 19.1892 58.6926H18.4141ZM19.1892 64.9863H16.8466V57.1278H19.1892C24.4258 57.1278 24.4258 64.9863 19.1892 64.9863Z" fill="#009FA6"/>
<path d="M26.3206 62.2521V57.1278H27.8881V62.2349C27.8881 63.8857 30.4547 63.8857 30.4547 62.2349V57.1278H32.005V62.2521C32.005 65.9836 26.3206 65.9836 26.3206 62.2521Z" fill="#009FA6"/>
<path d="M37.0866 60.4638H38.4819C39.5498 60.4638 39.5498 58.6926 38.4819 58.6926H37.0866V60.4638ZM39.4465 64.9863L37.8445 61.977H37.0866V64.9863H35.5191V57.1278H38.6197C41.4274 57.1278 41.703 61.0656 39.3948 61.7363L41.2207 64.9863H39.4465Z" fill="#009FA6"/>
<path d="M47.4564 62.6648L46.7329 60.6185L45.9922 62.6648H47.4564ZM46.6468 56.8354H46.819L50.1263 64.9863H48.3521L48.042 64.1437H45.4238L45.1137 64.9863H43.3395L46.6468 56.8354Z" fill="#009FA6"/>
<path d="M54.5705 64.9863H53.003V56.9558H53.4164L57.3955 61.5815V57.1278H58.9802V65.1582H58.5668L54.5705 60.7045V64.9863Z" fill="#009FA6"/>
<path d="M66.1633 58.6066C63.0455 58.6066 63.0455 63.4043 66.1633 63.4043C66.8523 63.4043 67.3863 63.1979 67.6791 63.0603L67.8858 64.6768C67.4035 64.8831 66.7145 65.0035 66.1633 65.0035C60.8234 65.0035 60.8234 57.0246 66.1633 57.0246C66.7145 57.0246 67.2485 57.1278 67.7136 57.3341L67.5241 58.9505C67.2313 58.7958 66.8523 58.6066 66.1633 58.6066Z" fill="#009FA6"/>
<path d="M70.9175 64.9863V57.1278H74.8622V58.6926H72.4851V60.2746H74.5694V61.8394H72.4851V63.4215H75V64.9863H70.9175Z" fill="#009FA6"/>
<path d="M43.5117 21.1196C41.1518 24.1633 37.1555 25.2122 33.7104 23.9913L27.4403 28.7202C34.3477 33.621 43.9596 32.2453 49.1789 25.4874C51.556 22.4093 52.6068 18.7638 52.469 15.1698L45.2859 15.2558C45.4237 17.2849 44.8381 19.3828 43.5117 21.1196Z" fill="#2B2A29"/>
<path d="M46.3022 3.2875C39.3604 -2.04322 29.404 -0.753529 24.0641 6.17641C19.2237 12.4529 19.8438 21.24 25.1837 26.7943L29.6624 20.9992C27.3886 17.9556 27.3197 13.691 29.7485 10.5442C31.9878 7.63805 35.7085 6.53752 39.0331 7.50049L30.9715 17.9556L33.1075 17.9384L23.0994 30.9213L42.5815 16.2016L38.8091 15.9265L49.9024 7.19096L49.8852 7.15657C48.9378 5.71212 47.7492 4.40523 46.3022 3.2875Z" fill="#2B2A29"/>
<path d="M42.7538 1.224L30.9715 17.9556L33.1075 17.9384L23.0994 30.9213L42.5815 16.2016L38.8091 15.9265L49.9024 7.19097C49.9024 7.19097 47.6286 3.23592 42.7538 1.224Z" fill="#009FA6"/>
<path d="M11.8512 70.2138V73.0855H12.9364V73.8765H10.921V70.2138H11.8512Z" fill="#2B2A29"/>
<path d="M16.0542 71.0048H14.9518V71.6411H15.9853V72.4321H14.9518V73.0855H16.0542V73.8765H14.0388V70.2138H16.0542V71.0048Z" fill="#2B2A29"/>
<path d="M19.172 72.5181L18.7758 71.3487L18.3624 72.5181H19.172ZM19.4132 73.2403H18.1213L17.8973 73.8765H16.9327L18.2763 70.2138H19.2754L20.6018 73.8765H19.6371L19.4132 73.2403Z" fill="#2B2A29"/>
<path d="M22.5655 73.0855H22.7722C22.9617 73.0855 23.1167 73.0511 23.2373 72.9996C23.3751 72.9308 23.4784 72.8448 23.5645 72.7072C23.7023 72.5181 23.7713 72.2945 23.7713 72.0538C23.7713 71.7958 23.7023 71.5723 23.5645 71.3831C23.4784 71.2628 23.3751 71.1596 23.2373 71.108C23.1167 71.0392 22.9617 71.0048 22.7722 71.0048H22.5655V73.0855ZM21.6353 73.8765V70.2138H22.9961C23.1856 70.2138 23.3751 70.2482 23.5473 70.317C23.7368 70.3858 23.8918 70.4718 24.0469 70.6093C24.2536 70.7813 24.4258 70.9876 24.5464 71.2456C24.667 71.5035 24.7359 71.7786 24.7359 72.0538C24.7359 72.3289 24.667 72.5869 24.5464 72.8448C24.4258 73.1027 24.2536 73.3263 24.0469 73.4982C23.8918 73.6186 23.7368 73.7218 23.5473 73.7906C23.3751 73.8421 23.1856 73.8765 22.9961 73.8765H21.6353Z" fill="#2B2A29"/>
<path d="M29.2317 71.0048V73.8765H28.3016V71.0048H27.5609V70.2138H29.9897V71.0048H29.2317Z" fill="#2B2A29"/>
<path d="M31.9361 71.6239H33.2625V70.2138H34.1755V73.8765H33.2625V72.3633H31.9361V73.8765H31.0232V70.2138H31.9361V71.6239Z" fill="#2B2A29"/>
<path d="M37.5517 71.0048H36.4492V71.6411H37.4828V72.4321H36.4492V73.0855H37.5517V73.8765H35.5363V70.2138H37.5517V71.0048Z" fill="#2B2A29"/>
<path d="M43.2533 71.4691C43.1672 71.3488 43.0638 71.28 42.9777 71.2112C42.8227 71.108 42.6504 71.0564 42.461 71.0564C42.2198 71.0564 42.0131 71.1424 41.8408 71.28C41.6169 71.4691 41.5136 71.7271 41.5136 72.0538C41.5136 72.3805 41.6169 72.6384 41.8408 72.8276C42.0131 72.9824 42.2198 73.0511 42.461 73.0511C42.6504 73.0511 42.8227 72.9996 42.9777 72.8964C43.0638 72.8448 43.15 72.7588 43.2533 72.6556V73.7906C43.0811 73.8594 42.9433 73.9109 42.8055 73.9453C42.6849 73.9625 42.5471 73.9797 42.4093 73.9797C42.2026 73.9797 41.9959 73.9453 41.7892 73.8594C41.5825 73.7906 41.393 73.6874 41.2207 73.5326C41.014 73.3607 40.8418 73.1371 40.7212 72.8792C40.6178 72.6212 40.5489 72.3461 40.5489 72.0538C40.5489 71.7615 40.6178 71.4863 40.7212 71.2284C40.8418 70.9876 41.014 70.7641 41.2207 70.5749C41.393 70.4374 41.5825 70.3342 41.7892 70.2482C41.9959 70.1794 42.2026 70.145 42.4265 70.145C42.5643 70.145 42.6849 70.145 42.8055 70.1794C42.9433 70.2138 43.0811 70.2482 43.2533 70.317V71.4691Z" fill="#2B2A29"/>
<path d="M45.3721 71.6239H46.6984V70.2138H47.6114V73.8765H46.6984V72.3633H45.3721V73.8765H44.4591V70.2138H45.3721V71.6239Z" fill="#2B2A29"/>
<path d="M50.8842 72.5181L50.4881 71.3487L50.0919 72.5181H50.8842ZM51.1426 73.2403H49.8335L49.6096 73.8765H48.6449L50.0057 70.2138H51.0048L52.3312 73.8765H51.3493L51.1426 73.2403Z" fill="#2B2A29"/>
<path d="M54.2777 71.8474H54.4499C54.6394 71.8474 54.7772 71.813 54.8633 71.7271C54.8978 71.6927 54.9322 71.6411 54.9667 71.5723C54.9839 71.5207 55.0011 71.4519 55.0011 71.4003C55.0011 71.3487 54.9839 71.28 54.9667 71.2284C54.9322 71.1596 54.8978 71.108 54.8633 71.0736C54.7772 70.9876 54.6394 70.936 54.4499 70.936H54.2777V71.8474ZM55.1906 72.3805L56.2931 73.8765H55.1562L54.2777 72.4665V73.8765H53.3647V70.2138H54.7944C55.0011 70.2138 55.1906 70.2482 55.3284 70.2998C55.4835 70.3686 55.604 70.4718 55.7074 70.6093C55.7935 70.7125 55.8452 70.8157 55.8969 70.9532C55.9313 71.0736 55.9485 71.2112 55.9485 71.3487C55.9485 71.4863 55.9313 71.6411 55.8796 71.7786C55.828 71.9162 55.7591 72.0366 55.6729 72.1226C55.604 72.1913 55.5351 72.2429 55.4662 72.2773C55.3973 72.3117 55.294 72.3461 55.1906 72.3805Z" fill="#2B2A29"/>
<path d="M59.0147 71.8474H60.8406C60.8406 72.2429 60.7889 72.5697 60.7028 72.8104C60.5822 73.1887 60.3583 73.481 60.0655 73.6874C59.7726 73.8937 59.4281 73.9969 59.0319 73.9969C58.7219 73.9969 58.429 73.9281 58.1707 73.8078C57.9123 73.7046 57.7056 73.5326 57.5333 73.3091C57.4127 73.1371 57.3094 72.948 57.2577 72.7244C57.1888 72.5181 57.1543 72.2945 57.1543 72.071C57.1543 71.813 57.1888 71.5551 57.2749 71.3316C57.3438 71.0908 57.4644 70.9017 57.6022 70.7125C57.7745 70.5233 57.9812 70.3686 58.2396 70.2654C58.4807 70.145 58.7563 70.0935 59.0664 70.0935C59.4798 70.0935 59.8243 70.2138 60.1171 70.4374C60.2377 70.5233 60.3238 70.6093 60.41 70.7125C60.4789 70.8157 60.565 70.9532 60.6511 71.1252L59.7726 71.5035C59.7382 71.4003 59.7037 71.3316 59.652 71.2628C59.6176 71.2112 59.5831 71.1596 59.5142 71.108C59.3764 70.9876 59.2042 70.9361 59.0147 70.9361C58.7735 70.9361 58.5841 71.022 58.429 71.1768C58.3257 71.28 58.2396 71.4175 58.1879 71.5723C58.1362 71.7271 58.1017 71.899 58.1017 72.071C58.1017 72.2257 58.119 72.3805 58.1879 72.5353C58.2396 72.69 58.3085 72.8276 58.4118 72.9308C58.5668 73.1027 58.7735 73.1887 59.0492 73.1887C59.2731 73.1887 59.4626 73.1199 59.6004 72.9824C59.652 72.9308 59.6865 72.8792 59.7037 72.8104C59.7382 72.7588 59.7554 72.6728 59.7726 72.5697H59.0147V71.8474Z" fill="#2B2A29"/>
<path d="M64.0446 71.0048H62.9593V71.6411H63.9929V72.4321H62.9593V73.0855H64.0446V73.8765H62.0464V70.2138H64.0446V71.0048Z" fill="#2B2A29"/>
</g>
<defs>
<clipPath id="clip0_428_325">
<rect width="75" height="74" fill="white"/>
</clipPath>
</defs>
</svg>
