<svg width="137" height="117" viewBox="0 0 137 117" fill="none" xmlns="http://www.w3.org/2000/svg">
<path d="M60.0586 34.2461V65.8867C60.0586 73.0742 59.668 78.3086 58.8867 81.5898C58.1055 84.8711 56.4844 87.9375 54.0234 90.7891C51.5625 93.6406 48.5938 95.6914 45.1172 96.9414C41.6406 98.1914 37.7539 98.8164 33.457 98.8164C27.793 98.8164 23.0859 98.1719 19.3359 96.8828C15.5859 95.5547 12.5977 93.5039 10.3711 90.7305C8.14453 87.957 6.5625 85.0469 5.625 82C4.6875 78.9141 4.21875 74.0312 4.21875 67.3516V34.2461C4.21875 25.5352 4.96094 19.0117 6.44531 14.6758C7.96875 10.3398 10.957 6.86328 15.4102 4.24609C19.9023 1.62891 25.332 0.320312 31.6992 0.320312C36.8945 0.320312 41.543 1.23828 45.6445 3.07422C49.7461 4.87109 52.8125 7.07812 54.8438 9.69531C56.875 12.3125 58.2422 15.2617 58.9453 18.543C59.6875 21.8242 60.0586 27.0586 60.0586 34.2461ZM36.3867 26.2773C36.3867 21.2383 36.1328 18.0937 35.625 16.8438C35.1562 15.5547 34.0234 14.9102 32.2266 14.9102C30.4688 14.9102 29.2969 15.5938 28.7109 16.9609C28.1641 18.2891 27.8906 21.3945 27.8906 26.2773V72.5664C27.8906 78.0742 28.1445 81.3945 28.6523 82.5273C29.1992 83.6602 30.3516 84.2266 32.1094 84.2266C33.8672 84.2266 35.0195 83.5625 35.5664 82.2344C36.1133 80.9062 36.3867 77.918 36.3867 73.2695V26.2773ZM122.027 43.2695C125.621 44.4805 128.297 46.4727 130.055 49.2461C131.812 51.9805 132.691 58.4258 132.691 68.582C132.691 76.1211 131.832 81.9805 130.113 86.1602C128.395 90.3008 125.426 93.4648 121.207 95.6523C116.988 97.8008 111.578 98.875 104.977 98.875C97.4766 98.875 91.5781 97.625 87.2812 95.125C83.0234 92.5859 80.2109 89.5 78.8438 85.8672C77.5156 82.1953 76.8516 75.8477 76.8516 66.8242V59.3242H100.523V74.7344C100.523 78.8359 100.758 81.4531 101.227 82.5859C101.734 83.6797 102.828 84.2266 104.508 84.2266C106.344 84.2266 107.555 83.5234 108.141 82.1172C108.727 80.7109 109.02 77.0391 109.02 71.1016V64.5391C109.02 60.9062 108.609 58.25 107.789 56.5703C106.969 54.8906 105.758 53.7969 104.156 53.2891C102.555 52.7422 99.4492 52.4297 94.8398 52.3516V38.582C100.465 38.582 103.941 38.3672 105.27 37.9375C106.598 37.5078 107.555 36.5703 108.141 35.125C108.727 33.6797 109.02 31.4141 109.02 28.3281V23.0547C109.02 19.7344 108.668 17.5469 107.965 16.4922C107.301 15.4375 106.246 14.9102 104.801 14.9102C103.16 14.9102 102.027 15.4766 101.402 16.6094C100.816 17.7031 100.523 20.0664 100.523 23.6992V31.4922H76.8516V23.4062C76.8516 14.3437 78.9219 8.23047 83.0625 5.06641C87.2031 1.86328 93.7852 0.261719 102.809 0.261719C114.098 0.261719 121.754 2.46875 125.777 6.88281C129.801 11.2969 131.812 17.4297 131.812 25.2812C131.812 30.5938 131.09 34.4414 129.645 36.8242C128.199 39.168 125.66 41.3164 122.027 43.2695Z" fill="#F2F2F2"/>
<rect x="5" y="114" width="65" height="3" fill="#C4C4C4"/>
</svg>
