<svg width="134" height="117" viewBox="0 0 134 117" fill="none" xmlns="http://www.w3.org/2000/svg">
<path d="M60.0586 34.2461V65.8867C60.0586 73.0742 59.668 78.3086 58.8867 81.5898C58.1055 84.8711 56.4844 87.9375 54.0234 90.7891C51.5625 93.6406 48.5938 95.6914 45.1172 96.9414C41.6406 98.1914 37.7539 98.8164 33.457 98.8164C27.793 98.8164 23.0859 98.1719 19.3359 96.8828C15.5859 95.5547 12.5977 93.5039 10.3711 90.7305C8.14453 87.957 6.5625 85.0469 5.625 82C4.6875 78.9141 4.21875 74.0312 4.21875 67.3516V34.2461C4.21875 25.5352 4.96094 19.0117 6.44531 14.6758C7.96875 10.3398 10.957 6.86328 15.4102 4.24609C19.9023 1.62891 25.332 0.320312 31.6992 0.320312C36.8945 0.320312 41.543 1.23828 45.6445 3.07422C49.7461 4.87109 52.8125 7.07812 54.8438 9.69531C56.875 12.3125 58.2422 15.2617 58.9453 18.543C59.6875 21.8242 60.0586 27.0586 60.0586 34.2461ZM36.3867 26.2773C36.3867 21.2383 36.1328 18.0937 35.625 16.8438C35.1562 15.5547 34.0234 14.9102 32.2266 14.9102C30.4688 14.9102 29.2969 15.5938 28.7109 16.9609C28.1641 18.2891 27.8906 21.3945 27.8906 26.2773V72.5664C27.8906 78.0742 28.1445 81.3945 28.6523 82.5273C29.1992 83.6602 30.3516 84.2266 32.1094 84.2266C33.8672 84.2266 35.0195 83.5625 35.5664 82.2344C36.1133 80.9062 36.3867 77.918 36.3867 73.2695V26.2773ZM125.836 2.13672V64.1289H132.574V80.3008H125.836V97H102.164V80.3008H74.0391V64.1289L94.4883 2.13672H125.836ZM102.164 64.1289V23.7578L91.7344 64.1289H102.164Z" fill="#F2F2F2"/>
<rect x="5" y="114" width="65" height="3" fill="#C4C4C4"/>
</svg>
