<svg width="138" height="117" viewBox="0 0 138 117" fill="none" xmlns="http://www.w3.org/2000/svg">
<path d="M60.0586 34.2461V65.8867C60.0586 73.0742 59.668 78.3086 58.8867 81.5898C58.1055 84.8711 56.4844 87.9375 54.0234 90.7891C51.5625 93.6406 48.5938 95.6914 45.1172 96.9414C41.6406 98.1914 37.7539 98.8164 33.457 98.8164C27.793 98.8164 23.0859 98.1719 19.3359 96.8828C15.5859 95.5547 12.5977 93.5039 10.3711 90.7305C8.14453 87.957 6.5625 85.0469 5.625 82C4.6875 78.9141 4.21875 74.0312 4.21875 67.3516V34.2461C4.21875 25.5352 4.96094 19.0117 6.44531 14.6758C7.96875 10.3398 10.957 6.86328 15.4102 4.24609C19.9023 1.62891 25.332 0.320312 31.6992 0.320312C36.8945 0.320312 41.543 1.23828 45.6445 3.07422C49.7461 4.87109 52.8125 7.07812 54.8438 9.69531C56.875 12.3125 58.2422 15.2617 58.9453 18.543C59.6875 21.8242 60.0586 27.0586 60.0586 34.2461ZM36.3867 26.2773C36.3867 21.2383 36.1328 18.0937 35.625 16.8438C35.1562 15.5547 34.0234 14.9102 32.2266 14.9102C30.4688 14.9102 29.2969 15.5938 28.7109 16.9609C28.1641 18.2891 27.8906 21.3945 27.8906 26.2773V72.5664C27.8906 78.0742 28.1445 81.3945 28.6523 82.5273C29.1992 83.6602 30.3516 84.2266 32.1094 84.2266C33.8672 84.2266 35.0195 83.5625 35.5664 82.2344C36.1133 80.9062 36.3867 77.918 36.3867 73.2695V26.2773ZM129.234 2.13672V17.3125H99.8789V33.4258C103.551 29.0898 108.277 26.9219 114.059 26.9219C120.582 26.9219 125.504 28.7578 128.824 32.4297C132.184 36.0625 133.863 43.0742 133.863 53.4648V67C133.863 73.7188 133.531 78.6602 132.867 81.8242C132.242 84.9492 130.875 87.8594 128.766 90.5547C126.656 93.2109 123.707 95.2617 119.918 96.707C116.168 98.1133 111.578 98.8164 106.148 98.8164C100.055 98.8164 94.6836 97.7617 90.0352 95.6523C85.3867 93.5039 82.0859 90.3203 80.1328 86.1016C78.1797 81.8828 77.2031 75.3594 77.2031 66.5312V61.375H100.875V67.293C100.875 73.4258 101.09 77.7812 101.52 80.3594C101.949 82.9375 103.434 84.2266 105.973 84.2266C107.145 84.2266 108.082 83.8555 108.785 83.1133C109.527 82.3711 109.918 81.5703 109.957 80.7109C110.035 79.8516 110.113 76.1211 110.191 69.5195V50.7109C110.191 47.1562 109.82 44.7344 109.078 43.4453C108.336 42.1562 107.105 41.5117 105.387 41.5117C104.293 41.5117 103.375 41.8438 102.633 42.5078C101.891 43.1719 101.402 43.8945 101.168 44.6758C100.973 45.418 100.875 47.1758 100.875 49.9492H77.4375L78.4336 2.13672H129.234Z" fill="#F2F2F2"/>
<rect x="5" y="114" width="65" height="3" fill="#C4C4C4"/>
</svg>
