<svg width="63" height="81" viewBox="0 0 63 81" fill="none" xmlns="http://www.w3.org/2000/svg">
<path d="M41.2841 16.5286H39.3084V19.2098C39.3084 20.4093 38.3912 21.3268 37.1915 21.3268C36.0624 21.3268 35.0746 20.4096 35.0746 19.2098V16.5286H33.1696V19.2098C33.1696 20.4093 32.2524 21.3268 31.0527 21.3268C29.9236 21.3268 28.9357 20.4096 28.9357 19.2098L28.936 16.5286H26.9601V19.2098C26.9601 20.4093 26.0429 21.3268 24.8432 21.3268C23.7141 21.3268 22.7263 20.4096 22.7263 19.2098L22.7265 16.5286H20.7509C18.634 16.5286 16.87 18.2926 16.87 20.4096V24.2905H45.1645V20.4802C45.1645 18.2927 43.4712 16.5287 41.2839 16.5287L41.2841 16.5286Z" fill="#009FA6"/>
<path d="M16.8703 29.4412C18.4933 28.4534 20.4689 27.8888 22.5152 27.8888C28.5834 27.8888 33.5226 32.8279 33.5226 38.8962C33.5226 41.507 32.6054 43.8353 31.1237 45.7405H41.2843C43.4012 45.7405 45.1652 43.9765 45.1652 41.8596L45.165 25.7719H16.8704L16.8703 29.4412Z" fill="#009FA6"/>
<path d="M24.8436 19.9862C25.2669 19.9862 25.5491 19.704 25.5491 19.2807V15.2585C25.5491 14.8352 25.2668 14.553 24.8436 14.553C24.4203 14.553 24.138 14.8353 24.138 15.2585V19.2804C24.138 19.6333 24.4907 19.9862 24.8436 19.9862Z" fill="#009FA6"/>
<path d="M31.0529 19.9862C31.4762 19.9862 31.7584 19.704 31.7584 19.2807V15.2585C31.7584 14.8352 31.4762 14.553 31.0529 14.553C30.6296 14.553 30.3474 14.8353 30.3474 15.2585V19.2804C30.3474 19.6333 30.6296 19.9862 31.0529 19.9862Z" fill="#009FA6"/>
<path d="M37.1916 19.9862C37.6149 19.9862 37.8971 19.704 37.8971 19.2807V15.2585C37.8971 14.8352 37.6149 14.553 37.1916 14.553C36.7683 14.553 36.4861 14.8353 36.4861 15.2585V19.2804C36.4861 19.6333 36.8387 19.9862 37.1916 19.9862Z" fill="#009FA6"/>
<path d="M22.5151 29.2295C17.2231 29.2295 12.9189 33.5337 12.9189 38.8257C12.9896 44.1177 17.2231 48.4218 22.5151 48.4218C27.8071 48.4218 32.1113 44.1177 32.1113 38.8257C32.1113 33.5337 27.8071 29.2295 22.5151 29.2295V29.2295ZM23.2206 46.2345V44.9644C23.2206 44.5411 22.9384 44.2589 22.5151 44.2589C22.0918 44.2589 21.8096 44.5411 21.8096 44.9644V46.2345C18.2816 45.8816 15.3886 43.0594 15.1064 39.5313H16.3762C16.7995 39.5313 17.0817 39.249 17.0817 38.8257C17.0817 38.4728 16.7995 38.1202 16.3762 38.1202H15.1061C15.459 34.5922 18.2812 31.7698 21.8093 31.417V32.6871C21.8093 33.04 22.0916 33.3926 22.5149 33.3926C22.9381 33.3926 23.2204 33.0397 23.2204 32.6871V31.417C26.7484 31.7699 29.6413 34.5921 29.9236 38.1202H28.6535C28.3006 38.1202 27.948 38.4731 27.948 38.8257C27.948 39.249 28.3009 39.5313 28.6535 39.5313H29.9236C29.6418 43.0593 26.8194 45.9522 23.221 46.2345H23.2206Z" fill="#009FA6"/>
<path d="M24.4202 38.8257C24.4202 39.6019 23.9263 40.2368 23.2911 40.5191L23.2914 42.777C23.2914 43.1299 23.0091 43.4825 22.5858 43.4825C22.2329 43.4825 21.8803 43.1296 21.8803 42.777V40.5191C21.2454 40.2368 20.7512 39.5312 20.7512 38.8257C20.7512 38.6141 20.8219 38.3318 20.8922 38.1202L18.4227 35.6506C18.1404 35.3684 18.1404 34.9451 18.4227 34.6628C18.705 34.3805 19.1282 34.3805 19.4105 34.6628L21.8801 37.1323C22.0917 37.0617 22.374 36.9913 22.5856 36.9913C23.5737 36.9911 24.4202 37.8379 24.4202 38.8257L24.4202 38.8257Z" fill="#009FA6"/>
<circle cx="31.5" cy="31.5" r="31" stroke="#08B8BF"/>
<rect x="24" y="79" width="17" height="2" fill="#1D4C9A"/>
</svg>
