<svg width="63" height="81" viewBox="0 0 63 81" fill="none" xmlns="http://www.w3.org/2000/svg">
<rect x="23" y="79" width="17" height="2" fill="#1D4C9A"/>
<path d="M34.3196 31.0067C34.8817 30.8369 36.6075 30.6887 37.4967 30.9543C38.3396 30.5467 39.7012 29.1851 40.4884 28.2433C40.5485 28.0565 40.6044 27.8705 40.657 27.6852C40.8138 27.9465 41.0719 28.1466 41.3934 28.215L41.5989 28.2573C42.4151 28.4267 43.213 27.9008 43.3823 27.0845L43.7571 25.2798C43.9203 24.5061 43.4549 23.7474 42.7112 23.5267C42.4302 18.5996 38.3344 14.679 33.3374 14.679C28.3404 14.679 24.2453 18.5994 23.9636 23.5267C23.2199 23.7474 22.7546 24.5061 22.9177 25.2798L23.2925 27.0845C23.4618 27.9005 24.2599 28.4267 25.076 28.2573L25.2815 28.215C25.6029 28.1466 25.861 27.9468 26.0178 27.6852C27.1543 31.7133 30.0016 36.1662 33.3372 36.1662C35.9585 36.1662 38.2772 33.4184 39.7039 30.2844C38.9229 31.0254 38.2158 31.581 37.9564 31.7107C37.5489 32.4611 35.752 33.477 35.1283 33.6652C35.0387 33.6962 34.943 33.7115 34.8534 33.7208C34.594 33.7425 34.3408 33.6962 34.1248 33.5882C33.7852 33.4245 33.5164 33.125 33.3993 32.7421C33.1706 32.004 33.5905 31.232 34.3192 31.0069L34.3196 31.0067ZM38.31 18.1005C38.3826 18.1005 38.4552 18.0855 38.5217 18.0611C38.709 17.9885 38.9267 18.0491 39.0687 18.1881C40.4985 19.5815 41.4234 21.489 41.5412 23.6078C41.3911 23.7048 41.2691 23.8391 41.1782 23.9962C41.0828 21.5633 39.8813 19.4154 38.0612 18.0414C38.1427 18.0803 38.2263 18.1005 38.31 18.1005L38.31 18.1005ZM25.4971 23.9964C25.4063 23.8397 25.284 23.705 25.1341 23.6081C25.252 21.4892 26.1771 19.5818 27.6066 18.1884C27.7486 18.0493 27.9664 17.9888 28.1537 18.0614C28.2201 18.0855 28.2927 18.1008 28.3653 18.1008C28.449 18.1008 28.5326 18.0804 28.6141 18.042C26.7942 19.4157 25.5928 21.5635 25.4971 23.9965L25.4971 23.9964Z" fill="#009FA6"/>
<path d="M45.5733 38.9466C45.5733 38.9466 42.0532 37.7171 40.5037 37.1779C40.0261 37.0118 39.5012 37.2365 39.2912 37.6964L34.3819 46.3646C33.8767 47.2412 32.6115 47.2397 32.1082 46.3621L27.3704 37.6965C27.1603 37.2365 26.6354 37.0119 26.1579 37.178C24.6085 37.7172 21.0884 38.9466 21.0884 38.9466C18.7291 39.6738 17.3 42.734 16.5477 46.7712C16.3925 47.6052 17.0197 48.3797 17.8683 48.3797H48.8063C49.6563 48.3797 50.2844 47.6025 50.1261 46.7675C49.361 42.7323 47.9322 39.6737 45.5734 38.9467L45.5733 38.9466Z" fill="#009FA6"/>
<path d="M35.0453 37.5751L31.5021 37.5529C31.1844 37.5441 30.9413 37.8069 31.0008 38.0877L31.5218 40.4095C31.5715 40.6145 31.7649 40.7617 31.9933 40.7706L34.4943 40.7883C34.7227 40.7839 34.9211 40.6411 34.9708 40.4317L35.5316 38.1231C35.6013 37.8425 35.363 37.575 35.0453 37.575L35.0453 37.5751Z" fill="#009FA6"/>
<path d="M31.6553 41.374L31.3093 43.2389L32.8545 45.9646C32.935 46.115 33.0959 46.1955 33.2677 46.2007C33.4395 46.1952 33.6004 46.1148 33.6809 45.9646L35.2261 43.2389L34.8801 41.374H31.6553Z" fill="#009FA6"/>
<circle cx="31.5" cy="31.5" r="31" stroke="#08B8BF"/>
</svg>
