<svg width="63" height="81" viewBox="0 0 63 81" fill="none" xmlns="http://www.w3.org/2000/svg">
<rect x="23" y="79" width="17" height="2" fill="#1D4C9A"/>
<path fill-rule="evenodd" clip-rule="evenodd" d="M16 22.6361H47V17.8739C47 17.3517 46.7848 16.8907 46.4471 16.5529C46.1091 16.2149 45.6176 16 45.1261 16H17.8743C17.3521 16 16.8911 16.2152 16.5533 16.5529C16.2154 16.8909 16.0004 17.3517 16.0004 17.8739V22.6361H16ZM47 24.8483H16V45.341C16 45.7711 16.1842 46.2012 16.4915 46.5085C16.7988 46.8158 17.1982 47 17.659 47H45.3409C45.771 47 46.2011 46.8158 46.5084 46.5085C46.8156 46.2012 46.9999 45.7711 46.9999 45.341V24.8483H47ZM31.6074 36.0626V36.0319L33.1436 34.5264L31.0543 33.9735L28.9959 33.4206L30.1019 37.5683L31.6073 36.0628L31.6074 36.0626ZM33.6658 36.7385L36.0621 39.1042C36.4308 39.5036 36.4308 40.0874 36.0621 40.4868C35.6628 40.8555 35.0482 40.8555 34.6795 40.4868L32.3139 38.0905L30.2862 40.1182C29.9175 40.4868 29.3029 40.4868 28.9035 40.1182C28.7807 39.9953 28.6884 39.8109 28.6577 39.6266L26.6914 32.284C26.5379 31.7925 26.8449 31.2394 27.3673 31.1166C27.5516 31.0551 27.7053 31.0858 27.8896 31.1166L35.2631 33.0828C35.7854 33.2364 36.0619 33.7588 35.9391 34.2811C35.9084 34.4346 35.8163 34.5883 35.6932 34.7112L33.6658 36.7385ZM22.7892 18.3658C23.3114 18.3658 23.7418 18.7959 23.7418 19.3183C23.7418 19.8405 23.3117 20.3016 22.7892 20.3016C22.2363 20.3016 21.806 19.8408 21.806 19.3183C21.806 18.7961 22.2361 18.3658 22.7892 18.3658ZM28.5956 18.3658H40.209C40.7312 18.3658 41.1923 18.7959 41.1923 19.3183C41.1923 19.8405 40.7315 20.3016 40.209 20.3016H28.5956C28.0427 20.3016 27.6124 19.8408 27.6124 19.3183C27.6124 18.7961 28.0425 18.3658 28.5956 18.3658V18.3658ZM25.6768 18.3658C26.2297 18.3658 26.6601 18.7959 26.6601 19.3183C26.6601 19.8405 26.23 20.3016 25.6768 20.3016C25.1546 20.3016 24.7243 19.8408 24.7243 19.3183C24.7243 18.7961 25.1544 18.3658 25.6768 18.3658V18.3658Z" fill="#009FA6"/>
<circle cx="31.5" cy="31.5" r="31" stroke="#08B8BF"/>
</svg>
