<svg width="63" height="81" viewBox="0 0 63 81" fill="none" xmlns="http://www.w3.org/2000/svg">
<rect x="23" y="79" width="17" height="2" fill="#1D4C9A"/>
<path d="M32.5069 28.4663C32.4548 28.5184 32.3504 28.5184 32.246 28.5707L32.5069 28.4663C32.5069 28.4663 32.4545 28.4663 32.5069 28.4663Z" fill="#009FA6"/>
<path d="M36.7309 35.4544C36.6789 35.4024 36.6265 35.4024 36.5745 35.35C36.6265 35.4024 36.6786 35.4024 36.7309 35.4544Z" fill="#009FA6"/>
<path d="M28.1263 35.4022C28.3871 34.933 28.2307 34.3593 27.761 34.1506C27.2918 33.8897 26.7181 34.0462 26.5094 34.5158L26.2485 34.985L27.8651 35.8715L28.1263 35.4022Z" fill="#009FA6"/>
<path d="M24.893 35.4022C25.1538 34.933 24.9974 34.3593 24.5278 34.1506C24.0585 33.8897 23.4849 34.0462 23.2761 34.5158L22.9636 34.933L24.5802 35.8195L24.893 35.4022Z" fill="#009FA6"/>
<path d="M55.244 29.7179L53.0018 25.5459L50.4983 21.061C50.3419 20.8002 50.0291 20.6958 49.8203 20.8526L47.0564 22.3647L43.5623 24.2942C43.3015 24.4506 43.1971 24.7634 43.3539 24.9722L43.4583 25.1807L41.3201 26.0151C41.1636 26.0672 40.9028 26.0672 40.7464 26.0151L34.9578 23.1993C34.8014 23.1472 34.5406 23.0949 34.3841 23.1472L29.8472 24.6074C29.6908 24.6594 29.43 24.7638 29.3256 24.8682C29.3256 24.8682 27.8654 25.9636 26.5616 26.9021C25.988 27.3193 25.4144 27.6842 25.1015 27.945C25.0494 27.997 24.9971 27.997 24.945 28.0494C23.7977 29.0403 25.4143 30.8133 27.1353 30.0832C29.1171 29.2487 32.872 27.3193 32.872 27.3193L38.4521 31.8562L43.3019 35.7674L47.7348 33.212C47.7868 33.16 47.7868 33.16 47.8392 33.1076L48.1 33.5769C48.2564 33.8377 48.5693 33.9421 48.7781 33.7853L55.0359 30.3958C55.296 30.2917 55.348 29.9789 55.244 29.7181L55.244 29.7179Z" fill="#009FA6"/>
<path d="M30.473 38.114L30.3686 38.2704C30.577 38.2184 31.0986 38.2184 31.2551 38.2184L30.6294 37.6968C30.6294 37.8012 30.525 38.0616 30.473 38.114H30.473Z" fill="#009FA6"/>
<path d="M32.1939 39.4699C32.2983 39.8872 32.2459 40.3044 32.0375 40.6693L31.3595 41.7646C31.3595 41.8166 31.3074 41.8166 31.3074 41.869C31.7767 42.0254 32.2984 41.869 32.6112 41.4517C33.0284 40.9301 32.924 40.0959 32.4027 39.6788L32.1939 39.4699Z" fill="#009FA6"/>
<path d="M42.8324 36.2888L42.5716 36.0803L38.8688 33.16C38.8688 33.16 38.5036 32.8992 37.9823 32.43L32.6109 28.1016C31.7764 28.4668 28.6476 30.0833 27.0307 30.7611C26.7179 30.9175 26.3526 30.9695 26.0398 30.9695C25.1013 30.9695 24.1624 30.3959 23.9015 29.5614C23.6931 28.9357 23.8495 28.3097 24.3708 27.8405C24.4228 27.7884 24.4752 27.7361 24.5792 27.684C24.8921 27.4756 25.9874 26.6411 26.6131 26.1719C27.3432 25.6502 28.1252 25.0766 28.6469 24.6597C28.5425 24.5553 28.4385 24.5033 28.4385 24.5033L28.0732 24.4513C27.9168 24.3993 27.656 24.4513 27.4996 24.5033L22.8583 26.0155C22.7019 26.0675 22.441 26.0675 22.2846 26.0155L20.3552 25.2854H20.1467L20.3552 24.9202C20.5116 24.6593 20.4072 24.3465 20.1467 24.2421L16.6527 22.3127L13.8888 20.8005C13.628 20.6441 13.3151 20.7485 13.2107 21.009L10.7597 25.5459L8.51744 29.7179C8.36102 29.9788 8.46542 30.2916 8.72588 30.396L14.9837 33.7855C15.2446 33.942 15.5574 33.8376 15.6618 33.5771L15.8702 33.2119L15.9223 33.2639L19.7814 35.4542C19.8334 35.5062 19.9899 35.5586 20.0943 35.5586C20.0943 35.5586 20.6159 35.8714 21.5024 36.3407C21.5024 36.0798 21.6068 35.819 21.7108 35.6106L22.7018 33.994C23.0146 33.4724 23.5362 33.212 24.162 33.212C24.4748 33.212 24.7876 33.3164 25.0484 33.4728C25.3613 33.6812 25.6221 33.9944 25.7265 34.3593L25.8829 34.1508C26.1958 33.6292 26.7694 33.3164 27.3431 33.3164C27.656 33.3164 27.9688 33.4208 28.2296 33.5772C28.6469 33.7856 28.9077 34.2029 29.0117 34.6201C29.1161 34.9853 29.0637 35.4022 28.9073 35.7674C29.2725 35.7154 29.6894 35.7674 30.0026 35.9758C30.3679 36.1843 30.6283 36.5495 30.7327 36.9667C30.8371 37.2796 30.7847 37.5924 30.6807 37.9053L31.4628 38.4269C31.5148 38.4269 31.9844 38.7921 32.1408 39.0006L34.9567 41.1908C35.4784 41.6081 36.2605 41.5037 36.6777 40.9824C37.0949 40.4608 36.9905 39.6787 36.4692 39.2615L30.9934 34.4117L38.0858 39.7311C38.6074 40.1483 39.3895 40.0439 39.8067 39.5227C40.224 39.001 40.1196 38.2189 39.5983 37.8017L32.8715 32.0131C32.8715 32.0131 40.694 37.8538 41.0592 38.1146C41.2156 38.219 41.2676 38.271 41.2676 38.271C41.7893 38.6883 42.5714 38.5839 42.9886 38.0626L43.0406 38.0106C43.4058 37.4886 43.3538 36.7065 42.8322 36.2893L42.8324 36.2888Z" fill="#009FA6"/>
<path d="M31.2031 38.6355C30.6815 38.3226 30.0038 38.427 29.5866 38.8439L30.1082 37.9574C30.4734 37.3317 30.2646 36.5493 29.6389 36.1844C29.1173 35.8716 28.4917 35.976 28.0744 36.3409L28.3872 35.8192C28.7524 35.1412 28.5436 34.3071 27.8656 33.8898C27.1875 33.4725 26.3534 33.7333 25.9361 34.4114L25.5709 35.1939C25.6229 34.6722 25.4145 34.151 24.9452 33.8901C24.3195 33.4729 23.4331 33.6817 23.0678 34.3594L22.1293 35.8715C21.7121 36.4972 21.9209 37.3837 22.5986 37.7489C23.0679 38.0098 23.6415 38.0098 24.0588 37.6969C23.7459 38.3226 23.9544 39.105 24.6324 39.5223C25.2581 39.8876 26.0926 39.7308 26.4579 39.1051C26.0926 39.7308 26.3014 40.5132 26.9271 40.8781C27.5008 41.2433 28.2309 41.0865 28.6481 40.5652C28.4916 41.1389 28.7525 41.8169 29.3261 42.1298C30.0042 42.495 30.8383 42.2342 31.2035 41.6082L31.8292 40.5653C32.1417 39.8352 31.8808 39.0007 31.2031 38.6355L31.2031 38.6355Z" fill="#009FA6"/>
<circle cx="31.5" cy="31.5" r="31" stroke="#08B8BF"/>
</svg>
