<svg width="63" height="81" viewBox="0 0 63 81" fill="none" xmlns="http://www.w3.org/2000/svg">
<rect x="23" y="79" width="17" height="2" fill="#1D4C9A"/>
<path d="M42.9684 24.7472C42.5099 24.2897 40.9396 23.8326 40.9396 23.8326V21.6305L39.8497 19.7029L39.1575 19.3022L38.4919 17.6936L36.4827 16.5364L35.891 16.8777L34.9007 16.0604H34.5543L34.3061 15.2445L31.7313 15.1204L31.311 16.456L30.99 16.4556H30.669L30.248 15.12L27.6732 15.2441L27.425 16.06H27.0797L26.0891 16.8774L25.4973 16.536L23.4899 17.6933L22.8232 19.3018L22.1303 19.7025L21.04 21.6302V23.8323C21.04 23.8323 19.4701 24.2893 19.0123 24.7468C18.5537 25.2057 17.947 25.9117 17.947 26.8779C17.947 27.8401 18.3932 32.6176 18.3932 33.4838C18.3932 34.351 19.9115 35.6327 20.818 36.1575C21.1131 36.3281 21.4159 36.4391 21.6892 36.5152C20.7939 37.8336 19.76 39.9273 19.76 41.4048C19.76 42.2087 20.0461 43.1021 20.561 43.9217C21.0796 44.7372 21.809 45.4421 22.6146 45.9105C22.6696 45.9397 22.7216 45.9699 22.7755 45.9993C22.7675 46.2745 22.9196 46.5409 23.1831 46.6686C24.6748 47.3921 26.2706 47.8488 26.339 47.8692C26.4052 47.8859 26.4711 47.8965 26.5355 47.8965C26.851 47.8965 27.1433 47.6858 27.2324 47.3692C27.3423 46.9845 27.1182 46.5835 26.7342 46.4754C26.7189 46.4717 25.1945 46.0365 23.8149 45.3662C23.5623 45.2472 23.2748 45.2828 23.0655 45.4386C23.0197 45.4131 22.9753 45.3884 22.9305 45.3629C21.4611 44.5142 20.3926 42.8478 20.3926 41.4056C20.3926 40.1118 21.3864 38.0124 22.3704 36.6539C22.5717 36.6764 22.7005 36.6775 22.7005 36.6775V37.841C22.7005 37.841 22.8439 38.0127 23.1052 38.2828L22.774 38.9313L23.2195 39.3003C23.2195 39.3003 22.9953 40.4648 22.9953 41.4059C22.9953 42.346 22.4025 42.4708 22.9953 43.3118C23.5899 44.1539 24.5619 44.7144 24.5619 44.7144C24.5619 44.7144 25.6318 45.1802 26.2257 45.0801C26.3753 44.932 26.5347 44.6361 26.5347 44.6361C26.5347 44.6361 24.8101 44.8705 24.6332 44.3497C24.9364 44.1776 24.9364 44.0298 24.9364 44.0298L24.27 43.3355L24.9367 42.949C24.9367 42.949 25.2734 40.9958 25.5336 40.7375C25.582 40.6869 25.6176 40.6181 25.642 40.5388C27.0446 41.5781 28.7834 42.5193 30.4701 42.5193V41.5046C30.4701 41.5046 28.1206 41.1072 26.634 39.6224C25.1489 38.1391 24.8024 37.0742 24.8024 37.0742L25.2981 36.3562C25.2981 36.3562 24.0608 33.3855 23.8875 31.9757C23.7143 30.5629 23.5156 27.4707 23.7143 26.7778C24.9756 25.7635 25.223 25.1911 30.9898 25.1911C36.7572 25.1911 37.0036 25.7628 38.2657 26.7778C38.4644 27.4707 38.2657 30.5629 38.0939 31.9757C37.9192 33.3855 36.6826 36.3562 36.6826 36.3562L37.1776 37.0742C37.1776 37.0742 36.8311 38.1391 35.346 39.6224C33.8609 41.1073 31.5091 41.5046 31.5091 41.5046V42.5193C33.1952 42.5193 34.9344 41.5781 36.3387 40.5388C36.3638 40.6181 36.3977 40.6869 36.4461 40.7375C36.7074 40.9962 37.0418 42.949 37.0418 42.949L37.7096 43.3355L37.044 44.0284C37.044 44.0284 37.044 44.1761 37.3457 44.3483C37.1688 44.8694 35.445 44.6347 35.445 44.6347C35.445 44.6347 35.6051 44.9298 35.7532 45.0787C36.3489 45.1787 37.4181 44.7129 37.4181 44.7129C37.4181 44.7129 38.3895 44.1525 38.9834 43.3103C39.5769 42.4693 38.9834 42.3445 38.9834 41.4045C38.9834 40.4637 38.7607 39.2988 38.7607 39.2988L39.2061 38.9298L38.8731 38.2813C39.1351 38.0105 39.2796 37.8395 39.2796 37.8395V36.6761C39.2796 36.6761 40.2538 36.6786 41.1618 36.1571C42.0658 35.6324 43.5866 34.351 43.5866 33.4834C43.5866 32.6173 44.0305 27.8394 44.0305 26.8776C44.0327 25.9117 43.4264 25.2058 42.9683 24.7472L42.9684 24.7472ZM36.0445 17.1139C36.1711 17.0499 36.3298 17.0997 36.3957 17.2271C36.9819 18.3723 37.0096 22.2936 36.6919 23.8352C36.6664 23.9582 36.5583 24.043 36.4372 24.043C36.4193 24.043 36.4019 24.0415 36.3851 24.0379C36.2432 24.008 36.1518 23.8708 36.181 23.7289C36.5081 22.1407 36.4292 18.4382 35.9299 17.4651C35.8654 17.3367 35.916 17.1802 36.0445 17.114V17.1139ZM30.7298 17.1255C30.7298 16.9822 30.8473 16.8646 30.99 16.8646C31.1345 16.8646 31.2502 16.9822 31.2502 17.1255V23.0152C31.2502 23.1586 31.1345 23.2762 30.99 23.2762C30.847 23.2762 30.7298 23.1586 30.7298 23.0152V17.1255ZM25.585 17.2271C25.6513 17.0997 25.8092 17.0488 25.9366 17.1139C26.0654 17.1801 26.1167 17.3366 26.0505 17.4654C25.5512 18.4422 25.4733 22.1411 25.8016 23.7292C25.8325 23.8708 25.7404 24.0083 25.5996 24.0382C25.5814 24.0414 25.5643 24.0433 25.5464 24.0433C25.426 24.0433 25.3164 23.9588 25.2917 23.8355C24.9725 22.2954 24.9987 18.3745 25.585 17.227L25.585 17.2271ZM22.6998 35.8467C22.5546 35.8467 22.4385 35.7292 22.4385 35.5865C22.4385 35.3474 22.3436 34.8481 22.2246 34.2164C22.0859 33.4882 21.9152 32.5809 21.7729 31.5135C21.6914 30.8923 21.5852 30.2187 21.4785 29.5367C21.2329 27.962 20.9781 26.3346 20.9781 25.1918C20.9781 25.0484 21.0939 24.9309 21.2383 24.9309C21.3828 24.9309 21.4985 25.0484 21.4985 25.1918C21.4985 26.2937 21.7496 27.9012 21.9942 29.4562C22.0997 30.1418 22.206 30.8194 22.2893 31.4443C22.4298 32.4985 22.5987 33.3975 22.7355 34.1199C22.8658 34.8048 22.9597 35.2989 22.9597 35.5868C22.96 35.7291 22.8439 35.8467 22.6998 35.8467L22.6998 35.8467ZM23.2435 25.8997C23.1482 25.8997 23.0543 25.8454 23.0092 25.753C22.4939 24.694 22.4385 21.6517 22.4385 20.3917C22.4385 20.2483 22.555 20.1308 22.6998 20.1308C22.8432 20.1308 22.96 20.2483 22.96 20.3917C22.96 22.3587 23.0972 24.7391 23.4775 25.5237C23.5405 25.6536 23.4881 25.809 23.3574 25.8724C23.3218 25.8913 23.2821 25.8997 23.2435 25.8997V25.8997ZM38.6099 26.4004C38.5615 26.4397 38.5044 26.459 38.4465 26.459C38.3705 26.459 38.2951 26.4255 38.2424 26.3618C37.516 25.4622 36.2212 24.5644 32.1358 24.6856H29.8529C25.8538 24.5674 24.5444 25.4437 23.8511 26.2254C23.7547 26.3323 23.5898 26.3436 23.4828 26.2472C23.3758 26.1508 23.3653 25.9874 23.4614 25.8789C24.2292 25.0128 25.6467 24.0437 29.8609 24.1634H32.1281C36.4358 24.0302 37.842 25.0346 38.648 26.0332C38.7398 26.1456 38.7219 26.3101 38.6098 26.4004L38.6099 26.4004ZM38.7366 25.8997C38.6984 25.8997 38.6587 25.8913 38.6223 25.8731C38.4946 25.8094 38.4385 25.654 38.5022 25.5245C38.885 24.7391 39.0204 22.3588 39.0204 20.3925C39.0204 20.2491 39.138 20.1315 39.2817 20.1315C39.4251 20.1315 39.5427 20.2491 39.5427 20.3925C39.5427 21.6523 39.487 24.6944 38.9709 25.7537C38.9258 25.8454 38.833 25.8997 38.7366 25.8997V25.8997ZM40.5027 29.5363C40.3957 30.2183 40.2912 30.8916 40.2075 31.5131C40.0671 32.5805 39.8956 33.4877 39.7585 34.216C39.6373 34.8478 39.543 35.3471 39.543 35.5862C39.543 35.7292 39.4255 35.8464 39.2821 35.8464C39.138 35.8464 39.0208 35.7288 39.0208 35.5862C39.0208 35.2987 39.115 34.8041 39.2446 34.1192C39.3818 33.3972 39.5525 32.4986 39.6908 31.4436C39.7741 30.8188 39.8807 30.1408 39.9881 29.4555C40.2308 27.9008 40.4823 26.2931 40.4823 25.1912C40.4823 25.0478 40.5998 24.9302 40.7425 24.9302C40.8866 24.9302 41.0038 25.0478 41.0038 25.1912C41.0034 26.3343 40.7487 27.962 40.5027 29.5364V29.5363Z" fill="#009FA6"/>
<circle cx="31.5" cy="31.5" r="31" stroke="#08B8BF"/>
</svg>
