<svg width="63" height="81" viewBox="0 0 63 81" fill="none" xmlns="http://www.w3.org/2000/svg">
<rect x="23" y="79" width="17" height="2" fill="#1D4C9A"/>
<path d="M21.5293 34.8469C22.1164 34.8469 22.263 35.434 22.7032 36.0208C23.2166 35.3604 23.3636 34.8469 23.877 34.8469C24.3905 34.8469 24.5375 35.2871 24.831 35.434V31.4719H20.5752V35.434C20.8688 35.2138 21.0154 34.8469 21.5292 34.8469H21.5293Z" fill="#009FA6"/>
<path d="M37.3049 35.4342C37.5985 35.2139 37.7451 34.7737 38.1856 34.7737C38.7728 34.7737 38.9194 35.3609 39.3595 35.9476C39.873 35.2872 40.0199 34.7737 40.5334 34.7737C41.0469 34.7737 41.1938 35.2139 41.4874 35.3609V31.3987H37.3049V35.4342Z" fill="#009FA6"/>
<path d="M24.7576 29.9305L26.225 30.0038H24.7576V29.9305Z" fill="#009FA6"/>
<path d="M35.8374 30.0041L37.3052 29.9308V30.0041H35.8374Z" fill="#009FA6"/>
<path d="M47.0642 31.4717H42.955V37.3418C42.955 38.0023 42.148 38.2958 41.7075 37.8553L40.6802 36.7547C40.0198 37.4884 39.9465 38.1488 39.286 38.0755C38.6989 38.0755 38.5523 37.4151 38.1122 36.7547L37.1582 37.8553C36.718 38.3688 35.9106 38.0019 35.9106 37.3418V31.4717C32.9757 31.6919 31.1411 30.9582 31.1411 32.2054C31.1411 30.9578 29.2332 31.6919 26.3715 31.4717V37.3418C26.3715 37.6354 26.1513 37.929 25.9314 38.0023C25.1976 38.2958 24.9041 37.4151 24.097 36.6815C23.4366 37.4152 23.3633 38.0756 22.7029 38.0023C22.1158 38.0023 21.9692 37.3418 21.529 36.6815C20.7953 37.3419 20.5017 38.2222 19.768 37.929C19.4745 37.7824 19.3279 37.5621 19.3279 37.2686V31.3984L15.0717 31.3981C14.6316 31.3981 14.338 31.6916 14.338 32.1318V47.4682C14.338 47.9083 14.6316 48.2019 15.0717 48.2019H30.3337C30.7739 48.2019 31.0675 47.9084 31.0675 47.4682C31.0675 47.9083 31.361 48.2019 31.8012 48.2019H47.0632C47.5034 48.2019 47.7969 47.9084 47.7969 47.4682L47.7973 32.2062C47.7973 31.7657 47.4304 31.4724 47.0635 31.4724L47.0642 31.4717Z" fill="#009FA6"/>
<path d="M29.8936 18.1174C30.554 18.1174 30.6274 18.7778 31.0675 19.2913C31.581 18.6308 31.7279 18.1174 32.2414 18.1174C32.6815 18.0441 32.9751 18.5576 33.1953 18.7045V14.7423H29.0129V18.7045C29.2332 18.4843 29.3801 18.1174 29.8936 18.1174V18.1174Z" fill="#009FA6"/>
<path d="M24.7576 29.9305L26.225 30.0038H24.7576V29.9305Z" fill="#009FA6"/>
<path d="M37.305 29.9305V30.0038H35.8372L37.305 29.9305Z" fill="#009FA6"/>
<path d="M31.068 30.1511C31.6552 29.9308 31.5082 30.0778 39.433 30.0044L39.4333 15.4758C39.4333 15.0356 39.1398 14.7421 38.6996 14.7421H34.6637V20.6122C34.6637 21.2727 33.8567 21.6395 33.4162 21.1257L32.3889 20.0251L31.6552 21.0524C31.3616 21.4926 30.7012 21.4193 30.4076 20.9791L29.7475 20.0251L28.7202 21.1258C28.28 21.6392 27.4726 21.2724 27.4726 20.6123V14.7421H23.4368C23.0699 14.7421 22.7031 15.0357 22.7031 15.4758V30.0045C30.3342 30.0778 30.4812 29.8579 31.068 30.1514L31.068 30.1511Z" fill="#009FA6"/>
<circle cx="31.5" cy="31.5" r="31" stroke="#08B8BF"/>
</svg>
