<svg width="15" height="16" viewBox="0 0 15 16" fill="none" xmlns="http://www.w3.org/2000/svg">
<path fill-rule="evenodd" clip-rule="evenodd" d="M3.04827 5.18075L3.04827 4.33333C3.04827 1.9401 4.98837 0 7.38161 0C9.77484 0 11.7149 1.9401 11.7149 4.33334V5.18075C12.6099 5.21382 13.1597 5.32449 13.5622 5.6949C14.1363 6.22314 14.2088 7.09359 14.3539 8.83448L14.7011 13.0006C14.7856 14.0141 14.8278 14.5209 14.5307 14.8438C14.2336 15.1667 13.7251 15.1667 12.708 15.1667H2.05521C1.03815 15.1667 0.529626 15.1667 0.232524 14.8438C-0.0645782 14.5209 -0.0223473 14.0141 0.0621143 13.0006L0.409289 8.83448C0.554363 7.09359 0.626901 6.22314 1.20099 5.6949C1.60355 5.32449 2.15333 5.21382 3.04827 5.18075ZM9.71494 5.16667V4.33334C9.71494 3.04467 8.67027 2 7.38161 2C6.09294 2 5.04827 3.04467 5.04827 4.33333V5.16667H9.71494Z" fill="#666666"/>
</svg>
