<svg width="52" height="41" viewBox="0 0 52 41" fill="none" xmlns="http://www.w3.org/2000/svg">
<path d="M0.694323 27.7926C0.016536 26.5298 -0.199645 24.8966 0.20046 24.0746C0.427984 23.6114 0.857944 23.2622 1.35179 23.1367C1.74115 23.0385 2.17529 23.1021 2.47148 23.3155C3.20779 23.8781 3.9023 24.762 4.22114 26.6401C4.76814 29.8592 6.35543 31.9235 6.40909 32.0424C6.36191 32.0466 6.31175 32.0502 6.2592 32.0521C4.78897 32.1054 1.72073 29.7586 0.694323 27.7926ZM16.1546 38.7078C19.3625 40.1028 25.655 41.1649 29.6333 40.9788C32.5414 40.8509 37.0728 40.0743 38.1376 39.519C38.521 39.3189 38.73 39.1298 38.7574 38.9534C38.7945 38.7151 38.5562 38.3338 38.0486 37.8191C36.3275 36.0713 32.7966 34.5606 29.6512 34.229C28.4114 34.0992 28.1738 34.1102 27.3354 34.3126C26.5101 34.5109 26.0676 34.5648 25.7816 34.3351C25.5409 34.1405 25.5409 33.8398 25.5409 33.7404C25.5409 33.3942 25.7595 33.0856 26.2492 32.7364C26.9102 32.269 27.8716 30.7929 28.2275 29.698C28.6975 28.3152 28.7351 27.0367 28.35 25.5496C27.9893 24.125 27.5271 23.1847 26.6439 22.0838C24.9353 19.9577 22.2923 18.8883 19.7489 19.2938C18.5737 19.4678 18.0315 19.6648 16.9871 20.2996C16.2907 20.7239 15.905 20.8949 15.5927 20.7082C15.4087 20.6033 15.3138 20.4014 15.3138 20.1092C15.3138 19.2635 17.3143 18.2408 18.6926 17.9079C19.7251 17.649 22.0469 17.683 23.1254 17.9764C26.4015 18.8785 28.9836 21.6266 29.8638 25.1482C30.1069 26.1084 30.1475 26.5813 30.0943 27.8157C30.0131 29.6816 29.6859 30.7777 28.7949 32.1618L28.4945 32.6292L29.2332 32.6728C29.9743 32.725 31.0396 32.8571 31.6088 32.9675C33.6391 33.393 36.2679 34.5164 38.3084 35.8294C39.981 36.9073 41.7164 37.3511 44.2974 37.3644C46.7656 37.3644 48.3313 36.5533 48.3313 36.2113C48.3313 35.6354 46.3296 34.2889 43.324 32.443C38.5664 29.5229 35.0419 26.588 33.6535 24.391C32.3009 22.265 31.8327 20.5668 31.9264 18.1237C31.9939 16.2201 32.3277 14.9768 33.1196 13.6898L33.3501 13.3115L33.2981 13.2721C30.4825 10.9932 27.3736 9.77102 23.5088 9.42556C22.7486 9.35887 21.5536 9.29703 20.1365 9.43768C17.3321 9.71655 14.5989 10.7387 12.1219 12.4949C8.20627 15.2709 6.38659 18.8913 5.77632 20.8767C4.89907 23.7303 5.64792 28.16 7.60608 31.4234C9.7153 34.9098 12.1124 36.9521 16.1546 38.7078ZM51.9946 28.1053C51.9415 29.4045 51.7653 29.53 51.2446 29.6203C51.1831 29.6288 51.13 29.6385 51.0685 29.6561C50.3536 30.8388 49.0207 31.9137 47.2287 31.556C44.9249 31.3232 40.2729 28.814 37.3156 26.1617C34.6761 23.8229 33.3785 21.3312 33.3701 18.545C33.3701 16.9409 33.8908 15.1215 34.6415 14.1092C35.3826 13.1234 35.0386 12.7021 33.8556 11.7704C31.4275 9.87884 29.0359 8.81249 25.8757 8.19481C24.6754 7.95292 22.9889 7.80985 21.471 7.80985C20.7383 7.80985 20.0946 7.84561 19.6347 7.90806C18.355 8.09659 16.2188 8.61614 15.4766 8.93865C14.8848 9.18054 14.5492 9.20722 14.1169 9.03686C13.3137 8.71435 12.7309 7.80862 12.5016 6.54581C12.2371 5.10297 12.9572 3.24666 14.3815 2.03846C17.1894 -0.343491 20.6924 -0.0493954 21.7697 0.0936952C25.6536 0.658701 29.4666 2.809 33.1034 6.48342C34.401 7.80077 35.1248 8.66159 35.7781 9.65578L36.7837 11.215C36.7837 11.215 39.1808 11.0089 40.209 11.1071C42.1892 11.2969 44.0058 11.3296 46.5468 13.3562C47.7901 14.3468 49.4771 16.7699 50.245 18.7153C51.0589 20.7668 52.083 26.1163 51.9946 28.1053ZM48.3226 23.9296C48.3805 23.3361 48.0383 22.6147 47.5373 22.2934C47.0363 21.9369 46.2086 21.9369 45.8748 22.2934C45.4072 22.7602 45.3063 23.5398 45.6497 24.1078C45.8831 24.4891 46.4433 24.7528 47.2614 24.8632C47.345 24.8717 47.4119 24.8717 47.4788 24.8717C47.6878 24.8717 47.846 24.8201 47.9798 24.7189C48.1721 24.5655 48.2808 24.32 48.3226 23.9296Z" fill="#D7B24E"/>
</svg>
