<svg width="42" height="45" viewBox="0 0 42 45" fill="none" xmlns="http://www.w3.org/2000/svg">
<path d="M3.89607 27.1997C3.60802 25.9513 2.9838 24.895 2.40768 23.7424C0.102909 19.0847 -0.329132 13.4189 1.7353 8.71376C3.8002 3.96017 8.50556 0.311168 13.6911 0.0226434C17.004 -0.169528 20.2215 0.886771 23.2945 2.23149C27.2798 3.96017 31.5532 6.7451 32.2736 11.0184C32.6579 13.2751 31.9856 15.5798 31.6012 17.8845C31.2169 20.1411 31.3132 21.7258 32.0814 23.8865C32.6575 25.5671 33.4739 26.2871 33.2817 27.2958C32.8497 29.2166 29.9688 27.1517 29.4405 30.3688V30.705C29.5363 31.3292 29.0084 31.8576 28.4323 31.7131L27.5682 31.4732C26.4637 31.0412 25.9836 32.3373 27.1839 32.5777C28.3841 32.8176 28.2402 32.962 28.4805 33.3459C28.6245 33.5381 28.4805 33.778 28.3846 33.922C28.2888 34.1142 28.1925 34.4022 28.1925 34.7384C28.2406 35.4108 28.4324 36.179 28.2406 36.851C27.8085 38.2916 25.7918 38.3875 24.3512 37.8114C22.9587 37.2354 21.4703 36.3709 20.0779 36.8992C19.1656 37.2354 18.5895 38.0995 18.157 38.9641C17.2448 40.6446 16.6205 42.5173 16.3806 44.39L1.97583 44.3896C1.8318 40.164 3.22425 34.5463 3.70452 31.377C3.94442 30.0322 4.18431 28.5439 3.89627 27.1995L3.89607 27.1997Z" fill="#4C5DAA"/>
<path d="M30.4486 34.5469C30.4967 34.5469 30.5444 34.5469 30.5444 34.595L37.7949 38.8683C37.8907 38.9165 37.9389 39.0605 37.843 39.1564C37.7471 39.2523 37.6031 39.2523 37.4587 39.2045L30.2564 34.9308C30.1605 34.8826 30.1123 34.7386 30.2082 34.6427C30.2564 34.595 30.3523 34.5469 30.4485 34.5469L30.4486 34.5469Z" fill="#4C5DAA"/>
<path d="M35.1065 35.6025C35.1547 35.5543 35.2506 35.5066 35.3464 35.5066C35.3946 35.5066 35.4423 35.5066 35.4423 35.5547L39.5235 37.9076C39.6193 37.9558 39.6675 38.0998 39.5716 38.1957C39.4757 38.2915 39.3317 38.2915 39.1873 38.2438L35.1061 35.8909C35.0584 35.7946 35.0103 35.6983 35.1066 35.6025L35.1065 35.6025Z" fill="#4C5DAA"/>
<path d="M37.8911 34.4023L33.8099 32.0494C33.714 32.0013 33.6659 31.8573 33.7618 31.7614C33.8099 31.7133 33.9058 31.6655 34.0017 31.6655C34.0498 31.6655 34.0975 31.6655 34.0975 31.7137L38.1787 34.0666C38.2746 34.1147 38.3227 34.2587 38.2268 34.3546C38.1795 34.4982 38.0351 34.4982 37.8911 34.4023H37.8911Z" fill="#4C5DAA"/>
<path d="M34.1462 34.6425C33.954 34.9305 33.522 34.9305 33.0899 34.6906C32.7056 34.4507 31.2172 32.7698 31.2172 32.7698C31.2172 32.7698 33.3298 33.394 33.7141 33.6339C34.1462 33.9224 34.2902 34.3544 34.1462 34.6425L34.1462 34.6425Z" fill="#4C5DAA"/>
<path d="M41.5405 36.1308C41.9248 36.3707 42.1165 36.8032 41.9248 37.0912C41.7326 37.3793 41.3006 37.3793 40.8685 37.1394C40.4842 36.8995 38.9958 35.2185 38.9958 35.2185C38.9953 35.2181 41.1084 35.8905 41.5404 36.1308L41.5405 36.1308Z" fill="#4C5DAA"/>
<path d="M34.6746 39.4438C34.4824 39.7318 34.0504 39.7318 33.6183 39.4919C33.234 39.252 31.7456 37.571 31.7456 37.571C31.7456 37.571 33.8582 38.1953 34.2425 38.4352C34.6746 38.7236 34.8667 39.1557 34.6746 39.4437L34.6746 39.4438Z" fill="#4C5DAA"/>
</svg>
