<svg width="43" height="45" viewBox="0 0 43 45" fill="none" xmlns="http://www.w3.org/2000/svg">
<path d="M18.4375 22.7321C18.4375 24.279 17.1837 25.5329 15.6367 25.5329C14.0898 25.5329 12.8359 24.279 12.8359 22.7321C12.8359 21.1855 14.0898 19.9316 15.6367 19.9316C17.1837 19.9316 18.4375 21.1855 18.4375 22.7321Z" fill="#4C5DAA"/>
<path d="M30.1069 22.7321C30.1069 24.279 28.853 25.5329 27.3061 25.5329C25.7591 25.5329 24.5052 24.279 24.5052 22.7321C24.5052 21.1855 25.7591 19.9316 27.3061 19.9316C28.853 19.9316 30.1069 21.1855 30.1069 22.7321Z" fill="#4C5DAA"/>
<path d="M21.4715 28.8467C18.6707 28.8467 16.1038 30.1536 14.7499 32.2074C14.283 32.9544 14.4699 33.9344 15.2168 34.4013C15.9637 34.8682 16.9438 34.6813 17.4107 33.9344C18.2041 32.7208 19.7445 32.0205 21.4715 32.0205C23.1985 32.0205 24.7388 32.7674 25.5323 33.9344C25.9992 34.6813 26.9792 34.8678 27.7262 34.4013C28.4731 33.9344 28.6596 32.9544 28.1931 32.2074C26.8393 30.1539 24.2723 28.8467 21.4715 28.8467H21.4715Z" fill="#4C5DAA"/>
<path d="M42.9431 23.3855C42.9431 20.8651 42.3362 19.0912 41.1227 17.9709C40.8892 17.7843 40.5627 17.5508 40.1892 17.364C38.5085 1.72706 27.7264 0 21.4716 0C15.2636 0 4.4811 1.72698 2.80072 17.364C2.42726 17.5505 2.1007 17.784 1.86726 17.9709C0.606888 19.0909 0 20.8648 0 23.3852C0 25.5325 0.560027 27.0725 1.63387 28.0995C1.16697 33.7476 1.21385 37.9017 3.03427 40.2823C4.29464 41.9627 7.7486 41.2157 11.4829 40.6557C11.9029 40.9826 12.3229 41.3092 12.7432 41.6361C15.3106 43.4565 18.2979 44.39 21.4252 44.39C24.5526 44.39 27.5868 43.4565 30.1072 41.6361C30.5741 41.3092 30.9941 40.9827 31.4142 40.6557C35.1484 41.2158 38.6023 41.9627 39.8627 40.2823C41.6832 37.9484 41.7297 33.7476 41.2631 28.0995C42.3832 27.0729 42.9435 25.5325 42.9435 23.3852L42.9431 23.3855ZM37.715 26.2328C36.7346 26.3263 35.988 27.0728 35.8946 28.0532C35.4746 32.0675 32.9542 35.7552 28.333 38.9757C24.2721 41.823 18.6241 41.823 14.5632 38.9757C9.98853 35.7549 7.46812 32.0672 7.0481 28.0532C6.95466 27.0728 6.20808 26.3263 5.22769 26.2328C4.06076 26.0928 3.17381 26.0463 3.17381 23.3855C3.17381 21.3316 3.64071 20.5847 3.92072 20.3047C3.96728 20.2582 4.06072 20.1647 4.24762 20.1182C4.38762 20.7251 4.85452 21.2385 5.50799 21.3317C6.34801 21.4717 7.18837 20.9117 7.3284 20.0247C7.98187 16.2905 8.7288 13.4901 9.89574 11.4361L10.7827 15.2169C10.9227 15.8238 11.4827 16.2904 12.1362 16.2904H15.2169C15.2169 16.3838 15.1704 16.4304 15.1704 16.5238C15.1704 17.0373 15.5904 17.5042 16.1508 17.5042C16.6642 17.5042 17.1312 17.0842 17.1312 16.5238C17.1312 16.4304 17.0846 16.3838 17.0846 16.2904H26C25.9065 16.4304 25.86 16.6173 25.86 16.8038C25.86 17.3173 26.28 17.7842 26.8404 17.7842C27.3538 17.7842 27.8207 17.3642 27.8207 16.8038C27.8207 16.6173 27.7742 16.4304 27.6807 16.2904L30.8068 16.2907C31.4602 16.2907 32.0203 15.8238 32.1603 15.2172L33.0472 11.4364C34.2141 13.4903 34.9611 16.2907 35.6145 20.025C35.7546 20.772 36.408 21.332 37.1549 21.332H37.4349C38.0884 21.2386 38.5552 20.7251 38.6953 20.1185C38.8818 20.165 38.9753 20.2585 39.0222 20.305C39.3022 20.5851 39.7691 21.2854 39.7691 23.3858C39.7688 25.9997 38.8818 26.0929 37.7149 26.2328L37.715 26.2328Z" fill="#4C5DAA"/>
<path d="M10.9684 25.6255C10.9684 26.1664 10.5297 26.6052 9.9884 26.6052C9.44747 26.6052 9.00873 26.1664 9.00873 25.6255C9.00873 25.0843 9.44745 24.6455 9.9884 24.6455C10.5296 24.6455 10.9684 25.0842 10.9684 25.6255Z" fill="#4C5DAA"/>
<path d="M21.7975 25.8124C21.7975 26.3537 21.3588 26.7924 20.8175 26.7924C20.2762 26.7924 19.8375 26.3537 19.8375 25.8124C19.8375 25.2712 20.2762 24.8328 20.8175 24.8328C21.3588 24.8328 21.7975 25.2712 21.7975 25.8124Z" fill="#4C5DAA"/>
<path d="M12.2287 31.3203C12.2287 31.8613 11.79 32.3 11.2487 32.3C10.7074 32.3 10.269 31.8613 10.269 31.3203C10.269 30.7791 10.7074 30.3403 11.2487 30.3403C11.7899 30.3403 12.2287 30.7791 12.2287 31.3203Z" fill="#4C5DAA"/>
<path d="M11.9019 18.9041C11.9019 19.445 11.4632 19.8837 10.9223 19.8837C10.381 19.8837 9.94226 19.445 9.94226 18.9041C9.94226 18.3628 10.381 17.9241 10.9223 17.9241C11.4632 17.9241 11.9019 18.3628 11.9019 18.9041Z" fill="#4C5DAA"/>
<path d="M22.451 19.1843C22.451 19.7256 22.0122 20.1643 21.471 20.1643C20.9297 20.1643 20.491 19.7256 20.491 19.1843C20.491 18.6431 20.9297 18.2043 21.471 18.2043C22.0122 18.2043 22.451 18.6431 22.451 19.1843Z" fill="#4C5DAA"/>
<path d="M33.4202 19.8845C33.4202 20.4257 32.9815 20.8644 32.4405 20.8644C31.8993 20.8644 31.4605 20.4257 31.4605 19.8845C31.4605 19.3435 31.8992 18.9048 32.4405 18.9048C32.9814 18.9048 33.4202 19.3435 33.4202 19.8845Z" fill="#4C5DAA"/>
<path d="M33.4202 26.0457C33.4202 26.5869 32.9815 27.0253 32.4405 27.0253C31.8993 27.0253 31.4605 26.5869 31.4605 26.0457C31.4605 25.5044 31.8992 25.0657 32.4405 25.0657C32.9814 25.0657 33.4202 25.5044 33.4202 26.0457Z" fill="#4C5DAA"/>
<path d="M32.2999 31.5536C32.2999 32.0949 31.8612 32.5336 31.3199 32.5336C30.7786 32.5336 30.3399 32.0949 30.3399 31.5536C30.3399 31.0127 30.7786 30.574 31.3199 30.574C31.8612 30.574 32.2999 31.0127 32.2999 31.5536Z" fill="#4C5DAA"/>
<path d="M22.1242 35.2878C22.1242 35.829 21.6855 36.2678 21.1442 36.2678C20.6033 36.2678 20.1646 35.829 20.1646 35.2878C20.1646 34.7465 20.6033 34.3081 21.1442 34.3081C21.6855 34.3081 22.1242 34.7465 22.1242 35.2878Z" fill="#4C5DAA"/>
<path d="M18.3434 37.2017C18.3434 37.7429 17.9047 38.1813 17.3634 38.1813C16.8225 38.1813 16.3837 37.7429 16.3837 37.2017C16.3837 36.6604 16.8225 36.2217 17.3634 36.2217C17.9046 36.2217 18.3434 36.6604 18.3434 37.2017Z" fill="#4C5DAA"/>
<path d="M25.345 37.3881C25.345 37.9294 24.9063 38.3681 24.365 38.3681C23.8241 38.3681 23.3853 37.9294 23.3853 37.3881C23.3853 36.8472 23.824 36.4084 24.365 36.4084C24.9062 36.4084 25.345 36.8472 25.345 37.3881Z" fill="#4C5DAA"/>
</svg>
