<svg width="38" height="45" viewBox="0 0 38 45" fill="none" xmlns="http://www.w3.org/2000/svg">
<path d="M37.2504 22.9526C37.5088 22.3365 37.4822 21.6377 37.1776 21.043C37.1637 21.0188 37.1498 20.9978 37.1362 20.9736L33.9023 16.2252C33.889 16.206 33.8849 16.1818 33.8921 16.1592C35.6356 11.2029 31.1573 4.70038 27.3066 2.39894C22.863 -0.255991 16.392 -0.751454 10.8187 1.13382C6.09466 2.73532 2.62856 5.78883 1.05123 9.73985C-0.889745 14.6096 -0.106463 20.4295 3.09955 24.9317C7.37665 30.9384 8.30911 36.9903 5.95562 43.4335V43.4332C5.89187 43.6062 5.89961 43.7972 5.97698 43.9643C6.05434 44.1314 6.19515 44.2607 6.36783 44.3242C6.6903 44.4421 23.1291 44.3656 23.4761 44.3656H23.4866C23.6704 44.3629 23.8459 44.2873 23.9737 44.1552C24.1018 44.0234 24.1724 43.8461 24.1696 43.6619C24.135 41.2636 24.3844 39.3953 24.887 38.2549C26.1174 35.4855 28.8175 35.1321 30.3113 35.1597C32.0722 35.2048 33.4239 34.9205 34.3353 34.3312V34.3315C34.8868 33.971 35.277 33.4106 35.4237 32.7685C35.5116 32.183 35.4701 31.5857 35.3024 31.0181C35.1325 30.1309 35.3543 29.351 35.649 28.526C35.7588 28.188 35.6777 27.8173 35.4376 27.5555L35.0285 27.1708L35.5069 26.987C35.955 26.8016 36.2041 26.3198 36.0961 25.8466L35.545 24.1761C36.3942 23.9613 36.9661 23.5522 37.2501 22.9525L37.2504 22.9526ZM31.1328 27.7568C31.0601 27.75 23.7189 27.1676 18.8801 31.6595C15.9479 34.3804 14.4956 38.4182 14.5615 43.6626V43.6623C14.5643 43.8465 14.4941 44.0238 14.3659 44.1556C14.2378 44.2878 14.0627 44.3633 13.8788 44.3661H13.8683C13.4895 44.3661 13.1807 44.0622 13.1751 43.6834C13.1058 38.0233 14.7107 33.6315 17.9443 30.6337C23.2439 25.7222 30.9314 26.3495 31.2577 26.3773C31.6387 26.4116 31.9194 26.7483 31.885 27.1293C31.8504 27.5102 31.5137 27.7912 31.1327 27.7569L31.1328 27.7568Z" fill="#4C5DAA"/>
</svg>
