<svg width="39" height="39" viewBox="0 0 39 39" fill="none" xmlns="http://www.w3.org/2000/svg">
<path d="M38.2528 22.1774C38.1453 20.4696 36.6475 19.1307 34.8513 19.1307H34.5294C33.0316 19.1307 31.044 18.8742 29.1359 18.1976C26.6255 17.3065 24.2506 15.6967 23.3035 12.9719C20.9143 15.8458 16.5566 17.381 12.5529 18.1976C8.09696 19.1076 4.07931 19.1307 3.73437 19.1307H3.41248C1.61137 19.1307 0.118462 20.4696 0.00648072 22.1774C-0.0494997 23.0919 0.258388 23.9645 0.883581 24.6268C1.5088 25.2943 2.35341 25.6628 3.26792 25.6628H3.99111C4.44383 25.6628 4.82622 25.9846 4.9102 26.4279C6.17007 33.2823 12.1515 38.2609 19.1319 38.2609C26.1124 38.2609 32.0889 33.2823 33.3537 26.4279C33.4331 25.9846 33.8204 25.6628 34.2683 25.6628L34.996 25.6624C35.906 25.6624 36.7551 25.2937 37.3804 24.6264C38.001 23.9641 38.3134 23.0915 38.253 22.177L38.2528 22.1774ZM16.1182 24.6363C15.1662 25.4014 13.9487 25.7793 12.7308 25.7793C11.5129 25.7793 10.2954 25.4015 9.34785 24.6363C8.94656 24.3144 8.88113 23.7263 9.20334 23.3253C9.53011 22.9195 10.1134 22.8586 10.5192 23.1808C11.7182 24.1468 13.7482 24.1468 14.9472 23.1808C15.3485 22.8589 15.9363 22.9195 16.2581 23.3253C16.58 23.7266 16.5195 24.3144 16.1182 24.6363H16.1182ZM28.2495 24.6363C27.2975 25.3969 26.0799 25.7793 24.862 25.7793C23.6442 25.7793 22.4266 25.4015 21.4791 24.6363C21.0778 24.3144 21.0124 23.7263 21.3346 23.3253C21.6614 22.9195 22.2492 22.8586 22.6505 23.1808C23.8495 24.1468 25.8745 24.1468 27.0785 23.1808C27.4798 22.8589 28.0675 22.9243 28.3894 23.3253C28.7113 23.7266 28.6504 24.3144 28.2495 24.6363H28.2495Z" fill="#4C5DAA"/>
<path d="M19.1319 1.65275e-05C11.1531 1.65275e-05 4.66766 6.49041 4.66766 14.4642V17.2404C6.16549 17.1799 9.28696 16.9839 12.5485 16.2839C16.5611 15.4302 21.6186 13.6382 22.9159 9.95232C23.0698 9.52303 23.4991 9.26656 23.9564 9.34566C24.4042 9.42051 24.7307 9.80782 24.7307 10.2651C24.7307 15.962 31.1368 17.0214 33.5958 17.2173L33.5961 14.4642C33.5961 6.49031 27.1057 0 19.1319 0L19.1319 1.65275e-05ZM16.6355 12.7662C15.8984 13.354 15.0163 13.6482 14.1301 13.6482C13.2481 13.6482 12.3618 13.3543 11.6247 12.7662C9.95901 11.4363 9.62315 9.03339 10.8596 7.29769L13.3699 3.77029C13.5473 3.52293 13.8272 3.37843 14.1305 3.37843C14.4338 3.37843 14.7183 3.52294 14.8911 3.77029L17.4014 7.29769C18.6372 9.03339 18.3014 11.4363 16.6356 12.7662H16.6355Z" fill="#4C5DAA"/>
<path d="M15.4742 11.3056C14.681 11.9354 13.58 11.9354 12.7914 11.3056C11.8953 10.5965 11.7183 9.30857 12.3806 8.38006L14.1303 5.92114L15.8846 8.38006C16.5427 9.30865 16.3653 10.5962 15.4742 11.3056H15.4742Z" fill="#4C5DAA"/>
</svg>
