<svg width="44" height="45" viewBox="0 0 44 45" fill="none" xmlns="http://www.w3.org/2000/svg">
<path d="M21.7738 0C9.7675 0 0 8.89072 0 19.8192C0 26.4167 3.55081 32.4889 9.51504 36.1829C9.82033 35.8906 10.1253 35.5847 10.4296 35.2648C17.7184 27.6464 17.8854 23.0291 17.8854 22.9833C17.8863 21.9318 18.2971 20.9242 19.0268 20.1813C19.7564 19.4387 20.7459 19.022 21.7773 19.0229C22.8084 19.0239 23.7971 19.4423 24.5255 20.1865C25.2542 20.9304 25.663 21.9391 25.662 22.9902C25.662 23.0291 25.8293 27.6463 33.1165 35.2633C33.4215 35.5835 33.7268 35.8901 34.0327 36.183C39.9972 32.4895 43.5477 26.4166 43.5477 19.8192C43.5477 8.8908 33.7802 8.50558e-05 21.774 8.50558e-05L21.7738 0ZM6.99881 10.3058C6.61801 10.3048 6.29385 10.0231 6.23299 9.63991C6.1718 9.25669 6.39214 8.88507 6.75308 8.76163L16.0848 5.59063V5.5903C16.4926 5.45194 16.9337 5.67689 17.0693 6.09298C17.205 6.50905 16.9841 6.95835 16.5762 7.09663L7.2445 10.2676C7.16508 10.2938 7.08209 10.3064 6.99877 10.3058L6.99881 10.3058ZM17.5395 17.3078L10.5407 22.0645C10.3692 22.1809 10.1593 22.2234 9.95682 22.1823C9.7547 22.1411 9.57667 22.0197 9.46211 21.8448C9.22387 21.4805 9.32021 20.9881 9.67757 20.7453L15.7081 16.6482L9.67981 12.5512C9.50829 12.4344 9.38917 12.2529 9.34881 12.0469C9.30845 11.8405 9.35011 11.6265 9.46435 11.4516C9.70292 11.0873 10.1856 10.9888 10.5429 11.232L17.5417 15.9887C17.7582 16.1357 17.888 16.3832 17.888 16.6483C17.888 16.9131 17.7582 17.1606 17.5417 17.3079L17.5395 17.3078ZM33.8701 20.7453C34.2274 20.9881 34.3237 21.4805 34.0855 21.8448C33.8473 22.2091 33.3643 22.3073 33.0069 22.0645L26.0081 17.3078C25.7917 17.1605 25.6618 16.913 25.6618 16.6482C25.6618 16.3831 25.7917 16.1356 26.0081 15.9886L33.0069 11.2319C33.3643 10.9887 33.8473 11.0872 34.0855 11.4516C34.3237 11.8155 34.2274 12.3079 33.8701 12.5511L27.8395 16.6481L33.8701 20.7453ZM37.2861 9.76331C37.1504 10.1781 36.7104 10.4024 36.3032 10.2643L26.9715 7.09333V7.093C26.5637 6.95464 26.3427 6.50538 26.4784 6.08968C26.6141 5.67361 27.0551 5.44864 27.4629 5.587L36.7946 8.758C36.9909 8.82469 37.153 8.96803 37.2451 9.15649C37.3375 9.34529 37.3522 9.56361 37.2861 9.76335L37.2861 9.76331Z" fill="#4C5DAA"/>
<path d="M33.3651 37.7054C32.9095 37.2837 32.4538 36.8443 32.0011 36.3695C24.1961 28.2109 24.1066 23.1995 24.1066 22.9905C24.1066 22.1408 23.6621 21.3558 22.9402 20.9311C22.2183 20.506 21.3291 20.506 20.6072 20.9311C19.8854 21.3558 19.4408 22.1408 19.4408 22.9905C19.4408 23.1999 19.3513 28.2111 11.5446 36.3712C11.0688 36.8699 10.5904 37.3305 10.1123 37.7698C10.096 37.7834 10.082 37.8 10.0648 37.8126C9.34288 38.4792 8.58035 39.0983 7.78165 39.6663C10.3379 41.4219 13.6088 41.6856 16.4043 40.3614C16.0086 39.4002 15.7254 38.3949 15.5597 37.3663C15.5021 36.9323 15.8006 36.5331 16.226 36.4744C16.6517 36.4157 17.0435 36.7199 17.1008 37.1539C17.2909 38.2731 17.6313 39.3604 18.1121 40.3853C18.7353 41.8131 19.6769 43.0729 20.8626 44.0636C21.1191 44.275 21.439 44.3901 21.7687 44.3901C22.0987 44.3901 22.4186 44.275 22.6751 44.0636C23.8611 43.0729 24.8033 41.8134 25.4266 40.3853C25.9073 39.3604 26.2474 38.2731 26.4375 37.1539C26.4951 36.7199 26.8866 36.4157 27.3123 36.4744C27.738 36.5331 28.0362 36.9323 27.9786 37.3663C27.8132 38.3948 27.5297 39.4002 27.1343 40.3614C29.9265 41.6833 33.1925 41.4258 35.752 39.6819L35.7598 39.6756C34.9513 39.0963 34.1786 38.4662 33.447 37.789C33.418 37.7631 33.3907 37.7352 33.3653 37.7057L33.3651 37.7054ZM18.4344 34.6502V34.6498C18.1294 34.9504 17.6441 34.9461 17.3444 34.6402C17.0443 34.3346 17.0401 33.8399 17.3349 33.529C19.4765 31.3458 20.2254 27.6293 20.2332 27.5918C20.2674 27.3798 20.3845 27.1907 20.558 27.0686C20.7315 26.9462 20.9463 26.901 21.153 26.9432C21.3596 26.9853 21.5409 27.1114 21.6548 27.2922C21.7687 27.4731 21.8058 27.6934 21.7573 27.9027C21.7245 28.0739 20.9066 32.1305 18.4353 34.6499L18.4344 34.6502ZM26.2107 34.6502L26.211 34.6498C25.9074 34.9594 25.4149 34.9594 25.1113 34.6498C24.1785 33.6591 23.4263 32.507 22.8903 31.2472C22.712 30.8487 22.8845 30.3785 23.2754 30.1967C23.6662 30.0152 24.1275 30.1908 24.3058 30.5893C24.765 31.6766 25.4101 32.672 26.211 33.529C26.5147 33.8382 26.515 34.3402 26.2117 34.6497L26.2107 34.6502Z" fill="#4C5DAA"/>
</svg>
