<svg width="36" height="45" viewBox="0 0 36 45" fill="none" xmlns="http://www.w3.org/2000/svg">
<path d="M23.4575 5.76491H24.7174V9.31089C24.7174 9.59079 25.0907 9.6842 25.2307 9.45084L27.8904 4.27172C27.9838 4.08523 27.8438 3.85187 27.657 3.85187H26.3972V0.30589C26.3972 0.025988 26.0238 -0.067421 25.8839 0.165939L23.2242 5.34506C23.1311 5.53155 23.2245 5.76491 23.4575 5.76491Z" fill="#4C5DAA"/>
<path d="M35.7288 9.91755L34.5623 9.45082L35.8222 6.13789C35.9156 5.85799 35.5888 5.62463 35.3555 5.81112L31.0164 9.73104C30.8764 9.87099 30.923 10.1509 31.1098 10.1978L32.2762 10.6645L31.0164 13.9774C30.923 14.2573 31.2497 14.4907 31.4831 14.3042L35.8691 10.4315C35.9622 10.2444 35.9156 9.96446 35.7288 9.91759L35.7288 9.91755Z" fill="#4C5DAA"/>
<path d="M11.1863 9.31098V5.76501H12.4461C12.6795 5.76501 12.7729 5.53165 12.6795 5.34515L10.0198 0.165703C9.87985 -0.114199 9.50653 -0.0207899 9.50653 0.305654V3.85163H8.24667C8.01331 3.85163 7.9199 4.08499 8.01331 4.27149L10.673 9.4506C10.813 9.68429 11.1863 9.59088 11.1863 9.31098V9.31098Z" fill="#4C5DAA"/>
<path d="M4.93403 13.9302L3.67416 10.6172L4.84063 10.1505C5.02712 10.0571 5.07399 9.82375 4.93404 9.6838L0.548034 5.85829C0.314674 5.67179 -0.0117695 5.90483 0.0813146 6.18506L1.34118 9.49799L0.174716 9.96471C-0.0117777 10.0581 -0.0586454 10.2915 0.0813057 10.4314L4.46731 14.3041C4.70067 14.4434 5.02711 14.21 4.93403 13.9301V13.9302Z" fill="#4C5DAA"/>
<path d="M31.5762 20.1825C31.5762 18.9694 30.9695 17.8961 30.0364 17.2897C29.5232 18.6896 28.4501 20.2293 26.1637 21.1159C26.0703 21.1624 25.9773 21.1624 25.837 21.1624C25.5102 21.1624 25.1838 20.976 25.0438 20.6026C24.8573 20.1828 25.0904 19.6696 25.5105 19.4828C27.2837 18.783 28.2633 17.5697 28.6367 15.8434C28.4967 13.417 26.5836 11.5508 24.2976 11.5508C23.9708 11.5973 23.3645 11.4108 23.2245 11.0841C22.3848 9.40434 20.3318 8.70454 18.792 9.54432V22.7487L31.0166 22.7484C31.0166 22.7953 31.5764 21.1155 31.5764 20.1824L31.5762 20.1825ZM22.4311 19.4359C22.2911 19.5293 22.1043 19.6224 21.8712 19.6224C21.6379 19.6224 21.4045 19.529 21.218 19.2956C20.9381 18.9688 20.9847 18.409 21.3115 18.1291C22.1511 17.4759 22.5245 16.8227 22.4779 16.2629C22.4314 15.3763 21.3115 14.6297 21.3115 14.6297C20.9381 14.3964 20.7516 13.8831 20.9847 13.4633C21.218 13.0434 21.7313 12.9035 22.1511 13.1365C22.2446 13.183 24.0642 14.2564 24.2042 16.0761C24.2973 17.2894 23.7375 18.3624 22.4311 19.4358L22.4311 19.4359Z" fill="#4C5DAA"/>
<path d="M4.88737 22.7952H17.0653V9.59083C15.5256 8.79767 13.4725 9.49742 12.6328 11.1306C12.4928 11.4573 12.1661 11.6438 11.7931 11.5973L11.5132 11.5507C9.22685 11.5507 7.36058 13.4638 7.22061 15.8433C7.54738 17.5696 8.57354 18.7829 10.3002 19.4827C10.7669 19.6692 10.9534 20.1825 10.7669 20.6026C10.6735 20.9294 10.3002 21.1624 9.97373 21.1624C9.88032 21.1624 9.78724 21.1159 9.64696 21.1159C7.3606 20.2293 6.28753 18.6895 5.82078 17.2897C4.84078 17.8964 4.23447 18.9694 4.23447 20.1825C4.32755 21.1155 4.88735 22.7953 4.88735 22.7953L4.88737 22.7952ZM13.7059 13.1369C14.0792 12.9035 14.639 13.0435 14.8723 13.4168C15.1057 13.8366 14.9657 14.3499 14.5924 14.5833C14.2657 14.7698 13.426 15.423 13.3794 16.2165C13.3328 16.8231 13.7527 17.4295 14.5459 18.0827C14.9192 18.4094 14.9657 18.9224 14.6393 19.2491C14.4528 19.4825 14.266 19.5759 13.9861 19.5759C13.7996 19.5759 13.6128 19.5294 13.4263 19.3894C12.1664 18.3629 11.5601 17.2429 11.6531 16.03C11.7928 14.2569 13.6128 13.1838 13.7059 13.1369H13.7059Z" fill="#4C5DAA"/>
<path d="M31.9961 24.4751H3.95419C3.30098 24.4751 2.69432 24.9418 2.55435 25.595C2.22758 27.2747 2.13449 29.0944 2.41439 30.9606C3.67426 38.8925 11.0463 44.9115 19.0716 44.3516C27.2368 43.7918 33.6757 36.9795 33.6757 28.6743C33.6757 27.6478 33.5823 26.6212 33.349 25.6416C33.2555 24.9416 32.6489 24.4752 31.9957 24.4752L31.9961 24.4751ZM10.9063 30.354C10.9063 29.2341 11.8394 28.3009 12.9594 28.3009C14.0793 28.3009 15.0125 29.234 15.0125 30.354C15.0125 31.474 14.0794 32.4071 12.9594 32.4071C11.8395 32.4536 10.9063 31.5205 10.9063 30.354ZM21.4979 39.1258C20.9381 39.3123 20.3314 39.0324 20.1449 38.4726C19.8182 37.5396 18.9319 36.9329 17.952 36.9329C16.9721 36.9329 16.0858 37.5396 15.7124 38.4726C15.5725 38.8925 15.1526 39.1724 14.7324 39.1724C14.5925 39.1724 14.4991 39.1724 14.3591 39.1258C13.7993 38.9394 13.5194 38.2862 13.7525 37.7729C14.4057 36.0466 16.0854 34.8333 17.9516 34.8333C19.8178 34.8333 21.4976 35.9998 22.1507 37.7729C22.3378 38.2858 22.0579 38.8926 21.4978 39.1258L21.4979 39.1258ZM22.8977 32.4535C21.7778 32.4535 20.8446 31.5204 20.8446 30.4004C20.8446 29.2804 21.7777 28.3474 22.8977 28.3474C24.0177 28.3474 24.9508 29.2804 24.9508 30.4004C24.9508 31.5204 24.0642 32.4535 22.8977 32.4535Z" fill="#4C5DAA"/>
</svg>
