<svg width="74" height="67" viewBox="0 0 74 67" fill="none" xmlns="http://www.w3.org/2000/svg">
<path d="M37.0011 63.76C31.8142 60.1423 4.04546 39.9725 2.99531 22.2063C2.69556 17.1302 3.98949 12.8713 6.29308 9.66219C8.21177 6.98958 10.8317 5.03349 13.8067 3.93751C16.7908 2.8395 20.1444 2.60015 23.5162 3.36223C27.8221 4.33447 32.1693 6.95026 35.8501 11.4995C36.3595 12.1273 37.2892 12.2276 37.9232 11.7229C38.0133 11.6497 38.0937 11.5701 38.1629 11.4809C41.8414 6.94351 46.1817 4.33448 50.4828 3.36227C53.8567 2.60019 57.2076 2.83953 60.1922 3.93755C63.1695 5.03292 65.7873 6.98908 67.7059 9.66223C70.01 12.8714 71.3062 17.1328 71.0036 22.2063C69.9521 39.9699 42.1855 60.1408 36.9978 63.7601L37.0011 63.76ZM27.9978 47.8129C28.5951 48.3633 29.5266 48.3288 30.0827 47.7376C30.6388 47.1464 30.6039 46.222 30.0066 45.6742C26.2337 42.1959 22.3358 38.1101 19.3286 33.8125C16.3907 29.6125 14.3057 25.2216 14.059 21.0375C14.022 20.4166 14.0129 19.8233 14.029 19.2571C14.0451 18.7094 14.0934 18.1389 14.1652 17.552C14.2644 16.7506 13.688 16.0204 12.8783 15.9222C12.0664 15.824 11.3308 16.3945 11.2315 17.198C11.1554 17.8072 11.1044 18.4669 11.084 19.1769C11.0631 19.8477 11.0723 20.5212 11.1119 21.1967C11.3956 25.981 13.6831 30.8677 16.9027 35.4687C20.0531 39.9721 24.0957 44.2151 27.9958 47.8101L27.9978 47.8129ZM0.0485611 22.368C1.2776 43.1408 35.2226 66.109 36.1464 66.7299C36.6355 67.0743 37.309 67.0998 37.8323 66.7458C37.9315 66.6774 72.7098 43.3958 73.9521 22.3689C74.2937 16.5922 72.7853 11.6987 70.1101 7.97064C67.8456 4.8141 64.7457 2.50396 61.2221 1.20528C57.7049 -0.0890816 53.7754 -0.376246 49.8363 0.515911C45.3599 1.52689 40.8764 4.05136 37 8.32616C33.1231 4.04878 28.6397 1.52684 24.1637 0.515911C20.2266 -0.374072 16.2951 -0.0890816 12.778 1.20528C9.25382 2.5039 6.15442 4.81396 3.88993 7.97064C1.21471 11.6978 -0.2938 16.594 0.0478745 22.3689L0.0485611 22.368Z" fill="#4C5DAA"/>
</svg>
