<svg width="15" height="15" viewBox="0 0 15 15" fill="none" xmlns="http://www.w3.org/2000/svg">
<path d="M7.21836 3.41172C5.23086 3.41172 3.62773 5.01484 3.62773 7.00234C3.62773 8.98984 5.23086 10.593 7.21836 10.593C9.20586 10.593 10.809 8.98984 10.809 7.00234C10.809 5.01484 9.20586 3.41172 7.21836 3.41172ZM7.21836 9.33672C5.93399 9.33672 4.88399 8.28984 4.88399 7.00234C4.88399 5.71484 5.93086 4.66797 7.21836 4.66797C8.50586 4.66797 9.55274 5.71484 9.55274 7.00234C9.55274 8.28984 8.50274 9.33672 7.21836 9.33672ZM11.7934 3.26484C11.7934 3.73047 11.4184 4.10234 10.9559 4.10234C10.4902 4.10234 10.1184 3.72734 10.1184 3.26484C10.1184 2.80234 10.4934 2.42734 10.9559 2.42734C11.4184 2.42734 11.7934 2.80234 11.7934 3.26484ZM14.1715 4.11484C14.1184 2.99297 13.8621 1.99922 13.0402 1.18047C12.2215 0.361719 11.2277 0.105469 10.1059 0.0492187C8.94961 -0.0164062 5.48399 -0.0164062 4.32774 0.0492187C3.20899 0.102344 2.21523 0.358594 1.39336 1.17734C0.571485 1.99609 0.318359 2.98984 0.262109 4.11172C0.196484 5.26797 0.196484 8.73359 0.262109 9.88984C0.315234 11.0117 0.571485 12.0055 1.39336 12.8242C2.21523 13.643 3.20586 13.8992 4.32774 13.9555C5.48399 14.0211 8.94961 14.0211 10.1059 13.9555C11.2277 13.9023 12.2215 13.6461 13.0402 12.8242C13.859 12.0055 14.1152 11.0117 14.1715 9.88984C14.2371 8.73359 14.2371 5.27109 14.1715 4.11484ZM12.6777 11.1305C12.434 11.743 11.9621 12.2148 11.3465 12.4617C10.4246 12.8273 8.23711 12.743 7.21836 12.743C6.19961 12.743 4.00899 12.8242 3.09023 12.4617C2.47773 12.218 2.00586 11.7461 1.75898 11.1305C1.39336 10.2086 1.47773 8.02109 1.47773 7.00234C1.47773 5.98359 1.39648 3.79297 1.75898 2.87422C2.00273 2.26172 2.47461 1.78984 3.09023 1.54297C4.01211 1.17734 6.19961 1.26172 7.21836 1.26172C8.23711 1.26172 10.4277 1.18047 11.3465 1.54297C11.959 1.78672 12.4309 2.25859 12.6777 2.87422C13.0434 3.79609 12.959 5.98359 12.959 7.00234C12.959 8.02109 13.0434 10.2117 12.6777 11.1305Z" fill="white"/>
</svg>
