<svg width="84" height="68" viewBox="0 0 84 68" fill="none" xmlns="http://www.w3.org/2000/svg">
<path d="M64.6372 40.797C65.2489 40.797 65.8296 40.4309 66.0723 39.8254C66.3889 39.033 66.0027 38.1338 65.2103 37.8172L46.3134 30.2591C45.5272 29.944 44.6217 30.3253 44.3052 31.1212C43.9887 31.9135 44.3749 32.8128 45.1672 33.1293L64.0642 40.6895C64.251 40.7633 64.4455 40.7971 64.6372 40.7971V40.797Z" fill="#4C5DAA"/>
<path d="M19.9582 40.7969C20.1499 40.7969 20.3444 40.7632 20.5313 40.6873L39.4282 33.1271C40.2206 32.8106 40.6068 31.9113 40.2903 31.119C39.9737 30.3232 39.0683 29.9418 38.2821 30.257L19.3852 37.8171C18.5928 38.1337 18.2066 39.0329 18.5231 39.8253C18.7659 40.4308 19.3466 40.797 19.9582 40.797V40.7969Z" fill="#4C5DAA"/>
<path d="M37.6635 17.4583C38.5179 17.4583 39.2083 16.768 39.2083 15.9136V1.54473C39.2083 0.69031 38.5179 0 37.6635 0C36.8091 0 36.1188 0.69031 36.1188 1.54473V15.9136C36.1188 16.7673 36.8091 17.4583 37.6635 17.4583Z" fill="#4C5DAA"/>
<path d="M46.9319 17.4583C47.7863 17.4583 48.4767 16.768 48.4767 15.9136V1.54473C48.4767 0.69031 47.7863 0 46.9319 0C46.0775 0 45.3872 0.69031 45.3872 1.54473V15.9136C45.3872 16.7673 46.0775 17.4583 46.9319 17.4583Z" fill="#4C5DAA"/>
<path d="M37.6635 50.7698C38.5179 50.7698 39.2083 50.0795 39.2083 49.2251V38.8229C39.2083 37.9685 38.5179 37.2782 37.6635 37.2782C36.8091 37.2782 36.1188 37.9685 36.1188 38.8229V49.2251C36.1188 50.0795 36.8091 50.7698 37.6635 50.7698Z" fill="#4C5DAA"/>
<path d="M46.9319 50.7698C47.7863 50.7698 48.4767 50.0795 48.4767 49.2251V38.8229C48.4767 37.9685 47.7863 37.2782 46.9319 37.2782C46.0775 37.2782 45.3872 37.9685 45.3872 38.8229V49.2251C45.3872 50.0795 46.0775 50.7698 46.9319 50.7698Z" fill="#4C5DAA"/>
<path d="M38.8552 33.2375C39.0469 33.2375 39.2414 33.2037 39.4296 33.1278C41.2786 32.3865 43.3164 32.3865 45.1651 33.1278C45.9561 33.4444 46.8567 33.0596 47.1747 32.2672C47.4912 31.4748 47.1064 30.5756 46.314 30.2576C43.7217 29.2198 40.8716 29.2198 38.28 30.2576C37.4876 30.5756 37.1028 31.4748 37.4194 32.2672C37.6642 32.8699 38.2435 33.2375 38.8551 33.2375H38.8552Z" fill="#4C5DAA"/>
<path d="M52.7578 26.0612C53.3695 26.0612 53.9501 25.695 54.1929 25.0895C54.5094 24.2971 54.1232 23.3979 53.3309 23.0813C50.3821 21.9028 48.4774 19.0899 48.4774 15.9129C48.4774 15.0585 47.7871 14.3682 46.9327 14.3682C46.0782 14.3682 45.3879 15.0585 45.3879 15.9129C45.3879 20.3601 48.0574 24.3007 52.1848 25.9522C52.3716 26.0274 52.5661 26.0612 52.7578 26.0612L52.7578 26.0612Z" fill="#4C5DAA"/>
<path d="M62.344 29.8974C62.9557 29.8974 63.5363 29.5312 63.7791 28.9257C64.0956 28.1333 63.7094 27.2341 62.917 26.9175L53.3321 23.0832C52.5473 22.7681 51.6405 23.1494 51.324 23.9453C51.0074 24.7376 51.3936 25.6369 52.186 25.9534L61.7709 29.7877C61.9578 29.8622 62.153 29.8974 62.344 29.8974Z" fill="#4C5DAA"/>
<path d="M31.8377 26.0612C32.0294 26.0612 32.2239 26.0274 32.4108 25.9515C36.5402 24.2999 39.2076 20.3594 39.2076 15.9122C39.2076 15.0577 38.5173 14.3674 37.6628 14.3674C36.8084 14.3674 36.1181 15.0577 36.1181 15.9122C36.1181 19.0899 34.2134 21.9029 31.2632 23.0827C30.4709 23.3993 30.0847 24.2985 30.4012 25.0909C30.6433 25.6957 31.2246 26.0612 31.8377 26.0612Z" fill="#4C5DAA"/>
<path d="M22.2515 29.8974C22.4432 29.8974 22.6377 29.8636 22.8246 29.7878L32.4109 25.9521C33.2033 25.6355 33.5895 24.7363 33.273 23.9439C32.9564 23.1481 32.0496 22.7667 31.2648 23.0819L21.6799 26.9162C20.8875 27.2327 20.5013 28.132 20.8179 28.9243C21.0585 29.5298 21.6392 29.8974 22.2516 29.8974L22.2515 29.8974Z" fill="#4C5DAA"/>
<path d="M30.443 62.0119C30.6575 62.0119 30.8754 61.9671 31.0844 61.8712C36.0199 59.6163 39.2081 54.653 39.2081 49.2258C39.2081 48.3713 38.5178 47.681 37.6634 47.681C36.8089 47.681 36.1186 48.3713 36.1186 49.2258C36.1186 53.4442 33.6395 57.3046 29.799 59.061C29.0239 59.4148 28.6818 60.3306 29.0377 61.1078C29.297 61.6768 29.8562 62.0119 30.4431 62.0119L30.443 62.0119Z" fill="#4C5DAA"/>
<path d="M8.90678 67.4617C8.94057 67.4617 8.97643 67.4603 9.0116 67.459C16.6731 66.9431 24.1004 65.0633 31.0845 61.8718C31.8596 61.518 32.2017 60.6022 31.8458 59.825C31.4921 59.0499 30.579 58.705 29.799 59.0636C23.1567 62.0993 16.0922 63.886 8.80303 64.3758C7.95205 64.433 7.30793 65.1695 7.36518 66.0212C7.42311 66.8377 8.101 67.4618 8.90716 67.4618L8.90678 67.4617Z" fill="#4C5DAA"/>
<path d="M54.1525 62.012C54.7393 62.012 55.2986 61.6768 55.5579 61.11C55.9117 60.3328 55.5717 59.417 54.7966 59.0632C50.9561 57.3067 48.4769 53.4463 48.4769 49.2258C48.4769 48.3713 47.7866 47.681 46.9322 47.681C46.0778 47.681 45.3875 48.3713 45.3875 49.2258C45.3875 54.6523 48.5756 59.6155 53.5112 61.8712C53.7201 61.9657 53.9374 62.0119 54.1525 62.0119L54.1525 62.012Z" fill="#4C5DAA"/>
<path d="M75.6887 67.4618C76.4935 67.4618 77.1734 66.8377 77.2286 66.0205C77.2858 65.1682 76.6418 64.4323 75.7908 64.3751C68.5009 63.8855 61.4371 62.0967 54.7948 59.063C54.0176 58.7065 53.1018 59.0492 52.748 59.8243C52.3942 60.6015 52.7342 61.5173 53.5093 61.8711C60.4931 65.0626 67.9201 66.9426 75.5822 67.4583C75.6194 67.4597 75.6553 67.4618 75.6891 67.4618L75.6887 67.4618Z" fill="#4C5DAA"/>
<path d="M64.3866 15.963C64.8052 15.963 65.221 15.7948 65.5251 15.4624C66.1016 14.8334 66.0596 13.8576 65.4293 13.2798C62.508 10.5999 58.5551 9.18616 54.6071 9.4365C53.7548 9.48753 53.1058 10.2199 53.1582 11.0709C53.2079 11.9232 53.9458 12.5535 54.7926 12.5197C57.9331 12.3294 61.0349 13.4404 63.3425 15.5582C63.637 15.8285 64.0128 15.963 64.3866 15.963L64.3866 15.963Z" fill="#4C5DAA"/>
<path d="M76.1001 67.4758C80.0592 67.4758 83.459 64.4049 83.7976 60.4087C83.87 59.5578 83.2397 58.8116 82.3901 58.7392C81.5205 58.6592 80.7916 59.2971 80.7205 60.1467C80.5075 62.6479 78.3213 64.5555 75.7926 64.3761C74.9044 64.3464 74.2044 64.9629 74.1472 65.8139C74.0899 66.6663 74.734 67.4021 75.585 67.4593C75.7567 67.4697 75.9284 67.4759 76.1001 67.4759L76.1001 67.4758Z" fill="#4C5DAA"/>
<path d="M82.2595 61.8213C83.0533 61.8213 83.7284 61.2123 83.7967 60.4076C85.2966 42.8273 78.4302 25.2088 65.4294 13.2817C64.8053 12.7025 63.826 12.7459 63.2468 13.3762C62.6703 14.0031 62.7124 14.9809 63.3427 15.5574C75.6419 26.845 82.139 43.5144 80.721 60.1463C80.6486 60.9959 81.2768 61.7434 82.1285 61.8158C82.1712 61.82 82.2161 61.8214 82.2595 61.8214L82.2595 61.8213Z" fill="#4C5DAA"/>
<path d="M20.209 15.963C20.5827 15.963 20.9565 15.8285 21.2531 15.5568C23.5611 13.439 26.6831 12.3328 29.8029 12.5184C30.6539 12.5508 31.3863 11.9205 31.4373 11.0695C31.4883 10.2185 30.8394 9.48755 29.9884 9.43514C26.0134 9.19239 22.0854 10.5999 19.1663 13.2784C18.5374 13.8563 18.4946 14.8321 19.0704 15.461C19.3753 15.7941 19.7918 15.9631 20.209 15.9631L20.209 15.963Z" fill="#4C5DAA"/>
<path d="M8.49543 67.4759C8.66508 67.4759 8.83817 67.4697 9.01127 67.4586C9.86225 67.4014 10.5063 66.6649 10.4491 65.8132C10.3905 64.9622 9.67192 64.3471 8.80369 64.3754C6.32929 64.5512 4.0874 62.6465 3.87573 60.146C3.8047 59.295 3.07578 58.6413 2.20618 58.7385C1.35657 58.8109 0.726266 59.557 0.798665 60.408C1.13658 64.4051 4.53781 67.4758 8.4955 67.4758L8.49543 67.4759Z" fill="#4C5DAA"/>
<path d="M2.33596 61.8213C2.37941 61.8213 2.42423 61.8199 2.46906 61.8151C3.32004 61.7427 3.94897 60.9952 3.87657 60.1456C2.45873 43.5121 8.95564 26.8429 21.2549 15.5566C21.8838 14.9801 21.9266 14.0029 21.3508 13.3755C20.7742 12.7465 19.795 12.7017 19.1682 13.281C6.16753 25.2092 -0.699736 42.8269 0.799097 60.4086C0.866678 61.2141 1.54181 61.8223 2.33555 61.8223L2.33596 61.8213Z" fill="#4C5DAA"/>
</svg>
