<svg width="40" height="44" viewBox="0 0 40 44" fill="none" xmlns="http://www.w3.org/2000/svg">
<path d="M1.03575 0H38.3215C38.8911 0 39.3572 0.466071 39.3572 1.03571V3.10714C39.3572 3.67679 38.8911 4.14286 38.3215 4.14286H37.2857C36.7161 4.14286 36.25 4.60893 36.25 5.17857V38.3214C36.25 41.1798 33.9298 43.5 31.0715 43.5H8.28575C5.42741 43.5 3.10718 41.1798 3.10718 38.3214V5.17857C3.10718 4.60893 2.64111 4.14286 2.07146 4.14286H1.03575C0.466106 4.14286 3.43323e-05 3.67679 3.43323e-05 3.10714V1.03571C3.43323e-05 0.466071 0.466106 0 1.03575 0ZM14.893 18.56C15.421 18.2391 15.9597 17.9284 16.5293 17.6279C16.6741 17.5553 16.8192 17.4831 16.9746 17.3999C16.3841 17.2237 15.8145 17.0582 15.2758 16.944C15.1311 17.4517 14.9965 17.9903 14.8929 18.56L14.893 18.56ZM19.6781 11.3927C18.3734 11.3927 16.9853 12.729 15.9806 14.9969C17.1924 15.2868 18.4353 15.6909 19.6781 16.1778C20.921 15.6909 22.1638 15.2873 23.3757 14.9969C22.371 12.729 20.9829 11.3927 19.6781 11.3927ZM24.08 16.9439C23.5413 17.0577 22.9717 17.2237 22.3812 17.3998C22.5365 17.4826 22.6817 17.5552 22.8264 17.6278C23.3961 17.9283 23.9347 18.239 24.4627 18.5599C24.3596 17.9903 24.2251 17.4516 24.0799 16.944L24.08 16.9439ZM29.88 28.1093C30.0561 27.8194 30.0871 27.4259 29.9526 26.939C29.7556 26.1932 29.186 25.261 28.2644 24.2355C27.8085 24.6396 27.3115 25.0433 26.7936 25.4367C26.659 26.6796 26.4413 27.8605 26.1412 28.948C28.0984 29.1135 29.4555 28.7824 29.8799 28.1092L29.88 28.1093ZM26.7937 20.1343C27.3115 20.5278 27.8086 20.9319 28.2645 21.3355C29.1865 20.3099 29.7562 19.3778 29.9527 18.6324C30.0872 18.1456 30.0562 17.7521 29.8801 17.4622C29.5277 16.9027 28.5438 16.5712 27.0938 16.5712C26.8039 16.5712 26.4826 16.592 26.1409 16.623C26.4414 17.7105 26.6592 18.8914 26.7937 20.1342L26.7937 20.1343ZM24.4633 27.0112C23.9352 27.3325 23.3966 27.6432 22.8269 27.9433C22.6822 28.0159 22.5264 28.0885 22.3817 28.1713C22.9721 28.3475 23.5418 28.5028 24.0805 28.6272C24.2252 28.1195 24.3598 27.5707 24.4633 27.0112L24.4633 27.0112ZM19.6781 34.1785C20.9829 34.1785 22.371 32.8422 23.3757 30.5743C22.1638 30.2945 20.921 29.8803 19.6781 29.3934C18.4353 29.8803 17.1924 30.2839 15.9806 30.5738C16.9853 32.8422 18.3734 34.1785 19.6781 34.1785V34.1785ZM15.2763 28.6273C15.815 28.5029 16.3846 28.3475 16.9751 28.1714C16.8299 28.0886 16.6745 28.016 16.5298 27.9434C15.9602 27.6429 15.4215 27.3321 14.8935 27.0113C14.9966 27.5707 15.1312 28.1196 15.2764 28.6272L15.2763 28.6273ZM14.5513 24.3185C15.4316 24.9297 16.4054 25.5303 17.5031 26.1102C18.2489 26.5041 18.974 26.856 19.6781 27.1667C20.3823 26.856 21.1073 26.5037 21.8531 26.1102C22.9508 25.5304 23.9246 24.9297 24.805 24.3185C24.836 23.8214 24.8568 23.3137 24.8568 22.7857C24.8568 22.2577 24.836 21.75 24.805 21.253C23.9246 20.6417 22.9509 20.0411 21.8531 19.4612C21.1073 19.0571 20.3823 18.7256 19.6781 18.4149C18.9739 18.7256 18.249 19.0571 17.5031 19.4608C16.4055 20.0406 15.4317 20.6417 14.5513 21.2525C14.5203 21.75 14.4995 22.2577 14.4995 22.7857C14.4995 23.3137 14.5203 23.8214 14.5513 24.3185V24.3185ZM9.47629 28.1094C9.90074 28.7826 11.2578 29.1141 13.215 28.9481C12.9145 27.8606 12.6972 26.6797 12.5626 25.4369C12.0448 25.0434 11.5477 24.6393 11.0918 24.2357C10.1698 25.2612 9.60014 26.1934 9.40364 26.9392C9.2691 27.4256 9.30007 27.8191 9.47624 28.1095L9.47629 28.1094ZM9.4037 18.6327C9.60067 19.3785 10.1703 20.3107 11.0919 21.3357C11.5478 20.9316 12.0448 20.528 12.5627 20.1345C12.6972 18.8917 12.915 17.7107 13.2151 16.6233C12.8734 16.5923 12.5525 16.5715 12.2626 16.5715C10.8126 16.5715 9.82873 16.903 9.47635 17.462C9.30018 17.7524 9.26921 18.1459 9.40376 18.6327L9.4037 18.6327Z" fill="#D7B24E"/>
</svg>
