<svg width="18" height="15" viewBox="0 0 18 15" fill="none" xmlns="http://www.w3.org/2000/svg">
<path fill-rule="evenodd" clip-rule="evenodd" d="M6.38938 8.2503C8.66763 8.2503 10.5145 6.40341 10.5145 4.12515C10.5145 1.84689 8.66763 0 6.38938 0C4.11112 0 2.26423 1.84689 2.26423 4.12515C2.26423 6.40341 4.11112 8.2503 6.38938 8.2503ZM14.8146 5.77521C14.8146 5.22292 14.3669 4.77521 13.8146 4.77521C13.2624 4.77521 12.8146 5.22292 12.8146 5.77521V7.2503H11.3396C10.7873 7.2503 10.3396 7.69801 10.3396 8.2503C10.3396 8.80258 10.7873 9.2503 11.3396 9.2503H12.8146V10.7254C12.8146 11.2777 13.2624 11.7254 13.8146 11.7254C14.3669 11.7254 14.8146 11.2777 14.8146 10.7254V9.2503H16.2897C16.842 9.2503 17.2897 8.80258 17.2897 8.2503C17.2897 7.69801 16.842 7.2503 16.2897 7.2503H14.8146V5.77521ZM12.7223 13.5068C12.8911 13.8589 12.6627 14.2549 12.2819 14.3411C8.40265 15.2196 4.3761 15.2196 0.496899 14.3411C0.116044 14.2549 -0.112394 13.8589 0.0564171 13.5068C0.511671 12.5572 1.25989 11.7227 2.22967 11.0938C3.42303 10.3199 4.88519 9.90036 6.38938 9.90036C7.89357 9.90036 9.35573 10.3199 10.5491 11.0938C11.5189 11.7227 12.2671 12.5572 12.7223 13.5068Z" fill="#666666"/>
</svg>
