<svg width="44" height="38" viewBox="0 0 44 38" fill="none" xmlns="http://www.w3.org/2000/svg">
<path d="M26.5791 19.4344C26.5791 20.0262 26.4666 20.607 26.2438 21.1614C25.9118 21.9895 25.3459 22.7067 24.6081 23.2342C23.6017 23.9561 22.3034 24.2642 21.0453 24.0798C19.8787 23.9079 18.78 23.3063 18.0307 22.4286C17.3725 21.6565 16.9913 20.7583 16.8972 19.759C16.879 19.5608 16.8797 19.1341 16.8986 18.9285C17.088 16.974 18.4524 15.3701 20.3755 14.8423C20.7982 14.726 21.2127 14.6714 21.6812 14.6714C22.6192 14.6714 23.4618 14.9043 24.2575 15.3835C25.7116 16.2589 26.579 17.7735 26.579 19.4344L26.5791 19.4344ZM24.4861 18.7718C24.2835 18.8115 24.0796 18.9979 24.1059 19.3168C24.1396 19.9342 23.9098 20.5382 23.4753 20.9875C23.0988 21.3774 22.6196 21.6147 22.051 21.6915C21.9461 21.706 21.602 21.7094 21.5013 21.6969C21.3853 21.6821 21.2646 21.6572 21.1204 21.6191C20.847 21.5446 20.631 21.7074 20.5589 21.9062C20.4874 22.1014 20.5542 22.3751 20.8211 22.4967L20.9084 22.5244C21.0102 22.5534 21.1325 22.5877 21.2603 22.6066C22.1204 22.7327 23.0085 22.5217 23.6981 22.0272C24.2036 21.6659 24.5909 21.1745 24.8187 20.6063C24.9714 20.2264 25.0486 19.8284 25.0486 19.4219C25.0486 19.3575 25.0284 19.1509 25.0284 19.1509C24.9353 18.8341 24.689 18.7316 24.4861 18.7717L24.4861 18.7718ZM28.0728 36.942L27.423 36.6087L27.3327 36.6821C27.1787 36.8055 26.8615 36.9922 26.6273 37.099C26.2414 37.2804 25.8686 37.3518 25.3802 37.3387C24.9279 37.3265 24.5147 37.2308 24.1848 37.062C23.6196 36.7721 23.0928 36.2406 22.8423 35.7078C22.6506 35.2999 22.4308 34.3674 22.8221 33.4567L22.9293 33.1894L22.6196 32.8965C22.4733 32.757 22.2906 32.5834 22.1113 32.4149L21.751 32.066L21.1834 32.6198C17.7689 35.9595 14.5343 37.8665 12.0746 37.9909C10.8252 38.0552 10.0372 37.7826 9.26403 37.0172C8.67691 36.43 8.29569 35.6467 8.09724 34.6215C7.97388 34.0131 7.95905 33.7478 7.985 32.5804C8.03926 30.6613 8.37293 28.9656 9.17647 26.5339C9.21018 26.426 9.25703 26.2767 9.29646 26.1493C9.2186 26.125 9.11042 26.0944 8.97424 26.0593L8.43835 25.9201C8.42386 25.941 8.40802 25.9656 8.39049 25.9956C7.80236 27 6.46735 27.6067 5.28398 27.4061C4.30657 27.2427 3.44272 26.5905 3.02847 25.7031C2.85826 25.3334 2.78243 24.9798 2.78243 24.5562L2.78243 24.5373C2.78546 24.2083 2.8404 23.8511 2.88489 23.6849C2.83366 23.6468 2.7066 23.5676 2.58863 23.4941C1.89669 23.0637 0.738651 21.9009 0.452452 21.3489C-0.0133349 20.4466 -0.123552 19.5023 0.140688 18.6886C0.882855 16.3998 3.89363 14.3954 8.61863 13.0435C8.92735 12.9525 9.21889 12.8632 9.41438 12.7995C9.38877 12.6971 9.34057 12.5208 9.25496 12.265C8.38333 9.67616 8.03889 7.97277 7.98428 5.98016C7.95765 4.82579 7.97079 4.55952 8.09584 3.94312C8.29436 2.91584 8.67623 2.13154 9.26402 1.54508C10.0352 0.780666 10.8228 0.507704 12.0733 0.572071C14.5297 0.696102 17.7646 2.60143 21.1821 5.9378L21.745 6.49089L22.3587 5.9068C22.7419 5.54583 22.9405 5.35304 23.0433 5.25058C23.0166 5.19362 22.9853 5.12655 22.9506 5.05341C22.7359 4.6166 22.5448 3.59333 22.9475 2.70963C23.2286 2.09419 23.684 1.63645 24.3797 1.2701C25.0595 0.912162 26.2843 0.787449 27.1566 1.19763C27.3908 1.30818 27.7022 1.49187 27.8505 1.60882L27.9361 1.6769L28.3726 1.46389C29.2655 1.03921 30.3396 0.70285 31.1097 0.607802C33.2813 0.339515 34.7946 1.43018 35.371 3.67859C35.5668 4.4484 35.5503 6.99908 35.3423 8.15251C35.1297 9.3055 34.7771 10.6955 34.4219 11.7801C34.3447 12.0083 34.2769 12.2314 34.2321 12.4043C34.4148 12.4569 34.647 12.5192 34.8674 12.5745C39.3747 13.7096 42.3673 15.621 43.2904 17.7309C43.5189 18.2536 43.5944 19.4009 43.2614 20.1377C42.2675 22.3376 39.312 24.2473 34.5616 25.5924C34.3722 25.644 34.2084 25.6908 34.0836 25.7283C34.1251 25.8668 34.2111 26.1472 34.3499 26.5638C34.7631 27.8163 35.1157 29.1816 35.3428 30.409C35.5501 31.5654 35.566 34.1141 35.3715 34.8809C34.8019 37.1306 33.291 38.2217 31.116 37.9524C30.2253 37.8432 29.1164 37.4741 28.0729 36.9423L28.0728 36.942ZM20.4149 27.325L18.9677 27.325C19.1039 27.4999 19.2862 27.7307 19.4457 27.9252C20.3752 29.0398 21.4137 30.1884 21.756 30.5305C21.811 30.4789 21.8986 30.3923 22.0348 30.2464C23.0247 29.1988 24.1376 27.8639 24.6344 27.2134C24.4335 27.2211 24.1554 27.2333 23.8235 27.2522C23.082 27.2919 21.5529 27.325 20.415 27.325L20.4149 27.325ZM21.0182 31.328L20.843 31.1261C20.6684 30.931 20.4099 30.6415 20.1662 30.3695C19.3482 29.4716 18.2387 28.1544 17.8386 27.6051C17.7179 27.4345 17.6087 27.3213 17.5666 27.2805C17.4348 27.265 17.0452 27.2279 16.5491 27.1905C15.0243 27.079 13.3286 26.8778 11.7752 26.6233C11.1716 26.5239 10.6155 26.4248 10.359 26.3756C10.2956 26.539 10.1291 27.0574 10.1291 27.0574C9.57637 28.7547 9.18441 30.5283 9.05499 31.9226C9.05499 31.9226 8.9778 32.7271 9.04858 33.594C9.11801 34.5013 9.22688 34.9559 9.51572 35.5407C9.77761 36.0752 10.1851 36.4557 10.659 36.7115C11.272 37.0422 12.4187 36.9185 12.9693 36.7759C15.1015 36.2245 17.5679 34.6074 20.5042 31.8217L21.0182 31.328ZM32.5697 26.0961C30.9307 26.4648 28.6819 26.8261 26.8408 27.0169C26.473 27.0574 26.2135 27.0907 26.0827 27.1103C25.472 27.9313 23.6156 30.1355 22.8502 30.9458C22.7406 31.0614 22.6287 31.1854 22.5381 31.2926C22.6169 31.3806 22.7801 31.5568 23.0504 31.8271C23.2455 32.0223 23.4427 32.2097 23.5883 32.3384C23.5947 32.332 23.6008 32.326 23.6065 32.3186L23.6156 32.3098C23.9156 32.0004 24.6388 31.6465 25.1724 31.5488C26.4238 31.325 27.6827 31.9535 28.2334 33.0779C28.616 33.8592 28.5658 35.0389 28.1209 35.7668C28.3864 35.9182 28.8563 36.1521 29.2685 36.3196C30.9487 37.0146 32.1849 37.1052 33.0494 36.597L33.0494 36.5966C33.5516 36.3054 33.98 35.7183 34.2236 34.9873C34.3652 34.5373 34.5145 33.4763 34.5145 32.9232C34.5145 31.8558 34.1956 29.8656 33.7888 28.3931C33.5724 27.6084 33.1805 26.4072 33.0342 26.0048C32.955 26.0156 32.8148 26.0415 32.5698 26.0961L32.5697 26.0961ZM33.6062 14.0545C33.0656 15.4044 32.4251 16.8025 31.7541 18.0977C31.468 18.6433 31.2583 19.0774 31.1768 19.254C31.2546 19.4387 31.4787 19.9136 31.8094 20.5681C32.5003 21.929 32.9614 22.9331 33.5111 24.2725L33.7043 24.7259C34.2054 24.5958 35.4784 24.2102 36.2793 23.9217C40.1215 22.5307 42.2955 20.7913 42.4006 19.0232C42.437 18.4482 42.3102 18.035 41.9213 17.4496C41.0635 16.1721 39.1801 15.0501 36.323 14.1146C35.506 13.8517 34.3403 13.5305 33.8589 13.4226C33.7955 13.5763 33.7052 13.8001 33.6061 14.0546L33.6062 14.0545ZM25.8441 6.74384C25.1309 6.77047 24.5414 6.60869 23.9908 6.23458C23.8991 6.17458 23.8121 6.12066 23.7353 6.07313C23.4522 6.32692 22.824 6.96089 22.5493 7.27099C22.675 7.42064 22.8455 7.61343 23.014 7.79576C23.861 8.72364 24.7198 9.73142 25.431 10.633L25.9547 11.2936L26.6322 11.3323C28.3527 11.4274 31.0285 11.76 32.5961 12.0742C32.7953 12.1143 33.006 12.1497 33.1711 12.1709C33.3056 11.7951 33.5826 10.9147 33.7899 10.1729C34.1967 8.70753 34.5156 6.7176 34.5156 5.64278C34.5156 5.08902 34.3663 4.03007 34.2257 3.58313C33.9814 2.84906 33.5523 2.25956 33.0487 1.96732C32.1852 1.46007 30.949 1.55141 29.2675 2.24673C28.9915 2.35896 28.74 2.46749 28.6059 2.5295L28.6446 2.60432C29.1364 3.61987 28.7953 4.75534 28.6369 5.07278C28.3568 5.62586 27.7707 6.1759 27.1445 6.47383C26.7987 6.6346 26.3736 6.7229 25.8442 6.7438L25.8441 6.74384ZM11.674 1.6505C11.0936 1.67612 10.9796 1.69836 10.6588 1.85307C10.1731 2.08361 9.77841 2.48839 9.51655 3.02323C9.18591 3.69664 9.073 4.26052 8.99042 5.64173C8.99042 5.71183 9.01267 6.0755 9.04873 6.50964C9.14681 7.56393 9.29375 8.41631 9.57148 9.54937C9.80235 10.4799 10.2944 12.0535 10.4751 12.5268C10.6076 12.5079 10.8492 12.4601 11.2102 12.3812C12.8692 12.0209 16.4936 11.4729 17.4225 11.4409C17.4893 11.3796 17.6268 11.2356 17.7923 11.0172C18.3427 10.2875 19.3413 9.10047 20.1661 8.19554C20.3643 7.97579 20.5705 7.74458 20.7343 7.56123L21.0195 7.23565L20.5088 6.74324C17.5701 3.95623 15.1044 2.33507 12.9706 1.78769C12.4202 1.64377 12.2507 1.62625 11.674 1.65052L11.674 1.6505ZM3.39188 22.7241C3.79531 22.164 4.5371 21.7322 5.32719 21.5987C6.12025 21.4572 6.92108 21.6378 7.58304 22.107C8.2305 22.566 8.65588 23.2425 8.7809 24.0137C8.81966 24.2685 8.83213 24.62 8.80888 24.8337L8.80011 24.9058L9.18467 25.0093C9.6663 25.1387 9.6663 25.1387 9.76977 24.8691L9.8055 24.7767C10.2989 23.5155 10.8361 22.3207 11.548 20.9031C11.8992 20.1902 12.2743 19.4545 12.3747 19.2691C12.1641 18.9081 11.5672 17.7048 11.5625 17.6947C10.9406 16.4578 10.4516 15.3769 9.81722 13.837C9.81385 13.8279 9.81048 13.8191 9.80644 13.811C9.4094 13.9121 8.1883 14.2755 7.34843 14.5707C5.00465 15.3901 3.32482 16.328 2.21497 17.4369C1.62245 18.0298 1.39495 18.3588 1.19882 18.903C1.0549 19.2987 1.05592 19.9785 1.19983 20.3874C1.45599 21.1194 2.11995 21.8784 3.06767 22.5246L3.37944 22.7396L3.39188 22.7241ZM18.0167 12.4677C17.9763 12.5109 17.8961 12.6049 17.8041 12.7404C17.7016 12.8897 17.4997 13.1718 17.1489 13.6565C16.4458 14.6234 15.1913 16.5459 14.5176 17.6905C13.9584 18.6366 13.6885 19.0943 13.589 19.2675C13.6136 19.3187 13.6618 19.4138 13.7383 19.5496C14.5607 21.0326 16.1866 23.586 17.1502 24.9076C17.3767 25.2217 17.6763 25.6399 17.8162 25.8391C17.9419 26.0171 18.041 26.1448 18.0828 26.1977C18.5594 26.2867 22.2068 26.3073 24.8749 26.1344C24.9207 26.131 25.0589 26.1233 25.0589 26.1233C25.5594 26.0973 25.5594 26.0973 26.61 24.5864L26.8863 24.1894C27.9817 22.6248 29.7462 19.7 29.9288 19.2803C29.7482 18.8159 27.702 15.4779 26.2392 13.4586C26.2392 13.4586 25.5817 12.5745 25.3737 12.3305C24.9828 12.2048 18.6815 12.3255 18.0168 12.4677L18.0167 12.4677ZM16.3346 25.5965C16.1475 25.3383 15.8283 24.8866 15.6234 24.5938C15.1209 23.8951 13.8115 21.8098 13.3032 20.9231C13.2476 20.826 13.04 20.4542 12.9945 20.376C12.9163 20.5233 12.6258 21.1179 12.5553 21.2587C11.8132 22.7427 10.9651 24.6594 10.7134 25.3551C12.7032 25.703 13.2967 25.795 13.9537 25.8765C14.6123 25.9544 15.9773 26.0859 16.7292 26.1448C16.7296 26.1448 16.4431 25.7485 16.3346 25.5965L16.3346 25.5965ZM12.9942 18.1852C13.0397 18.108 13.2483 17.7329 13.2961 17.6483C13.8041 16.7558 15.017 14.831 15.4967 14.1579C15.6891 13.886 15.98 13.469 16.1462 13.2301C16.2709 13.0508 16.4471 12.8007 16.5921 12.5974C16.3973 12.6217 15.8122 12.6932 15.8122 12.6932C14.3471 12.8634 11.6598 13.345 10.8557 13.5398C11.2736 14.5893 11.9881 16.1765 12.5894 17.3719C12.6393 17.4727 12.9234 18.0514 12.9942 18.1852L12.9942 18.1852ZM23.9753 11.2257L24.5648 11.2415L24.4947 11.1522C23.9386 10.4549 22.6942 9.00965 22.035 8.31637C21.9022 8.17381 21.8155 8.08786 21.7616 8.03696C21.5243 8.27761 20.9884 8.85698 20.3629 9.56476C19.8556 10.135 19.2651 10.8576 18.8998 11.3312C19.9524 11.2564 22.8061 11.1957 23.9753 11.2257L23.9753 11.2257ZM27.2325 13.0214C28.248 14.44 29.3687 16.1792 30.3885 17.9186C30.4408 18.0096 30.4903 18.0946 30.5365 18.1727C31.128 17.0258 32.5054 14.0376 32.792 13.1936L32.7552 13.1862C31.4472 12.8984 28.4459 12.503 26.916 12.4171L26.7957 12.4097C26.9241 12.5914 27.0869 12.8192 27.2325 13.0214L27.2325 13.0214ZM30.3871 20.647C29.3187 22.4663 28.2334 24.1471 27.1603 25.6423L27.1428 25.6665C27.0872 25.7434 27.0181 25.8384 26.9514 25.9331C27.0818 25.921 27.2567 25.9028 27.4741 25.8772C29.2672 25.6645 31.8466 25.2028 32.6537 24.981C32.3309 24.1471 31.0828 21.4417 30.5365 20.3898C30.49 20.4687 30.4394 20.5556 30.3872 20.647L30.3871 20.647Z" fill="#D7B24E"/>
</svg>
