<svg width="17" height="14" viewBox="0 0 17 14" fill="none" xmlns="http://www.w3.org/2000/svg">
<path d="M14.5683 3.28381C14.5784 3.42792 14.5784 3.57206 14.5784 3.71617C14.5784 8.11174 11.2789 13.1765 5.24844 13.1765C3.39056 13.1765 1.66468 12.6309 0.212891 11.6838C0.47686 11.7147 0.730643 11.725 1.00477 11.725C2.53774 11.725 3.94894 11.2 5.07585 10.3044C3.63422 10.2735 2.42609 9.31618 2.00984 7.99853C2.2129 8.02939 2.41593 8.04998 2.62915 8.04998C2.92356 8.04998 3.218 8.00879 3.49209 7.93677C1.98955 7.62792 0.862612 6.2897 0.862612 4.67352V4.63236C1.29914 4.87942 1.8068 5.03383 2.34484 5.0544C1.46158 4.45732 0.882924 3.43822 0.882924 2.28527C0.882924 1.66763 1.04533 1.10146 1.32961 0.607337C2.94384 2.62498 5.37025 3.94261 8.09105 4.08675C8.0403 3.83969 8.00983 3.58236 8.00983 3.325C8.00983 1.49263 9.47177 0 11.289 0C12.2332 0 13.086 0.401469 13.685 1.05C14.4261 0.905889 15.1367 0.627934 15.7662 0.247061C15.5225 1.01914 15.0048 1.66767 14.3246 2.0794C14.9845 2.00738 15.6241 1.82204 16.2129 1.56472C15.7663 2.22351 15.2079 2.81025 14.5683 3.28381Z" fill="white"/>
</svg>
