<svg width="68" height="68" viewBox="0 0 68 68" fill="none" xmlns="http://www.w3.org/2000/svg">
<path d="M34.262 0C52.8648 0 68 15.1352 68 33.738C68 52.3407 52.8648 67.4759 34.262 67.4759C15.6593 67.4759 0.524086 52.3407 0.524086 33.738C0.524086 15.1352 15.6593 0 34.262 0ZM34.262 63.7272C50.7977 63.7272 64.2513 50.2736 64.2513 33.738C64.2513 17.2023 50.7977 3.74866 34.262 3.74866C17.7264 3.74866 4.27275 17.2023 4.27275 33.738C4.27275 50.2736 17.7264 63.7272 34.262 63.7272Z" fill="#4C5DAA"/>
<path d="M19.2674 35.6122C19.2674 36.6477 18.4286 37.4866 17.3931 37.4866H9.89574C8.86025 37.4866 8.02141 36.6477 8.02141 35.6122C8.02141 34.5768 8.86025 33.7379 9.89574 33.7379H17.3931C18.4286 33.7379 19.2674 34.5768 19.2674 35.6122Z" fill="#4C5DAA"/>
<path d="M11.7701 24.3663C11.7701 25.4012 12.6094 26.2406 13.6444 26.2406C14.6794 26.2406 15.5187 25.4012 15.5187 24.3663C15.5187 23.3313 14.6794 22.4919 13.6444 22.4919C12.6094 22.4919 11.7701 23.3313 11.7701 24.3663Z" fill="#4C5DAA"/>
<path d="M34.262 20.6176C34.262 21.6526 35.1014 22.4919 36.1364 22.4919C37.1713 22.4919 38.0107 21.6526 38.0107 20.6176C38.0107 19.5827 37.1713 18.7433 36.1364 18.7433C35.1014 18.7433 34.262 19.5827 34.262 20.6176Z" fill="#4C5DAA"/>
<path d="M45.5081 50.607C45.5081 51.642 46.3474 52.4813 47.3824 52.4813C48.4173 52.4813 49.2567 51.642 49.2567 50.607C49.2567 49.572 48.4173 48.7327 47.3824 48.7327C46.3474 48.7327 45.5081 49.572 45.5081 50.607Z" fill="#4C5DAA"/>
<path d="M53.0054 20.6176C53.0054 21.6526 53.8447 22.4919 54.8797 22.4919C55.9147 22.4919 56.754 21.6526 56.754 20.6176C56.754 19.5827 55.9147 18.7433 54.8797 18.7433C53.8447 18.7433 53.0054 19.5827 53.0054 20.6176Z" fill="#4C5DAA"/>
<path d="M42.7956 33.9361C43.7213 33.4727 44.8477 33.8482 45.31 34.7744L49.0587 42.2717C49.522 43.1974 49.1466 44.3228 48.2204 44.7861C47.951 44.921 47.6655 44.9848 47.3836 44.9848C46.6959 44.9848 46.0344 44.6046 45.706 43.9478L41.9573 36.4505C41.4945 35.5248 41.87 34.3994 42.7956 33.9361Z" fill="#4C5DAA"/>
<path d="M22.5234 45.0496C23.5212 44.7803 24.5519 45.366 24.8249 46.3649C25.0969 47.3637 24.5085 48.3945 23.5097 48.6664C21.6819 49.1648 20.0356 50.2625 18.8735 51.7566C18.5032 52.2326 17.9515 52.481 17.392 52.481C16.9903 52.481 16.5845 52.3518 16.2425 52.0867C15.4251 51.4507 15.2776 50.274 15.9135 49.4566C17.5703 47.3249 19.9179 45.7603 22.5234 45.0495L22.5234 45.0496Z" fill="#4C5DAA"/>
<path d="M26.0418 18.3484C25.6998 18.6136 25.2939 18.7427 24.8923 18.7427C24.3338 18.7427 23.781 18.4943 23.4117 18.0195C22.7758 17.2021 22.9227 16.0253 23.7401 15.3884C25.2353 14.2254 26.3325 12.5791 26.832 10.7512C27.1039 9.75339 28.1352 9.16714 29.1335 9.43594C30.1324 9.70788 30.7207 10.7392 30.4477 11.7375C29.737 14.3435 28.1723 16.6905 26.0417 18.3484L26.0418 18.3484Z" fill="#4C5DAA"/>
<path d="M42.1544 25.5164C41.5184 24.699 41.6664 23.5222 42.4833 22.8863C43.3007 22.2514 44.4789 22.3989 45.1134 23.2152C46.2754 24.7093 47.9227 25.807 49.7495 26.3055C50.7484 26.5774 51.3372 27.6087 51.0648 28.607C50.8368 29.4401 50.0822 29.9887 49.2574 29.9887C49.0937 29.9887 48.9285 29.9667 48.7632 29.9217C46.1588 29.2126 43.8112 27.6479 42.1545 25.5162L42.1544 25.5164Z" fill="#4C5DAA"/>
<path d="M37.261 45.3588C40.0777 47.4705 41.7596 50.8348 41.7596 54.3555C41.7596 55.391 40.9208 56.2298 39.8853 56.2298C38.8498 56.2298 38.011 55.391 38.011 54.3555C38.011 52.0079 36.8903 49.7659 35.0123 48.3575C34.1845 47.7367 34.0161 46.5611 34.6373 45.7332C35.2581 44.9048 36.4338 44.7385 37.2611 45.3587L37.261 45.3588Z" fill="#4C5DAA"/>
<path d="M26.7647 54.3555C26.7647 55.3905 27.6041 56.2299 28.639 56.2299C29.674 56.2299 30.5134 55.3905 30.5134 54.3555C30.5134 53.3206 29.674 52.4812 28.639 52.4812C27.6041 52.4812 26.7647 53.3206 26.7647 54.3555Z" fill="#4C5DAA"/>
<path d="M22.1057 29.7228C21.2187 30.2573 20.0671 29.9681 19.5342 29.0801C19.0018 28.1926 19.289 27.0411 20.177 26.5086C21.8573 25.5004 23.8288 25.2085 25.7325 25.6808C27.6345 26.1567 29.2369 27.3444 30.2457 29.0251C30.7781 29.9126 30.491 31.0641 29.603 31.5966C29.3007 31.778 28.9686 31.8633 28.6402 31.8633C28.0037 31.8633 27.383 31.5385 27.031 30.9533C26.5378 30.1307 25.7533 29.5497 24.823 29.3174C23.8937 29.0831 22.9278 29.2285 22.1056 29.7227L22.1057 29.7228Z" fill="#4C5DAA"/>
<path d="M28.4958 41.1938C27.464 41.1148 26.6911 40.2132 26.7705 39.1815C26.8499 38.1497 27.7443 37.3658 28.7834 37.4561C31.0012 37.6256 33.2547 37.0634 35.1307 35.869C36.004 35.3141 37.1624 35.5714 37.7178 36.4442C38.2742 37.3176 38.0164 38.4766 37.1425 39.0324C34.8863 40.468 32.2287 41.2352 29.5584 41.2352C29.2044 41.2352 28.8493 41.2216 28.4957 41.1939L28.4958 41.1938Z" fill="#4C5DAA"/>
<path d="M57.5037 30.3642C58.3316 29.745 59.5062 29.9113 60.1281 30.7391C60.7493 31.567 60.5809 32.7427 59.7531 33.3635C57.8751 34.7713 56.7544 37.0139 56.7544 39.3615C56.7544 40.3969 55.9156 41.2358 54.8801 41.2358C53.8446 41.2358 53.0058 40.3969 53.0058 39.3615C53.0052 35.8403 54.6872 32.476 57.5039 30.3643L57.5037 30.3642Z" fill="#4C5DAA"/>
<path d="M48.5069 16.4941C48.1696 16.7467 47.7753 16.8691 47.3836 16.8691C46.8136 16.8691 46.2508 16.6102 45.8827 16.1192C44.4738 14.2412 42.2323 13.1205 39.8847 13.1205C38.8492 13.1205 38.0103 12.2816 38.0103 11.2462C38.0103 10.2107 38.8492 9.37183 39.8847 9.37183C43.4053 9.37183 46.7685 11.0536 48.8813 13.8705C49.5037 14.6978 49.3347 15.8735 48.5069 16.4943L48.5069 16.4941Z" fill="#4C5DAA"/>
</svg>
