<svg width="21" height="14" viewBox="0 0 21 14" fill="none" xmlns="http://www.w3.org/2000/svg">
<path d="M17.0128 0H3.63501H3.63522C2.72745 0 1.857 0.360461 1.21528 1.00239C0.573335 1.64411 0.212891 2.51455 0.212891 3.42233V10.5779V10.5777C0.212891 11.4854 0.573352 12.3559 1.21528 12.9976C1.857 13.6396 2.72745 14 3.63522 14H17.013H17.0128C17.9206 14 18.791 13.6395 19.4327 12.9976C20.0747 12.3559 20.4351 11.4854 20.4351 10.5777V3.42212V3.42233C20.4351 2.51455 20.0746 1.64411 19.4327 1.00239C18.791 0.360444 17.9206 0 17.0128 0ZM14.2845 7.13666L8.21784 10.2478C8.16966 10.2725 8.11215 10.2708 8.06593 10.2428C8.01948 10.215 7.99105 10.1649 7.99062 10.1108V3.88862C7.99105 3.83458 8.01948 3.78445 8.06593 3.75667C8.11215 3.72868 8.16966 3.72694 8.21784 3.75168L14.2845 6.86279C14.3364 6.88948 14.3691 6.94287 14.3691 7.00125C14.3691 7.05963 14.3364 7.11301 14.2845 7.1397V7.13666Z" fill="white"/>
</svg>
