<svg width="80" height="80" viewBox="0 0 80 80" fill="none" xmlns="http://www.w3.org/2000/svg">
<path d="M30.284 24.3167C27.2763 24.3167 24.8318 21.8748 24.8318 18.8648C24.8318 15.8489 27.2763 13.407 30.284 13.407C33.3053 13.407 35.7444 15.8489 35.7444 18.8648C35.7444 21.8749 33.3053 24.3167 30.284 24.3167Z" fill="#696969"/>
<path d="M59.7239 59.9146C59.7239 59.9146 45.1871 59.3131 41.7221 47.1851C40.3349 42.3284 40.5001 35.8985 40.5091 31.9733L45.477 34.0984L41.5086 40.3816C40.6764 41.6995 41.0715 43.4463 42.3917 44.2799C42.8606 44.5751 43.3819 44.7159 43.8958 44.7159C44.8355 44.7159 45.753 44.2504 46.289 43.398L52.0233 34.3125C52.4667 33.6141 52.5779 32.7561 52.3315 31.9651C52.0884 31.1749 51.5064 30.5333 50.745 30.2056C50.745 30.2056 37.3827 24.575 37.3703 24.575C36.2819 24.1878 34.6472 24.2342 33.2322 25.3548C28.6954 28.9468 29.3084 37.5886 30.2395 43.0267H20.2328C18.4138 43.0267 16.9382 44.6435 16.9382 46.4678V62.8675C16.9382 64.6891 18.4139 66.1621 20.2328 66.1621C22.0571 66.1621 23.5301 64.6895 23.5301 62.8675L23.5297 50.5905H32.7586C40.9785 68.087 59.8265 65.9154 59.8265 65.9154C61.644 65.9154 63.1998 64.9027 63.1998 63.0844C63.2001 61.0347 61.5463 59.9142 59.7235 59.9142L59.7239 59.9146Z" fill="#696969"/>
</svg>
