<svg width="80" height="80" viewBox="0 0 80 80" fill="none" xmlns="http://www.w3.org/2000/svg">
<path d="M24.5135 63.7664C24.0065 63.7785 23.5117 63.7906 22.9927 63.7906L23.5358 64.4906C24.0428 64.4785 24.5497 64.4544 25.0566 64.4182L24.5135 63.7664ZM26.0946 65.5769L25.5032 64.9251L24.598 65.7338C25.1049 65.6976 25.6118 65.6373 26.0946 65.5769ZM23.9824 65.0338C24.1876 65.2752 24.3807 65.5166 24.598 65.7338L25.5032 64.9251H25.4911C24.9842 64.9855 24.4893 65.0096 23.9824 65.0338ZM24.1031 63.2233C23.9341 62.9939 23.7531 62.7767 23.5962 62.5353C23.5841 62.5353 23.572 62.5232 23.56 62.5232L22.5823 63.2112C23.0772 63.2353 23.6082 63.2353 24.1031 63.2233ZM26.5774 66.0597C26.0826 66.1321 25.5636 66.2166 25.0687 66.2528C25.2618 66.4822 25.4791 66.6873 25.6963 66.8925C26.2033 66.8201 26.6861 66.7477 27.1809 66.6391C26.9637 66.458 26.7826 66.2528 26.5774 66.0597ZM23.5479 62.5111C23.053 62.4991 22.5582 62.4749 22.0512 62.4508L22.5823 63.2233L23.56 62.5232C23.56 62.5111 23.5479 62.5111 23.5479 62.5111ZM21.0011 60.411C20.8563 60.2782 20.7235 60.1454 20.5787 60.0127C20.6752 60.1696 20.7597 60.3386 20.8563 60.4955L21.0011 60.411ZM21.0011 60.411L20.8563 60.4955C20.9529 60.5075 21.0373 60.5196 21.1339 60.5317C21.0856 60.4955 21.0494 60.4593 21.0011 60.411ZM21.8581 61.1714C21.6408 61.1593 21.4236 61.1352 21.2063 61.111L21.665 61.8594C22.0391 61.8956 22.4133 61.9197 22.7754 61.9318C22.4616 61.6904 22.1598 61.4369 21.8581 61.1714ZM27.6879 67.0856C27.2051 67.1943 26.6981 67.3029 26.1912 67.3874L26.8913 68.003H26.9033L27.6879 67.0856ZM34.2781 70.9239C33.8677 71.2256 33.4573 71.4912 33.0107 71.7567C33.2883 71.8653 33.5659 71.986 33.8556 72.0705C34.2781 71.7809 34.6884 71.4791 35.0747 71.1774C34.8091 71.0929 34.5436 71.0084 34.2781 70.9239ZM19.5889 58.9988L19.5045 59.1436C19.5527 59.1195 19.6131 59.0953 19.6614 59.0712C19.6372 59.0471 19.6131 59.0229 19.5889 58.9988ZM35.7265 71.3343L35.4488 72.5171C35.8472 72.2033 36.2213 71.8653 36.5834 71.5153C36.2937 71.467 36.0161 71.4188 35.7265 71.3343ZM35.7265 71.3343C35.3523 71.6602 34.9419 71.986 34.5315 72.2878C34.8333 72.3844 35.1471 72.4447 35.4488 72.5171L35.7265 71.3343ZM32.8417 70.3807H32.8297C32.4072 70.6221 31.9606 70.8635 31.502 71.0929L32.3589 71.4912C32.8055 71.2377 33.24 70.9722 33.6504 70.7066C33.3849 70.598 33.1073 70.4894 32.8417 70.3807ZM27.6879 67.0856L26.9033 68.003C27.3861 67.9064 27.8931 67.7857 28.3759 67.6529C28.1345 67.4719 27.9051 67.2908 27.6879 67.0856ZM28.8949 68.0754C28.4241 68.2082 27.9413 68.3409 27.4344 68.4616L28.1345 69.0168C28.6293 68.872 29.1121 68.7151 29.5829 68.5582L28.8949 68.0754ZM28.7138 69.4272C28.9673 69.6083 29.2208 69.7893 29.4863 69.9583L30.1501 68.9323H30.1381C29.6673 69.1134 29.1966 69.2824 28.7138 69.4272ZM30.8985 69.391C30.645 69.2462 30.3915 69.0893 30.1501 68.9323L29.4863 69.9462C29.9691 69.7772 30.4398 69.5962 30.8985 69.391ZM13.4936 52.9759L12.9143 52.312L11.997 53.1087C12.5039 53.0724 13.0108 53.0242 13.4936 52.9759ZM9.61918 47.1582L8.50874 47.653C9.01568 47.7737 9.51055 47.8703 9.99335 47.9548L9.61918 47.1582ZM11.0676 49.8618L10.0537 50.5136C10.5486 50.5619 11.0676 50.574 11.5624 50.586C11.3935 50.3446 11.2245 50.1032 11.0676 49.8618ZM10.3072 48.5462C9.80023 48.4859 9.30536 48.4014 8.81049 48.2928C8.93119 48.5704 9.06396 48.8359 9.2088 49.0894C9.72781 49.1739 10.2106 49.2463 10.7175 49.2825C10.5606 49.0411 10.4399 48.7997 10.3072 48.5462ZM11.0676 49.8618V49.8498C10.5727 49.8256 10.0658 49.7774 9.55883 49.717C9.71574 49.9825 9.88472 50.2481 10.0537 50.5136L11.0676 49.8618ZM9.61918 47.1582C9.13638 47.0495 8.65358 46.9168 8.15871 46.7719C8.27941 47.0616 8.38804 47.3634 8.50874 47.653L9.61918 47.1582ZM9.0881 45.7581C8.61737 45.6012 8.13457 45.4322 7.65178 45.2391C7.73627 45.5287 7.83283 45.8184 7.91732 46.096C8.38804 46.265 8.88291 46.4098 9.37778 46.5426C9.26915 46.2771 9.16052 46.0236 9.0881 45.7581ZM8.37597 42.7889C7.94146 42.5595 7.50694 42.3061 7.07242 42.0285L7.16898 42.9216C7.61557 43.1751 8.07422 43.4044 8.52081 43.6096L8.37597 42.7889ZM8.66565 44.2735V44.2614C8.19492 44.0803 7.73627 43.8631 7.28968 43.6217C7.33796 43.9355 7.39831 44.2493 7.4828 44.5511L8.66565 44.2735ZM8.66565 44.2735L7.4828 44.5511C7.95353 44.7563 8.41218 44.9494 8.88291 45.1184C8.79842 44.8407 8.73807 44.5511 8.66565 44.2735ZM16.2697 55.5106C15.7869 55.6433 15.292 55.764 14.7972 55.8727L15.4731 56.44C15.968 56.3072 16.4628 56.1744 16.9336 56.0296L16.2697 55.5106ZM19.1424 58.5039C18.9855 58.5643 18.8406 58.6246 18.6958 58.6729C18.9613 58.8539 19.2389 58.9867 19.5045 59.1436L19.5889 58.9988C19.432 58.8298 19.2872 58.6729 19.1424 58.5039ZM18.2854 57.49C17.9836 57.6107 17.6698 57.7194 17.3681 57.8159C17.5974 57.997 17.8509 58.1539 18.1043 58.2987C18.3216 58.2263 18.5389 58.1418 18.7561 58.0573C18.5992 57.8763 18.4423 57.6832 18.2854 57.49ZM15.0748 54.5088L14.2661 55.4019C14.761 55.3175 15.2558 55.1968 15.7507 55.0761C15.5214 54.895 15.292 54.714 15.0748 54.5088ZM17.4767 56.4279C16.9939 56.5969 16.5232 56.7296 16.0404 56.8624C16.2818 57.0555 16.5232 57.2486 16.7887 57.4176C17.175 57.2969 17.5491 57.1642 17.9233 57.0314C17.7785 56.8383 17.6215 56.6331 17.4767 56.4279ZM11.3935 52.3845C11.5866 52.6259 11.7797 52.8793 11.997 53.1087L12.9143 52.312V52.3C12.4073 52.3603 11.9004 52.3724 11.3935 52.3845ZM11.9487 51.1292C11.4538 51.1413 10.9589 51.1292 10.4399 51.105L10.9589 51.8292C11.4659 51.8292 11.9849 51.8172 12.4798 51.793L11.9487 51.1292ZM37.2473 71.6239C36.8972 71.986 36.5351 72.324 36.1489 72.674L37.03 72.8309C37.3921 72.4688 37.7421 72.0947 38.068 71.7205L37.2473 71.6239ZM15.0748 54.5088V54.4967C14.5799 54.6053 14.0851 54.6898 13.5781 54.7743L14.2661 55.414V55.4019L15.0748 54.5088ZM13.9764 53.4466C13.4816 53.519 12.9626 53.6035 12.4677 53.6397C12.6487 53.857 12.8781 54.0622 13.0712 54.2794C13.5902 54.207 14.073 54.1467 14.5679 54.038C14.3627 53.857 14.1695 53.6518 13.9764 53.4466ZM64.5857 53.9053L63.9339 54.5088L64.7426 55.4019C64.6943 54.895 64.646 54.4001 64.5857 53.9053ZM66.6496 51.6361C66.4686 51.8655 66.2875 52.0948 66.0944 52.312L67.0117 53.1087C66.9152 52.6138 66.7824 52.1189 66.6496 51.6361ZM68.0377 29.1498L67.06 29.8861H67.0721C67.5549 29.8861 68.0618 29.8982 68.5808 29.9223L68.0377 29.1498ZM66.5169 29.1981L67.06 29.8861L68.0377 29.1498C67.5187 29.1498 67.0117 29.1619 66.5169 29.1981ZM66.0824 52.312C66.2031 52.8069 66.2996 53.3018 66.3841 53.8087L67.0117 53.1087L66.0944 52.312H66.0824ZM64.7426 55.4019L63.9339 54.5088H63.9218C63.9822 55.0157 64.0063 55.5106 64.0305 56.0175C64.2719 55.8244 64.5133 55.6313 64.7426 55.414V55.4019ZM62.232 55.9089C62.0027 56.0658 61.7734 56.2589 61.5441 56.4158C61.532 56.4158 61.532 56.4279 61.5199 56.44L62.22 57.4176C62.2441 56.9228 62.232 56.4038 62.232 55.9089ZM62.7631 55.4985C62.7873 55.9934 62.7873 56.4882 62.7873 57.0072L63.4873 56.4762C63.4752 55.9572 63.4511 55.4502 63.4149 54.9554L62.7631 55.4985ZM8.2432 41.256L7.03621 41.3163C7.43452 41.606 7.86904 41.8836 8.30355 42.1371C8.26734 41.8474 8.2432 41.5577 8.2432 41.256ZM67.0721 51.105C67.2169 51.5758 67.3497 52.0706 67.4704 52.5655L68.0135 51.8655C67.8808 51.3706 67.7239 50.8878 67.5549 50.4171L67.0721 51.105ZM65.0564 53.4225C65.1409 53.9173 65.2133 54.4363 65.2616 54.9312C65.4789 54.7381 65.684 54.5208 65.8892 54.3157C65.8168 53.8087 65.7444 53.3138 65.6358 52.819C65.4547 53.0362 65.2495 53.2294 65.0564 53.4225ZM71.5259 44.5511L70.343 44.2735C70.6569 44.6597 70.9948 45.058 71.2845 45.4684C71.3811 45.1666 71.4414 44.8528 71.5259 44.5511ZM70.7896 40.3869C70.7896 40.6766 70.7655 40.9663 70.7655 41.256V41.268C71.1638 41.5819 71.538 41.9078 71.9121 42.2578C71.9483 41.944 71.9725 41.6301 71.9725 41.3163C71.5742 40.9904 71.2 40.6766 70.7896 40.3869ZM70.512 43.4165C70.4758 43.7062 70.4155 43.9959 70.343 44.2735L71.5259 44.5511C71.2121 44.1528 70.8741 43.7786 70.512 43.4165ZM70.6327 42.7647C70.9828 43.1027 71.3328 43.4648 71.6707 43.851L71.8276 42.9699C71.4655 42.6078 71.0914 42.2578 70.7172 41.9319L70.6327 42.7647ZM69.7033 46.3495C69.5947 46.6271 69.4981 46.8926 69.3774 47.1702L70.5 47.653C70.2465 47.1944 69.9689 46.7599 69.7033 46.3495ZM68.7136 48.5221C68.9309 48.9687 69.1481 49.4394 69.3292 49.9101C69.4861 49.6567 69.6188 49.3911 69.7637 49.1376C69.5585 48.6669 69.3412 48.2203 69.0998 47.7737C68.9791 48.0272 68.8584 48.2807 68.7136 48.5221ZM69.9327 45.7219C70.2344 46.1322 70.5 46.5547 70.7655 46.9892C70.8741 46.7116 70.9828 46.434 71.0672 46.1443C70.7776 45.7219 70.4879 45.3115 70.1741 44.9252C70.1016 45.1908 70.0051 45.4563 69.9327 45.7219ZM68.3998 49.1135C68.2429 49.367 68.086 49.6084 67.9291 49.8618C68.1222 50.3326 68.2791 50.8033 68.436 51.2982C68.617 51.0326 68.7981 50.7792 68.955 50.5136C68.774 50.0308 68.5929 49.5601 68.3998 49.1135ZM70.5 47.653L69.3774 47.1702C69.6309 47.5927 69.8602 48.0393 70.1016 48.4979L70.5 47.653ZM50.8139 67.5081L50.1259 68.0633L50.8501 69.0289C50.8501 68.5099 50.838 68.003 50.8139 67.5081ZM38.7439 71.7567H38.7319C38.4301 72.1671 38.0922 72.5413 37.7421 72.9034C38.056 72.9396 38.3698 72.9758 38.6836 72.9758C39.0215 72.5775 39.3233 72.1912 39.613 71.7809C39.3233 71.7929 39.0336 71.7688 38.7439 71.7567ZM45.7928 71.8412L46.6256 71.5032C46.7463 70.9963 46.8549 70.5014 46.9394 70.0186L46.179 70.3687C46.0704 70.8635 45.9376 71.3343 45.7928 71.8412ZM48.7379 70.4411L49.4983 69.9704C49.5465 69.4634 49.5586 68.9565 49.5707 68.4496C49.3413 68.6185 49.112 68.7754 48.8706 68.9203C48.8465 69.4151 48.7982 69.9221 48.7379 70.4411ZM50.1138 68.0633C50.1259 68.5582 50.1138 69.0651 50.0897 69.5721L50.8501 69.0289L50.1259 68.0633H50.1138ZM47.5429 69.7048H47.5309C47.4705 70.2118 47.386 70.7066 47.2774 71.2015C47.555 71.0808 47.8447 70.936 48.1102 70.779C48.1947 70.2721 48.2671 69.7772 48.3033 69.2824C48.0619 69.4393 47.7964 69.56 47.5429 69.7048ZM40.2768 71.7567C40.0113 72.1671 39.7095 72.6016 39.3957 72.9999C39.6975 72.9999 39.9992 72.9878 40.2889 72.9758C40.5906 72.5654 40.8562 72.143 41.1096 71.6964C40.832 71.7326 40.5544 71.7567 40.2768 71.7567ZM42.6546 72.7102C42.9443 72.662 43.246 72.6016 43.5236 72.5292C43.7409 72.0585 43.934 71.5998 44.103 71.1291C43.8375 71.2136 43.5598 71.2618 43.2943 71.3343C43.1012 71.805 42.8839 72.2637 42.6546 72.7102ZM44.7427 70.9239H44.7306C44.5858 71.3946 44.4168 71.8774 44.2237 72.3602C44.5254 72.2757 44.8272 72.1671 45.1289 72.0705C45.2979 71.5998 45.4307 71.1049 45.5635 70.6221C45.2858 70.7308 45.0203 70.8394 44.7427 70.9239ZM41.7735 71.6239C41.5442 72.0585 41.2786 72.493 41.0131 72.9275L41.9545 72.8309C42.1959 72.3723 42.4253 71.9257 42.6425 71.4791L41.7735 71.6239ZM55.4487 62.5111C55.6177 62.9939 55.7505 63.4647 55.8833 63.9475C56.0522 63.7181 56.2454 63.4888 56.4143 63.2353C56.2816 62.8491 56.1609 62.4629 56.0281 62.0887C55.835 62.2335 55.6419 62.3784 55.4487 62.5111ZM57.5248 60.8576C57.573 61.0024 57.6334 61.1472 57.6937 61.28C57.8507 61.0386 57.9834 60.7731 58.1403 60.5196C58.1162 60.4713 58.0921 60.411 58.0679 60.3627C57.8869 60.5196 57.7058 60.6886 57.5248 60.8576ZM60.1802 58.1539C60.156 58.3712 60.1319 58.5763 60.1077 58.8057L60.8561 58.3349C60.8923 57.9608 60.9164 57.5987 60.9285 57.2245C60.6871 57.5383 60.4336 57.8521 60.1802 58.1539ZM59.0094 59.4212C59.1783 59.3367 59.3353 59.2402 59.5042 59.1436L59.4197 58.9988C59.287 59.1436 59.1542 59.2885 59.0094 59.4212ZM56.4747 61.7266C56.5954 62.0404 56.704 62.3422 56.8126 62.656C56.9937 62.4025 57.1627 62.149 57.3196 61.8835L56.7402 61.5093C56.6557 61.5818 56.5712 61.6542 56.4747 61.7266ZM61.5199 56.44L61.5078 56.452C61.4958 56.9469 61.4837 57.4418 61.4475 57.9487L62.22 57.4176L61.5199 56.44ZM53.0589 65.4079C52.8658 65.6373 52.6485 65.8304 52.4433 66.0476H52.4313C52.5037 66.5425 52.5882 67.0615 52.6244 67.5564C52.8537 67.3512 53.071 67.1219 53.3003 66.9046H53.2882C53.2279 66.3977 53.1554 65.9149 53.0589 65.4079ZM53.5175 64.9131C53.6141 65.4079 53.7107 65.9028 53.7952 66.4097L54.3987 65.758C54.3021 65.2631 54.1935 64.7561 54.0728 64.2734C53.8917 64.4906 53.7107 64.7079 53.5175 64.9131ZM55.0384 63.0422L54.5073 63.7543L55.4608 64.5027C55.328 64.0078 55.1832 63.525 55.0384 63.0422ZM51.3208 67.0736C51.3691 67.5805 51.3932 68.0875 51.4053 68.5944C51.6346 68.4133 51.876 68.2323 52.0933 68.0271C52.0571 67.5081 52.0088 67.0132 51.9605 66.5184L51.3208 67.0736ZM54.5073 63.7543C54.628 64.2371 54.7487 64.732 54.8573 65.2269L55.4608 64.5148L54.5073 63.7543ZM31.4778 69.7169C31.0312 69.9221 30.5605 70.1514 30.0898 70.3325C30.3433 70.4894 30.6088 70.6221 30.8743 70.767C31.333 70.5618 31.7796 70.3445 32.2262 70.0911C31.9727 69.9824 31.7192 69.8497 31.4778 69.7169ZM50.1259 12.9399C50.5966 12.8071 51.0915 12.6744 51.5864 12.5537L50.8501 11.9622V11.9743C50.3552 12.1191 49.8724 12.264 49.4017 12.433L50.1259 12.9399ZM48.8465 12.0588C49.3172 11.8657 49.7879 11.7088 50.2707 11.5639C50.0293 11.3829 49.7879 11.2139 49.5345 11.057C49.0517 11.238 48.593 11.4191 48.1344 11.6122L48.8465 12.0588ZM51.2967 13.9055C51.7915 13.7848 52.2864 13.6882 52.7934 13.6037L52.1295 13.0123C51.6346 13.1089 51.1398 13.2296 50.657 13.3623C50.8742 13.5434 51.0915 13.7124 51.2967 13.9055ZM48.931 10.6828C48.6654 10.5138 48.3878 10.3811 48.1102 10.2242L47.5429 11.2984C47.9895 11.0811 48.4602 10.8639 48.931 10.6828ZM54.9177 17.792C55.0866 18.0213 55.2556 18.2265 55.4125 18.4559C55.4246 18.4679 55.4246 18.4679 55.4367 18.48C55.9315 18.48 56.4264 18.5041 56.9454 18.5283L56.4385 17.8041C55.9436 17.7799 55.4125 17.792 54.9177 17.792ZM46.7584 10.9001C47.0239 11.0208 47.2895 11.1535 47.5429 11.2984L48.1102 10.2242C47.6516 10.4293 47.1929 10.6466 46.7584 10.9001ZM54.5073 17.2489V17.2609C55.0021 17.2368 55.5091 17.2368 56.016 17.2368L55.4608 16.4885C54.9418 16.5126 54.4349 16.5367 53.94 16.5729L54.5073 17.2489ZM51.8036 14.3521C52.0329 14.5331 52.2261 14.7504 52.4433 14.9556L53.2882 14.0986C52.7813 14.171 52.2985 14.2434 51.8036 14.3521ZM53.9521 14.7625C53.7469 14.5211 53.5175 14.3159 53.3003 14.0986L52.4433 14.9556V14.9676C52.9382 14.8832 53.4572 14.8107 53.9521 14.7625ZM53.4934 16.066C54.0003 16.0057 54.4952 15.9695 55.0021 15.9453C54.8211 15.7281 54.6401 15.4987 54.4349 15.2815C53.9159 15.3177 53.421 15.378 52.9261 15.4384L53.4934 16.066ZM43.2581 9.65687C43.6323 9.34305 44.0306 9.00509 44.441 8.71542C44.1633 8.61886 43.8737 8.55851 43.584 8.48609C43.1857 8.79991 42.7994 9.13786 42.4373 9.48789C42.715 9.53617 42.9926 9.58445 43.2581 9.65687ZM37.8749 9.30684C38.1646 9.27063 38.4543 9.24649 38.7439 9.23442L38.6836 8.02743C38.3939 8.43781 38.1163 8.87233 37.8749 9.30684ZM37.9715 8.07571L37.0783 8.1602C36.8248 8.61886 36.5955 9.07751 36.3903 9.5241L37.2111 9.37926C37.4404 8.94474 37.6939 8.51023 37.9715 8.07571ZM38.7439 9.23442C39.0215 8.82405 39.3112 8.4016 39.6371 8.00329C39.3112 7.99122 38.9974 8.01536 38.6836 8.02743L38.7439 9.23442ZM46.1549 10.6104C46.5773 10.369 47.0239 10.1276 47.4826 9.89827L46.6739 9.51203C46.2273 9.7655 45.7928 10.031 45.3703 10.3086L46.1549 10.6104ZM35.7265 9.66894L35.7385 9.65687C35.9316 9.18614 36.1368 8.73956 36.3782 8.29297C36.0644 8.34125 35.7506 8.4016 35.4488 8.48609C35.2437 8.95681 35.0505 9.4034 34.8816 9.8862C35.1592 9.78964 35.4488 9.74136 35.7265 9.66894ZM56.7402 19.4818L57.3196 19.1197C56.9454 19.0835 56.5712 19.0594 56.1971 19.0473C56.3781 19.1921 56.5592 19.337 56.7402 19.4818ZM44.7427 10.0793C45.1531 9.77757 45.5755 9.51203 46.01 9.24649C45.7204 9.13786 45.4307 9.01716 45.1289 8.93268C44.6944 9.22235 44.2961 9.51203 43.9099 9.81378C44.1875 9.89827 44.4651 9.99483 44.7427 10.0793ZM42.8839 8.32918L41.9545 8.17227L41.7735 9.36719L41.7856 9.37926C42.1356 9.02923 42.4977 8.67921 42.8839 8.32918ZM40.9165 9.2827L41.7735 9.36719L41.9545 8.17227C41.5804 8.53437 41.2303 8.90854 40.9165 9.2827ZM40.2527 9.23442C40.5544 8.83612 40.8924 8.46195 41.2424 8.08778C40.9407 8.06364 40.651 8.02743 40.3492 8.02743C40.0113 8.42574 39.6975 8.81198 39.4078 9.22235C39.6975 9.21028 39.9751 9.23442 40.2527 9.23442ZM62.051 24.9616L62.7511 25.4926L63.5115 24.5512C63.0166 24.6719 62.5217 24.8167 62.051 24.9616ZM68.7136 32.4691C69.2205 32.5294 69.7154 32.6139 70.2103 32.7346C70.0775 32.4449 69.9327 32.1673 69.7758 31.8897C69.2688 31.8173 68.786 31.7449 68.2791 31.6966C68.436 31.9501 68.5688 32.2156 68.7136 32.4691ZM67.9291 31.1293C68.4239 31.1655 68.9309 31.2017 69.4378 31.2621L68.9671 30.5137C68.4722 30.4654 67.9532 30.4413 67.4583 30.4292C67.6152 30.6586 67.7842 30.8879 67.9291 31.1293ZM57.1747 19.8439C57.392 19.868 57.5972 19.8922 57.8144 19.9163L57.3196 19.1197L56.7402 19.4818C56.8851 19.6025 57.0299 19.7232 57.1747 19.8439ZM69.3774 33.8209C69.8602 33.9295 70.343 34.0623 70.8379 34.2071L70.512 33.3743C70.0051 33.2536 69.5102 33.145 69.0153 33.0605L69.3774 33.8209ZM71.3569 35.7762C71.2724 35.4745 71.1638 35.1848 71.0793 34.883L69.9206 35.2693C70.3913 35.4262 70.8862 35.5831 71.3569 35.7762ZM70.7655 39.7231C71.1759 40.0007 71.5983 40.2904 71.9966 40.6042C72.0087 40.3024 71.9846 40.0128 71.9846 39.711C71.5742 39.4093 71.1397 39.1437 70.7051 38.8903C70.7293 39.1679 70.7655 39.4455 70.7655 39.7231ZM70.6327 38.2264C71.0672 38.4678 71.5018 38.7213 71.9363 38.9989L71.8397 38.0574H71.8276C71.3811 37.804 70.9224 37.5746 70.4758 37.3695L70.6327 38.2264ZM57.3196 61.8835C57.2351 61.6662 57.1506 61.449 57.0782 61.2438C56.9696 61.3283 56.8609 61.4248 56.7402 61.5093L57.3196 61.8835ZM69.6188 34.4365C69.7275 34.7141 69.8361 34.9796 69.9206 35.2693L71.0672 34.883C70.5965 34.702 70.1016 34.5692 69.6188 34.4365ZM70.331 36.7177C70.8017 36.8987 71.2604 37.116 71.7069 37.3453C71.6587 37.0556 71.6104 36.766 71.5259 36.4763C71.0552 36.259 70.6086 36.0659 70.1258 35.909C70.2103 36.1745 70.2706 36.4401 70.331 36.7177ZM66.0824 28.6791C66.5893 28.6308 67.0842 28.6067 67.5911 28.5946C67.41 28.3653 67.229 28.136 67.0238 27.9187C66.5169 27.9428 66.0099 27.9911 65.5271 28.0515L66.0824 28.6791ZM60.7354 23.5252C61.0371 23.4045 61.3509 23.2959 61.6648 23.1993C61.4113 23.0183 61.1457 22.8493 60.8802 22.6803C60.663 22.7648 60.4578 22.8493 60.2405 22.9338C60.4095 23.1269 60.5664 23.32 60.7354 23.5252ZM59.5404 58.866C59.4922 58.9143 59.456 58.9505 59.4197 58.9988L59.5042 59.1436C59.5163 59.0471 59.5284 58.9626 59.5404 58.866ZM61.5199 24.5512C61.9906 24.3943 62.4614 24.2615 62.9562 24.1167C62.7148 23.9477 62.4855 23.7546 62.2441 23.5977C61.8458 23.7184 61.4716 23.8511 61.0854 23.9839C61.2302 24.1649 61.3751 24.3581 61.5199 24.5512ZM58.43 20.9905C58.3335 20.8336 58.249 20.6767 58.1645 20.5198C58.0679 20.5077 57.9834 20.4957 57.8989 20.4836C58.08 20.6526 58.249 20.8216 58.43 20.9905ZM59.8543 22.4872C59.9991 22.4269 60.1439 22.3665 60.2888 22.3062C60.0474 22.1493 59.7818 22.0165 59.5284 21.8717C59.468 21.8958 59.4197 21.9199 59.3594 21.9441C59.5284 22.1131 59.6974 22.3062 59.8543 22.4872ZM64.4167 26.941C64.634 27.1341 64.8392 27.3514 65.0443 27.5566L65.9134 26.7117C65.4064 26.772 64.9116 26.8445 64.4167 26.941ZM66.5531 27.3876C66.36 27.1462 66.1306 26.929 65.9134 26.7117L65.0443 27.5566V27.5687C65.5392 27.4962 66.0582 27.4238 66.5531 27.3876ZM63.9218 26.4824C64.4046 26.3858 64.8995 26.2893 65.4064 26.2048L64.7547 25.6133C64.2719 25.6978 63.7649 25.8185 63.2821 25.9392C63.4873 26.1203 63.7166 26.2893 63.9218 26.4824ZM34.7609 8.65507C34.4712 8.72749 34.1936 8.82405 33.9039 8.92061C33.7349 9.39133 33.5901 9.8862 33.4694 10.369C33.7228 10.2724 33.9884 10.1638 34.2539 10.0914C34.3988 9.60859 34.5677 9.12579 34.7609 8.65507ZM64.2236 25.1426L63.5115 24.5512L62.7511 25.4926L62.7631 25.5047C63.2338 25.3719 63.7287 25.2512 64.2236 25.1426ZM27.0361 14.4969L27.6879 13.9176L26.9033 13.0002C26.9275 13.5072 26.9758 14.002 27.0361 14.4969ZM12.9022 28.7032C12.7936 28.2204 12.6849 27.7135 12.6005 27.2066L12.009 27.8704C12.1056 28.3653 12.2263 28.8601 12.3711 29.355C12.5401 29.1257 12.7091 28.9084 12.9022 28.7032ZM11.0676 31.1534C10.8745 30.6827 10.7055 30.212 10.5606 29.7292C10.3917 29.9706 10.2106 30.212 10.0658 30.4654C10.2347 30.9482 10.4158 31.419 10.621 31.8656L11.0676 31.1534ZM10.971 29.1498L11.9366 29.8861L11.9487 29.874C11.8038 29.4033 11.6711 28.9205 11.5504 28.4136L10.971 29.1498ZM11.4297 30.5982L11.9366 29.8861L10.971 29.1498C11.1158 29.6447 11.2728 30.1275 11.4297 30.5982ZM13.3488 28.1963C13.5419 27.979 13.7592 27.7739 13.9644 27.5566L13.0953 26.7117C13.1677 27.2186 13.2402 27.7014 13.3488 28.1963ZM15.5697 26.0599L16.2576 25.4926C16.2335 24.9978 16.2335 24.4908 16.2335 23.9839L15.4972 24.5512C15.5093 25.0581 15.5334 25.5651 15.5697 26.0599ZM13.9644 27.5566C13.8799 27.0617 13.8074 26.5548 13.7592 26.0479C13.5298 26.253 13.3126 26.4824 13.0953 26.7117L13.9644 27.5566ZM15.0627 26.5065C15.0024 25.9996 14.9782 25.5047 14.9541 24.9978C14.7248 25.1909 14.4954 25.3719 14.2782 25.5771C14.3265 26.0841 14.3747 26.591 14.4472 27.0859L15.0627 26.5065ZM10.2951 32.457C10.0899 32.0104 9.86058 31.5397 9.67953 31.0689C9.52262 31.3345 9.37778 31.6121 9.22087 31.8897L10.2951 32.4691V32.457ZM7.16898 38.0574L8.37597 38.2264V38.2143C8.02594 37.8764 7.67592 37.5022 7.33796 37.116L7.16898 38.0574ZM8.27941 39.0955L8.37597 38.2264L7.16898 38.0574C7.54315 38.4195 7.91732 38.7696 8.27941 39.0955ZM17.4646 24.5874L17.4767 24.5753C17.4888 24.0805 17.5008 23.5735 17.5371 23.0666L16.8008 23.5614C16.7887 24.0684 16.7887 24.5874 16.8008 25.0823C17.018 24.9253 17.2353 24.7443 17.4646 24.5874ZM32.8417 10.6225C32.9504 10.1397 33.0831 9.65687 33.228 9.162C32.9383 9.27063 32.6486 9.37926 32.3589 9.49996V9.51203C32.2382 10.0069 32.1296 10.5018 32.0451 10.9966L32.8417 10.6225ZM8.2432 39.7593C7.8449 39.4455 7.45866 39.1196 7.09656 38.7575C7.06035 39.0592 7.03621 39.361 7.02414 39.6507C7.42245 39.9886 7.80869 40.3024 8.21906 40.5921C8.21906 40.3145 8.23113 40.0369 8.2432 39.7593ZM9.89679 33.2415C10.0175 32.976 10.1503 32.7225 10.2951 32.4691L9.23294 31.8897C9.42606 32.3484 9.65539 32.807 9.89679 33.2415ZM8.82256 36.1021C8.89498 35.8124 8.99154 35.5469 9.0881 35.2693V35.2572C8.78635 34.8468 8.52081 34.4244 8.25527 33.9899C8.13457 34.2795 8.01387 34.5692 7.92939 34.883C8.21906 35.3055 8.50874 35.7038 8.82256 36.1021ZM8.66565 36.7418C8.33976 36.3676 8.01387 35.9693 7.71213 35.559C7.62764 35.8366 7.56729 36.1383 7.4828 36.428C7.79662 36.8142 8.13457 37.2005 8.49667 37.5626C8.53288 37.285 8.59323 37.0074 8.66565 36.7418ZM9.61918 33.8571C9.36571 33.4226 9.12431 32.976 8.89498 32.5173L8.52081 33.326C8.76221 33.7726 9.03982 34.2192 9.30536 34.6296L9.61918 33.8571ZM8.2432 41.256C7.83283 40.9784 7.39831 40.6887 7 40.3749C7 40.6887 7.02414 41.0025 7.02414 41.3163H7.03621L8.2432 41.256ZM27.6999 13.9055C27.6517 13.3986 27.6275 12.9037 27.6155 12.3967C27.3741 12.5899 27.1206 12.783 26.8913 12.9882L27.6879 13.9176L27.6999 13.9055ZM28.8707 12.952C28.8707 12.4571 28.8707 11.9502 28.8949 11.4432L28.1707 11.9502C28.1707 12.4692 28.1827 12.9761 28.2069 13.471L28.8707 12.952ZM26.5533 14.9676C26.4809 14.4728 26.4085 13.9658 26.3723 13.4589C26.1429 13.652 25.9377 13.8693 25.7325 14.0745C25.7929 14.5814 25.8653 15.0763 25.9619 15.5711C26.1429 15.3539 26.3481 15.1728 26.5533 14.9676ZM25.5032 16.066C25.4067 15.5832 25.3101 15.0763 25.2256 14.5693L24.598 15.2573L25.5032 16.0781V16.066ZM31.7072 9.80171C31.4416 9.92241 31.1761 10.0672 30.9106 10.2121C30.8381 10.719 30.7657 11.2018 30.7174 11.7088C30.9588 11.5639 31.2123 11.4432 31.4537 11.2984C31.514 10.8035 31.5985 10.2966 31.7072 9.80171ZM30.1501 12.0709L29.4863 11.0449C29.438 11.5519 29.4259 12.0588 29.4139 12.5657C29.6553 12.3967 29.8967 12.2157 30.1501 12.0709ZM30.1501 12.0709C30.1864 11.576 30.2226 11.057 30.295 10.55C30.0174 10.707 29.7518 10.8759 29.4863 11.0449L30.1501 12.0709ZM19.9873 21.582C19.8303 21.6665 19.6855 21.751 19.5286 21.8354C19.5165 21.932 19.5045 22.0165 19.4924 22.101C19.6493 21.932 19.8183 21.751 19.9873 21.582ZM22.9685 18.9266C23.1616 18.7697 23.3668 18.6248 23.572 18.4679C23.403 17.9972 23.2703 17.5265 23.1375 17.0316C22.9565 17.2851 22.7513 17.5265 22.5823 17.7799C22.703 18.1662 22.8358 18.5524 22.9685 18.9266ZM22.5099 19.2887C22.3892 18.9749 22.2805 18.6731 22.184 18.3593C22.015 18.6007 21.846 18.8421 21.7012 19.0956C21.7857 19.3128 21.8581 19.5301 21.9426 19.7473C22.1357 19.5904 22.3168 19.4335 22.5099 19.2887ZM24.4893 17.2609C24.3566 16.7781 24.2359 16.2953 24.1272 15.7884L23.56 16.4764C23.6927 16.9713 23.8376 17.4541 23.9824 17.9369L24.4893 17.2609ZM20.9287 20.6526C21.1098 20.4836 21.3029 20.3026 21.496 20.1336C21.4356 19.9887 21.3753 19.8439 21.327 19.6991C21.158 19.9525 21.0132 20.2301 20.8563 20.4957C20.8804 20.556 20.9046 20.6043 20.9287 20.6526ZM24.9239 16.7419C25.117 16.5126 25.298 16.2833 25.5032 16.0781L24.598 15.2694C24.6825 15.7522 24.8032 16.2591 24.9239 16.7419ZM18.1285 22.6803L18.913 22.1855C18.8889 22.4027 18.8648 22.62 18.8527 22.8252C18.5751 23.1511 18.3095 23.477 18.0561 23.8028C18.0681 23.4287 18.0923 23.0545 18.1285 22.6803Z" fill="#696969"/>
<path d="M60.0835 61.0748C59.6731 61.4852 59.0214 61.4852 58.611 61.0748C58.3454 60.8093 58.2609 60.4351 58.3454 60.0972C58.5989 59.8437 58.8524 59.6023 59.0938 59.3368C59.4317 59.2523 59.818 59.3488 60.0835 59.6144C60.4818 60.0127 60.4818 60.6765 60.0835 61.0748ZM55.9435 61.5094L49.0033 54.5691C50.7655 53.3863 52.3225 51.8775 53.5416 50.1395L60.4335 57.0314C59.1179 58.6971 57.6092 60.1937 55.9435 61.5094ZM39.456 56.9469C30.2104 56.9469 22.727 49.4636 22.727 40.218C22.727 30.9845 30.2104 23.489 39.456 23.489C48.6895 23.489 56.1728 30.9845 56.1849 40.218C56.1849 49.4636 48.6895 56.9469 39.456 56.9469ZM23.0529 61.5094C22.208 60.8455 21.3993 60.1213 20.6389 59.3609C19.9027 58.6246 19.2147 57.8522 18.5629 57.0314L25.3945 50.1998C25.9618 50.9844 26.5894 51.7327 27.2653 52.4086C28.0861 53.2294 28.9913 53.9656 29.9569 54.6054L23.0529 61.5094ZM20.3855 61.0748C19.9872 61.4852 19.3354 61.4852 18.925 61.0748C18.5267 60.6765 18.5267 60.0127 18.925 59.6144C19.1905 59.3488 19.5647 59.2523 19.9027 59.3368C20.1561 59.6023 20.4096 59.8437 20.6631 60.0972C20.7476 60.4351 20.6631 60.8093 20.3855 61.0748ZM22.9684 19.5663L29.5345 26.1324C27.7964 27.3514 26.2877 28.8964 25.1048 30.6586L18.5026 24.0563C19.8061 22.3907 21.3028 20.8819 22.9684 19.5663ZM18.925 21.3889C18.5267 20.9906 18.5267 20.3267 18.925 19.9284C19.3354 19.518 19.9872 19.518 20.3855 19.9284C20.6631 20.194 20.7476 20.5681 20.6631 20.9061C20.4096 21.1475 20.1561 21.4009 19.9027 21.6665C19.5647 21.751 19.1905 21.6544 18.925 21.3889ZM56.0401 19.5663C56.8488 20.206 57.6333 20.9061 58.3696 21.6423C59.13 22.4028 59.8421 23.2114 60.506 24.0563L53.8313 30.731C53.1916 29.7654 52.4553 28.8602 51.6345 28.0394C50.9586 27.3514 50.2224 26.7238 49.4257 26.1686L56.0401 19.5663ZM58.611 19.9284C59.0214 19.518 59.6731 19.518 60.0835 19.9284C60.4818 20.3267 60.4818 20.9906 60.0835 21.3889C59.818 21.6544 59.4317 21.751 59.0938 21.6665C58.8524 21.4009 58.5989 21.1475 58.3454 20.9061C58.2609 20.5681 58.3454 20.194 58.611 19.9284ZM59.9266 58.4436C64.1269 53.6518 66.6858 47.3755 66.6858 40.4956C66.6858 33.6278 64.1269 27.3514 59.9266 22.5597C60.2283 22.4631 60.518 22.3062 60.7474 22.0648C61.5319 21.2923 61.5319 20.025 60.7474 19.2525C59.9749 18.468 58.7196 18.468 57.9351 19.2525C57.7057 19.4939 57.5367 19.7715 57.4402 20.0853C52.6605 15.8729 46.3721 13.3141 39.5043 13.3141C32.6244 13.3141 26.348 15.8729 21.5563 20.0853C21.4718 19.7715 21.3028 19.4939 21.0614 19.2525C20.2889 18.468 19.0336 18.468 18.2491 19.2525C17.4766 20.025 17.4766 21.2923 18.2491 22.0648C18.4905 22.3062 18.7802 22.4631 19.0819 22.5597C14.8695 27.3514 12.3228 33.6278 12.3228 40.4956C12.3228 47.3755 14.8695 53.6518 19.0819 58.4436C18.7802 58.5281 18.4905 58.6971 18.2491 58.9385C17.4766 59.7109 17.4766 60.9783 18.2491 61.7508C19.0336 62.5232 20.2889 62.5232 21.0614 61.7508C21.3028 61.5094 21.4718 61.2197 21.5683 60.9179C26.348 65.1303 32.6244 67.6892 39.5043 67.6892C46.3721 67.6892 52.6605 65.1303 57.4402 60.9179C57.5367 61.2197 57.7057 61.5094 57.9351 61.7508C58.7196 62.5232 59.9749 62.5232 60.7474 61.7508C61.5319 60.9783 61.5319 59.7109 60.7474 58.9385C60.518 58.6971 60.2283 58.5281 59.9266 58.4436Z" fill="#696969"/>
</svg>
