<svg width="80" height="80" viewBox="0 0 80 80" fill="none" xmlns="http://www.w3.org/2000/svg">
<path d="M17.0737 14.3535C16.4103 13.3888 17.0309 12.0002 18.0998 12.0002H31.2852C32.1008 12.0105 32.8581 12.4249 33.3068 13.1064L39.1366 21.1715L30.5964 33.5824L17.0737 14.3535ZM40.218 68.5825C35.6554 68.5825 31.2797 66.77 28.0529 63.5438C24.826 60.3175 23.0141 55.9418 23.0141 51.3787C23.0141 46.8155 24.8266 42.4403 28.0529 39.2135C31.2791 35.9867 35.6549 34.1748 40.218 34.1748C44.7811 34.1748 49.1563 35.9873 52.3831 39.2135C55.6099 42.4398 57.4218 46.8155 57.4218 51.3787C57.4218 55.9418 55.6094 60.317 52.3831 63.5438C49.1568 66.7706 44.7811 68.5825 40.218 68.5825ZM40.218 56.5896L43.7815 58.4633C44.1886 58.6596 44.6712 58.6163 45.0367 58.3506C45.4027 58.0849 45.593 57.6396 45.5326 57.1918L44.8503 53.2228L47.738 50.4089C48.0504 50.0819 48.1584 49.6096 48.0183 49.1797C47.8786 48.7494 47.5134 48.431 47.0686 48.3504L43.0811 47.7727L41.2996 44.1598C41.0853 43.7626 40.6696 43.5153 40.2178 43.5153C39.7661 43.5153 39.3508 43.763 39.1366 44.1603L37.355 47.7732L33.3676 48.3509C32.9227 48.4314 32.5571 48.7494 32.4174 49.1797C32.2773 49.6096 32.3853 50.0819 32.6977 50.4089L35.5854 53.2228L34.9035 57.1918C34.8431 57.6397 35.033 58.085 35.399 58.3506C35.7645 58.6164 36.2471 58.6596 36.6542 58.4633L40.218 56.5896ZM40.218 32.2446C43.4584 32.2412 46.6577 32.9719 49.5754 34.3827L63.3621 14.3533C64.0255 13.3885 63.405 12 62.3361 12H49.1506C48.3351 12.0103 47.5778 12.4247 47.129 13.1061L33.1328 33.4428C35.4098 32.6482 37.8046 32.2432 40.2166 32.2445L40.218 32.2446Z" fill="#696969"/>
</svg>
