<svg width="80" height="80" viewBox="0 0 80 80" fill="none" xmlns="http://www.w3.org/2000/svg">
<path d="M29.7213 49.7271C34.9964 59.6967 56.5001 50.8448 56.5001 39.6683C56.5001 32.56 51.0012 31.7555 48.6317 31.3975C44.6084 30.7714 44.7425 25.8093 38.707 25.8093C31.7329 25.8093 34.0575 32.292 30.9728 33.7669C29.2738 34.5715 24.5351 34.3033 24.5351 40.0256C24.5351 44.8986 26.7704 44.1389 29.721 49.7271H29.7213ZM42.7307 43.4236C39.646 43.4236 37.1425 40.92 37.1425 37.8353C37.1425 34.7506 39.646 32.2471 42.7307 32.2471C45.8154 32.2471 48.319 34.7506 48.319 37.8353C48.319 40.92 45.8154 43.4236 42.7307 43.4236ZM40.4954 66.4471C25.8768 66.4471 13.6719 54.2422 13.6719 39.6236C13.6719 25.0049 25.8768 12.8 40.4954 12.8C55.1141 12.8 67.319 25.0049 67.319 39.6236C67.319 54.2422 55.1141 66.4471 40.4954 66.4471ZM7.18955 66.4471C4.73105 66.4471 4.99912 66.4471 4.95426 64.2118V36.2706C4.99916 33.0518 1.64618 34.1246 1.60132 22.8589V15.0353C1.64622 12.8 1.64622 12.8 2.71897 12.8C3.79171 12.8 3.79171 12.8 3.83661 15.0353V25.0942C3.79171 26.3459 6.07191 26.3459 6.07191 25.0942V15.0353C6.07191 12.8 6.07191 12.8 7.18955 12.8C8.3521 12.8 8.3521 12.8 8.3072 15.0353V25.0942C8.3521 26.3459 10.4976 26.3459 10.5425 25.0942V15.0353C10.4976 12.8 10.4976 12.8 11.6601 12.8C12.7778 12.8 12.7778 12.8 12.7778 15.0353V22.8589C12.7778 34.1246 9.42485 33.0518 9.42485 36.2706V64.2118C9.42485 66.4471 9.15666 66.4471 7.18955 66.4471ZM75.366 66.4471C73.1307 66.4471 73.1307 66.4471 73.1307 64.2118V44.9883C73.1307 41.9484 70.001 46.5531 70.001 26.6589C70.001 13.4703 77.6013 9.98358 77.6013 15.08V64.2118C77.6013 66.4471 77.6013 66.4471 75.366 66.4471Z" fill="#696969"/>
</svg>
