<svg width="80" height="80" viewBox="0 0 80 80" fill="none" xmlns="http://www.w3.org/2000/svg">
<path d="M42.3462 42.8354C46.0302 42.8354 49.03 39.8357 49.03 36.1516C49.03 32.458 46.0302 29.4583 42.3462 29.4583C38.6526 29.4583 35.6528 32.458 35.6528 36.1516C35.6533 39.8357 38.653 42.8354 42.3462 42.8354Z" fill="#696969"/>
<path d="M67.2541 16.9811C67.2164 16.4655 66.9728 15.9968 66.5602 15.6406C66.2133 15.3594 65.7822 15.2 65.3323 15.2L65.2009 15.2092L18.1617 19.1748C17.6461 19.2125 17.1774 19.456 16.8401 19.8498C16.5028 20.2437 16.3434 20.7404 16.3806 21.2652L16.5401 23.1777H12.3217C11.2625 23.1681 10.3999 24.0306 10.3999 25.0995V62.5213C10.3999 63.5805 11.2624 64.4522 12.3308 64.4522H59.5114C60.5706 64.4522 61.4423 63.5897 61.4423 62.5213V56.9437L68.6227 56.3344C69.1383 56.2967 69.5978 56.0624 69.9351 55.669C70.2724 55.2752 70.4318 54.7785 70.3946 54.2537L67.2541 16.9811ZM57.5798 27.0303V42.5722L49.1899 47.1188C47.1368 48.2345 44.8218 48.825 42.4965 48.825C39.7499 48.825 37.0972 48.0282 34.8005 46.5282C29.4011 42.9941 22.4737 43.0787 17.1673 46.7438L14.2521 48.7501L14.2517 27.0298L57.5798 27.0303ZM59.5111 23.1681H20.4201L20.3921 22.8588L63.5606 19.2121L66.3728 52.6592L61.4326 53.0811V25.0999C61.4326 24.031 60.57 23.1686 59.5108 23.1686L59.5111 23.1681Z" fill="#696969"/>
</svg>
