<svg width="80" height="80" viewBox="0 0 80 80" fill="none" xmlns="http://www.w3.org/2000/svg">
<path d="M63.1232 29.9453C63.8016 29.9453 64.3519 29.3946 64.3519 28.7166C64.3519 28.0386 63.8011 27.488 63.1232 27.488H56.854C56.3646 25.0819 54.4673 23.1873 52.0639 22.6983V16.4286C52.0639 15.7502 51.5131 15.2 50.8352 15.2C50.1567 15.2 49.6065 15.7507 49.6065 16.4286V22.5726H44.6912V16.4286C44.6912 15.7502 44.1405 15.2 43.4625 15.2C42.784 15.2 42.2333 15.7507 42.2333 16.4286V22.5726H37.318L37.3185 16.4286C37.3185 15.7502 36.7678 15.2 36.0898 15.2C35.4113 15.2 34.8606 15.7507 34.8606 16.4286V22.5726H29.9453V16.4286C29.9453 15.7502 29.3946 15.2 28.7166 15.2C28.0386 15.2 27.488 15.7507 27.488 16.4286V22.6978C25.0846 23.1873 23.1873 25.0819 22.6983 27.488H16.4286C15.7506 27.488 15.2 28.0387 15.2 28.7166C15.2 29.3951 15.7507 29.9453 16.4286 29.9453H22.5726V34.8606H16.4286C15.7502 34.8606 15.2 35.4114 15.2 36.0893C15.2 36.7678 15.7507 37.318 16.4286 37.318H22.5726V42.2333H16.4286C15.7502 42.2333 15.2 42.784 15.2 43.462C15.2 44.1404 15.7507 44.6907 16.4286 44.6907H22.5726V49.606L16.4286 49.6064C15.7502 49.6064 15.2 50.1572 15.2 50.8351C15.2 51.5136 15.7507 52.0638 16.4286 52.0638H22.6978C23.1868 54.4699 25.0841 56.3645 27.4875 56.8535L27.4879 63.1231C27.4879 63.8016 28.0387 64.3518 28.7166 64.3518C29.3951 64.3518 29.9453 63.8011 29.9453 63.1231V56.9791H34.8606V63.1231C34.8606 63.8016 35.4113 64.3518 36.0893 64.3518C36.7678 64.3518 37.318 63.8011 37.318 63.1231V56.9791H42.2333V63.1231C42.2333 63.8016 42.784 64.3518 43.462 64.3518C44.1404 64.3518 44.6907 63.8011 44.6907 63.1231V56.9791H49.606L49.6064 63.1231C49.6064 63.8016 50.1572 64.3518 50.8351 64.3518C51.5136 64.3518 52.0638 63.8011 52.0638 63.1231V56.854C54.4672 56.365 56.3645 54.4677 56.8535 52.0643L63.1231 52.0638C63.8016 52.0638 64.3518 51.5131 64.3518 50.8351C64.3518 50.1567 63.8011 49.6065 63.1231 49.6065H56.9791V44.6911H63.1231C63.8016 44.6911 64.3518 44.1404 64.3518 43.4625C64.3518 42.784 63.8011 42.2338 63.1231 42.2338H56.9791V37.3185H63.1231C63.8016 37.3185 64.3518 36.7677 64.3518 36.0898C64.3518 35.4113 63.8011 34.8611 63.1231 34.8611H56.9791V29.9458L63.1232 29.9453Z" fill="#696969"/>
</svg>
