<?xml version="1.0" encoding="UTF-8"?>
<!DOCTYPE svg PUBLIC "-//W3C//DTD SVG 1.1//EN" "http://www.w3.org/Graphics/SVG/1.1/DTD/svg11.dtd">
<!-- Creator: CorelDRAW X8 -->
<svg xmlns="http://www.w3.org/2000/svg" xml:space="preserve" width="6.7734mm" height="6.7733mm" version="1.1" style="shape-rendering:geometricPrecision; text-rendering:geometricPrecision; image-rendering:optimizeQuality; fill-rule:evenodd; clip-rule:evenodd"
viewBox="0 0 677 677"
 xmlns:xlink="http://www.w3.org/1999/xlink">
 <defs>
  <style type="text/css">
   <![CDATA[
    .fil0 {fill:none}
    .fil1 {fill:dimgray;fill-rule:nonzero}
   ]]>
  </style>
 </defs>
 <g id="Layer_x0020_1">
  <metadata id="CorelCorpID_0Corel-Layer"/>
  <rect class="fil0" width="677" height="677"/>
 </g>
 <g id="Layer_x0020_1_0">
  <metadata id="CorelCorpID_1Corel-Layer"/>
  <path class="fil1" d="M569 260c0,0 0,0 -1,0l-116 0 0 -45 117 0c12,0 22,10 22,22 0,12 -10,22 -22,23zm-69 107l-48 0 0 -92 48 0 0 92zm-63 116c0,6 -5,11 -11,11l-236 0c-6,0 -11,-5 -11,-11l0 -23c0,-6 5,-11 11,-11l236 0c6,0 11,5 11,11l0 23zm-286 -223c-6,0 -11,-3 -15,-7 -5,-4 -7,-10 -7,-16 0,-12 10,-22 22,-22l13 0 0 45 -13 0zm28 -62c0,-14 10,-24 23,-24l15 0 0 150c0,4 4,8 8,8 4,0 7,-4 7,-8l0 -150 38 0 0 92c0,4 3,7 7,7 5,0 8,-3 8,-7l0 -92 38 0 0 34c0,4 3,7 7,7 4,0 8,-3 8,-7l0 -34 108 0c-6,7 -9,15 -9,24l0 176 0 63c-3,-2 -7,-3 -11,-3l-236 0c-4,0 -8,1 -11,3l0 -239zm321 0l0 2 -48 0 0 -2c0,-7 3,-13 7,-17 5,-5 11,-7 17,-7l0 0c13,0 24,11 24,24zm69 2l-54 0 0 -2c0,-21 -16,-37 -35,-39 -1,0 -1,0 -2,0l-2 0c0,0 0,0 0,0 0,0 0,0 0,0l-274 0c-21,0 -38,17 -38,39l0 2 -13 0c-20,0 -37,17 -37,37 0,10 4,19 11,27 7,7 16,11 26,11l13 0 0 185 0 23c0,14 11,26 26,26l236 0c15,0 26,-12 26,-26l0 -23 0 -78 55 0c4,0 8,-4 8,-8l0 -99 54 0c0,0 0,0 1,0l0 0c20,-1 36,-17 36,-38 0,-20 -16,-37 -37,-37z"/>
 </g>
</svg>
