<?xml version="1.0" encoding="UTF-8"?>
<!DOCTYPE svg PUBLIC "-//W3C//DTD SVG 1.1//EN" "http://www.w3.org/Graphics/SVG/1.1/DTD/svg11.dtd">
<!-- Creator: CorelDRAW X8 -->
<svg xmlns="http://www.w3.org/2000/svg" xml:space="preserve" width="6.7734mm" height="6.7733mm" version="1.1" style="shape-rendering:geometricPrecision; text-rendering:geometricPrecision; image-rendering:optimizeQuality; fill-rule:evenodd; clip-rule:evenodd"
viewBox="0 0 677 677"
 xmlns:xlink="http://www.w3.org/1999/xlink">
 <defs>
  <style type="text/css">
   <![CDATA[
    .fil1 {fill:none}
    .fil0 {fill:dimgray;fill-rule:nonzero}
   ]]>
  </style>
 </defs>
 <g id="Layer_x0020_1">
  <metadata id="CorelCorpID_0Corel-Layer"/>
  <g id="_2167160448752">
   <path class="fil0" d="M513 483l-11 0 0 0c-7,0 -13,-5 -13,-12l0 -272 0 0c0,-2 1,-4 2,-6l0 0c1,-2 4,-3 6,-3l0 0c2,0 4,1 6,2l0 0c28,18 37,53 37,84l0 0c0,2 0,5 0,8l0 0c-1,19 -5,36 -8,50l0 0c-2,7 -3,12 -4,16l0 0c-1,2 -1,4 -2,5l0 0c0,1 0,1 0,2l0 0c0,0 0,0 0,0l0 0c0,7 0,102 0,114l0 0c0,7 -5,12 -13,12l0 0zm5 -126l0 -1 4 1 -4 -1 0 0c0,-1 1,-2 1,-3l0 0c2,-9 11,-38 13,-69l0 0c0,-3 0,-6 0,-8l0 0c0,-29 -9,-62 -33,-78l0 0c-1,0 -2,0 -2,0l0 0c0,0 0,0 0,1l0 272c0,2 2,5 5,5l11 0 0 0c3,0 5,-2 5,-5l0 0c0,-6 0,-35 0,-62l0 0c0,-27 0,-52 0,-52l0 0z"/>
   <path class="fil0" d="M178 483l-12 0c-7,0 -12,-6 -12,-13l0 -3c0,-13 2,-62 2,-104l0 0c0,-23 -1,-45 -2,-55l0 0c0,-1 0,-1 0,-1l0 0c-1,-1 -1,-3 -3,-5l0 0c-2,-2 -4,-5 -7,-8l0 0c-5,-6 -10,-15 -11,-28l0 0c0,0 0,-1 0,-1l0 -65c0,-5 5,-10 11,-10l0 0c6,0 10,5 10,10l0 55c0,1 1,1 1,1l6 0c1,0 1,0 1,-1l0 -55c0,-5 5,-10 11,-10l0 0c6,0 10,5 10,10l0 55c0,1 1,1 1,1l5 0c1,0 1,0 1,-1l0 0 0 -5 0 -49c0,-5 5,-10 11,-10l0 8c-2,0 -3,1 -3,2l0 54c0,5 -4,9 -9,9l-5 0c-5,0 -9,-4 -9,-9l0 -55c0,-1 -1,-2 -2,-2l0 0c-2,0 -3,1 -3,2l0 55c0,5 -4,9 -9,9l-6 0c-5,0 -9,-4 -9,-9l0 -55c0,-1 -1,-2 -2,-2l0 0c-2,0 -3,1 -3,2l0 0 0 65c0,0 0,0 0,0l0 0 0 1c1,17 10,24 16,31l0 0c2,2 4,5 4,8l0 0c0,1 0,1 0,1l0 0c2,12 3,33 3,57l0 0c0,42 -2,91 -3,104l0 3c0,3 3,6 5,6l12 0c3,0 5,-3 5,-6l0 -3c0,-13 -2,-62 -2,-104l0 0c0,-24 0,-45 2,-57l0 0c0,0 0,0 0,-1l0 0c1,-3 3,-5 5,-8l0 0c1,-2 4,-5 6,-7l0 0c4,-6 8,-12 9,-23l0 0 0 -1c0,0 0,0 0,0l0 -65c0,-1 -1,-2 -2,-2l0 -8c5,0 10,5 10,10l0 65c0,1 0,1 0,2l0 0c-2,18 -13,28 -17,34l0 0c-2,2 -3,4 -3,5l0 0c0,0 0,0 0,1l0 0c-2,10 -3,32 -3,55l0 0c0,42 2,91 3,104l0 0 0 0 0 3c0,7 -6,13 -13,13l0 0 0 0z"/>
   <path class="fil0" d="M269 337c0,-21 8,-40 21,-53l0 0c14,-14 33,-22 53,-22l0 0c2,0 4,2 4,4l0 0c0,2 -2,4 -4,4l0 0c-18,0 -35,7 -47,19l0 0c-12,12 -20,29 -20,48l0 0c0,2 -1,4 -4,4l0 0c-2,0 -3,-2 -3,-4l0 0z"/>
   <path class="fil0" d="M212 337c0,-73 59,-131 131,-131l0 7c-34,0 -65,14 -87,36l0 0c-22,23 -36,54 -36,88l0 0c0,34 14,65 36,87l0 0c22,22 53,36 87,36l0 0c34,0 65,-14 88,-36l0 0c22,-22 36,-53 36,-87l0 0c0,-34 -14,-65 -36,-88l0 0c-23,-22 -54,-36 -88,-36l0 -7c73,0 131,58 131,131l0 0c0,72 -58,131 -131,131l0 0c-72,0 -131,-59 -131,-131l0 0zm131 96l0 4c-55,0 -100,-45 -100,-100l0 0c0,-56 45,-101 100,-101l0 0c56,0 101,45 101,101l0 0c0,55 -45,100 -101,100l0 -4zm-92 -96c0,51 41,92 92,92l0 0c51,0 93,-41 93,-92l0 0c0,-51 -42,-93 -93,-93l0 0c-51,0 -92,42 -92,93l0 0z"/>
  </g>
  <rect class="fil1" width="677" height="677"/>
 </g>
</svg>
