<svg width="233" height="104" viewBox="0 0 233 104" fill="none" xmlns="http://www.w3.org/2000/svg">
<path fill-rule="evenodd" clip-rule="evenodd" d="M15.718 82.8159H0.836707C0.539081 82.8159 0.241455 82.5182 0.241455 81.9228V30.1251C0.241455 29.8274 0.241455 29.5297 0.539081 29.2321C0.539081 30.1251 0.836707 30.7205 1.13433 31.3159C1.72959 33.3997 3.21772 34.8881 4.40822 36.3766C5.3011 37.5673 6.4916 38.7581 7.38448 39.6511C8.27736 40.5442 11.5512 42.628 12.7418 43.2234C13.9323 43.5211 15.1228 43.8188 16.6109 44.1165V52.154C16.6109 52.4517 16.6109 52.4517 17.2061 52.4517H22.2658C25.8373 52.4517 27.6231 50.9633 27.6231 47.6887C27.6231 45.0095 26.4326 43.5211 24.0515 43.2234C27.3254 41.7349 29.7064 39.0558 29.7064 35.4835C29.7064 33.6974 29.4088 33.3997 29.4088 32.2089H33.278C33.278 33.3997 33.278 33.9951 33.278 35.1858C32.9803 36.6743 32.3851 36.3766 31.4922 36.3766C31.1946 36.6743 30.8969 36.9719 30.8969 37.2696C31.7898 37.865 36.2542 42.628 37.1471 43.2234C37.4447 42.9257 37.1471 42.9257 37.7423 42.9257C37.7423 41.7349 36.8495 42.3303 36.5518 41.1396C37.7423 40.8419 38.3376 39.0558 38.3376 37.5673C38.3376 36.9719 38.3376 35.4835 38.3376 33.6974C38.6352 33.9951 38.6352 33.9951 38.9328 34.2928C39.8257 35.1858 40.421 36.0789 41.3139 36.9719C41.0162 36.9719 41.0162 36.9719 41.0162 37.2696L41.9091 37.865C43.3972 40.5442 44.2901 43.8188 44.2901 47.6887C44.2901 53.0471 42.5044 57.5124 38.9328 61.0847C35.3613 64.3592 30.0041 66.1454 23.1587 66.1454H17.2061C16.6109 66.1454 16.6109 66.443 16.6109 66.7407V81.9228C16.6109 82.5182 16.3133 82.8159 15.718 82.8159ZM68.1002 83.7089C61.2548 83.7089 55.5999 81.6251 51.7308 77.7552C47.8616 74.1829 45.7782 68.5269 45.7782 60.787V41.7349C47.2664 43.2234 46.9688 43.5211 48.1593 42.628C47.564 42.0326 46.9688 41.7349 46.6711 41.1396C49.0521 40.8419 49.0521 35.4835 48.7545 33.9951C48.7545 33.3997 48.4569 31.3159 48.4569 29.2321H55.0047C55.5999 29.8274 56.4928 30.4228 57.088 31.0182L57.9809 31.9112C59.1714 32.5066 59.7667 33.102 60.9572 33.6974C61.5524 33.9951 61.8501 33.9951 62.4453 33.9951V62.2754C62.4453 66.7407 64.2311 69.1222 68.1002 69.1222C71.6717 69.1222 73.7551 66.7407 73.7551 62.2754V30.1251C73.7551 29.5297 74.0527 29.2321 74.3503 29.2321H74.648V29.5297C75.2432 30.7205 76.1361 32.2089 76.7314 33.3997C77.029 33.6974 77.3266 34.2928 77.6242 34.5904C78.2195 35.4835 79.41 36.6743 80.0052 37.2696L84.4696 41.4373C85.3625 42.3303 87.4459 43.2234 88.6364 43.2234C89.2317 43.2234 89.8269 43.2234 90.1245 43.2234V60.787C90.1245 68.5269 88.3388 74.1829 84.4696 77.7552C80.3029 81.6251 74.9456 83.7089 68.1002 83.7089ZM90.1245 37.2696V37.5673L89.8269 37.2696H90.1245ZM93.9937 81.9228V38.1627C94.5889 38.7581 95.4818 39.6511 96.6723 39.6511C100.244 39.6511 102.922 35.4835 100.244 31.9112C100.244 31.9112 100.244 31.6136 99.9462 31.6136C99.6486 30.7205 99.6486 30.7205 98.7557 30.4228C98.4581 29.8274 98.1604 29.5297 97.8628 29.2321H108.875C109.47 29.2321 110.065 29.5297 110.363 30.1251L122.863 56.3217H123.459V30.1251C123.459 29.5297 123.756 29.2321 124.054 29.2321H137.447C138.042 29.2321 138.34 29.5297 138.34 30.1251V81.9228C138.34 82.5182 138.042 82.8159 137.447 82.8159H123.459C122.566 82.8159 122.268 82.5182 121.971 81.9228L109.47 55.4286H108.875V81.9228C108.875 82.5182 108.577 82.8159 107.982 82.8159H94.8866C94.2913 82.8159 93.9937 82.5182 93.9937 81.9228ZM142.209 81.9228V30.1251C142.209 29.5297 142.507 29.2321 142.804 29.2321H178.817C179.115 29.2321 179.412 29.5297 179.412 30.1251V42.0326C179.412 42.628 179.115 42.9257 178.817 42.9257H158.876C158.579 42.9257 158.579 42.9257 158.579 43.5211V48.5818C158.579 48.8795 158.579 49.1771 158.876 49.1771H174.65C175.246 49.1771 175.543 49.1771 175.543 49.7725V61.68C175.543 62.2754 175.246 62.2754 174.65 62.2754H158.876C158.579 62.2754 158.579 62.5731 158.579 62.8708V68.5269C158.579 68.8246 158.579 69.1222 158.876 69.1222H178.817C179.115 69.1222 179.412 69.4199 179.412 69.7176V81.9228C179.412 82.5182 179.115 82.8159 178.817 82.8159H142.804C142.507 82.8159 142.209 82.5182 142.209 81.9228Z" fill="#29B99A"/>
<path fill-rule="evenodd" clip-rule="evenodd" d="M80.0052 53.3447C79.7076 55.1309 80.8981 54.2378 80.8981 56.0239C78.8147 56.0239 76.4337 55.1309 73.755 54.8332V62.2754C73.755 66.7407 71.6717 69.1222 68.1001 69.1222C66.3144 69.1222 64.8263 68.5268 63.9334 67.6337C63.9334 70.3129 63.9334 73.2898 63.9334 76.2667H62.4452C61.85 74.4806 62.4452 70.9083 62.4452 69.1222L62.7429 68.8245C63.3381 68.8245 63.0405 68.8245 63.6358 68.5268C62.4452 67.6337 59.1714 68.5268 57.3856 68.2291C57.3856 64.9546 57.3856 65.8476 56.7904 65.2522L56.4927 64.9546C56.4927 64.6569 56.1951 64.6569 56.1951 64.6569H52.6236C52.326 62.573 52.326 59.8939 51.1355 58.1077L50.8378 57.5124L50.5402 57.2147C49.0521 59.8939 49.0521 61.3823 49.0521 64.6569H46.0758C46.6711 70.3129 48.4568 74.7783 51.7307 77.7551C52.0283 78.3505 52.6236 78.6482 52.9212 78.9459H83.2791C83.5767 78.6482 83.8743 78.3505 84.4696 77.7551C88.3387 74.1829 90.1245 68.5268 90.1245 60.7869V52.4517C87.7435 52.4517 85.0648 52.4517 84.172 53.047C82.3862 53.6424 81.7909 53.3447 80.0052 53.3447ZM32.6826 64.6569H30.3016C30.3016 63.1684 30.004 64.0615 30.8969 63.1684C29.4088 62.2754 30.004 63.1684 28.8135 59.5962C28.2183 62.2754 27.9206 62.573 26.4325 63.1684C27.3254 64.0615 27.3254 63.4661 27.3254 65.2522C25.8372 65.2522 25.5396 65.5499 24.6467 64.6569C24.3491 66.1453 24.0515 65.2522 23.4562 66.1453C27.0277 66.1453 30.004 65.5499 32.6826 64.6569ZM16.6108 71.206C16.3132 71.206 16.0156 71.206 15.4203 71.206C15.1227 69.4199 14.8251 67.3361 16.6108 67.3361V66.7407C16.6108 66.443 16.6108 66.1453 17.2061 66.1453C16.6108 65.2522 16.6108 64.6569 17.8013 62.8707V63.1684C17.8013 63.1684 17.8013 63.1684 17.8013 63.4661V63.7638C18.099 64.0615 17.8013 64.0615 18.099 64.6569C19.2895 64.6569 19.2895 64.6569 19.5871 63.4661C19.8847 62.8707 20.1823 62.2754 20.1823 61.68L19.2895 61.3823C14.2298 59.5962 14.2298 63.7638 12.4441 62.8707C13.3369 61.0846 16.0156 61.68 17.5037 59.8939C15.718 60.7869 14.2298 61.3823 12.1464 61.3823C12.1464 61.0846 11.8488 61.0846 11.8488 61.0846L11.5512 57.81L9.46781 57.5124C9.76543 58.1077 9.76543 58.1077 10.0631 58.7031C8.57493 59.8939 9.76543 61.0846 9.46781 62.8707C4.11054 64.6569 3.81291 62.573 3.21766 66.7407C3.21766 68.2291 2.92003 68.2291 2.32478 69.1222C6.19392 67.9314 3.81291 65.5499 5.89629 64.6569V67.9314C4.40816 69.1222 4.70579 67.6337 4.11054 70.3129C4.11054 71.206 4.11054 70.9083 3.51529 71.5037C3.21766 71.8014 3.21766 71.8014 2.92003 72.0991C2.62241 72.0991 2.62241 72.0991 2.02716 72.0991V75.969C2.02716 75.969 2.02716 75.969 1.72953 76.2667H1.13428V78.9459H16.6108V71.206ZM93.9936 78.9459H108.875V55.4285H109.47L115.72 68.8245C115.72 66.1453 115.72 63.4661 115.72 62.573C115.72 61.3823 116.018 60.7869 116.018 59.8939C116.018 58.7031 116.018 57.5124 116.018 56.3216C112.744 54.8332 111.554 54.8332 107.684 54.8332C103.22 54.8332 100.541 56.0239 98.7556 56.0239C99.0533 54.5355 100.244 55.1309 99.9461 53.3447H96.9699C95.7794 53.3447 96.077 52.7493 93.9936 52.7493V78.9459ZM120.482 78.9459H138.34V58.1077C138.042 58.4054 137.447 58.4054 136.852 58.7031C136.852 59.8939 137.149 61.0846 136.554 61.68C135.364 61.0846 137.149 59.8939 135.364 59.2985C135.066 59.8939 135.066 60.1915 135.066 61.0846C135.066 61.9777 134.768 61.9777 134.173 62.573C134.471 63.7638 135.066 66.7407 134.173 67.9314C133.876 67.6337 133.876 66.7407 133.876 65.8476C133.578 60.4892 132.387 62.573 131.792 61.0846C131.197 58.4054 131.495 60.4892 130.602 57.81C129.709 56.3216 129.411 57.81 128.221 55.1309L127.03 56.6193C125.84 57.81 125.542 56.6193 125.542 59.5962C125.542 60.4892 125.542 59.2985 124.649 59.0008C124.351 59.8939 124.351 60.1915 124.351 61.0846C123.459 63.1684 122.566 59.2985 122.268 67.9314C121.078 68.5268 121.673 67.6337 121.078 68.5268C120.482 70.0152 120.185 72.0991 119.589 73.2898H117.804L120.482 78.9459ZM142.209 78.9459H179.412V76.2667H178.519L179.412 75.6713V69.7176C179.412 69.4199 179.115 69.1222 178.817 69.1222H158.876C158.578 69.1222 158.578 68.8245 158.578 68.5268V64.0615C155.602 65.8476 154.709 68.5268 157.388 72.0991C158.578 73.2898 157.983 73.5875 156.793 74.4806C157.388 75.3736 157.686 74.7783 157.388 76.2667H155.602C154.412 73.2898 155.007 74.4806 155.602 73.5875L152.924 73.2898C152.328 71.8014 152.031 70.0152 151.138 68.8245C150.245 67.0384 149.947 69.4199 149.947 65.2522C149.947 64.3592 150.245 63.7638 149.65 63.1684C148.459 63.7638 149.65 63.1684 148.757 64.3592C148.162 63.1684 149.054 62.8707 147.864 62.2754C147.566 62.2754 147.566 62.2754 147.566 62.2754C147.269 61.0846 147.566 61.0846 146.971 59.8939C146.376 61.3823 146.376 60.4892 146.376 62.2754C146.078 62.8707 145.781 61.0846 145.185 64.3592V64.0615C145.185 64.3592 144.888 63.4661 144.292 63.1684C143.4 64.3592 144.59 66.7407 143.697 67.9314C143.102 67.0384 143.102 63.7638 143.697 62.573C143.697 62.573 143.697 62.2754 143.697 62.573L142.804 61.0846C142.804 60.1915 143.102 59.8939 142.507 59.2985L142.209 59.5962V78.9459ZM173.46 62.2754C172.567 62.2754 171.972 61.9777 171.079 61.9777C168.4 61.68 165.126 61.68 162.448 62.2754H173.46Z" fill="#E01C66"/>
<path fill-rule="evenodd" clip-rule="evenodd" d="M7.38452 69.1222C9.4679 70.313 8.2774 70.0153 9.4679 71.206H14.5275L14.2299 67.6338C13.6347 67.3361 10.3608 67.0384 9.76553 67.0384C8.57503 67.0384 7.68215 68.5268 7.38452 69.1222Z" fill="#E01C66"/>
<path fill-rule="evenodd" clip-rule="evenodd" d="M0.241455 77.7551H16.6109V81.9228C16.6109 82.5181 16.3133 82.8158 15.718 82.8158H0.836707C0.539081 82.8158 0.241455 82.5181 0.241455 81.9228V77.7551ZM51.7308 77.7551H84.4696C80.3029 81.6251 74.9456 83.7089 68.1002 83.7089C61.2548 83.7089 55.5999 81.6251 51.7308 77.7551ZM93.9937 77.7551H108.875V81.9228C108.875 82.5181 108.577 82.8158 107.982 82.8158H94.8866C94.2913 82.8158 93.9937 82.5181 93.9937 81.9228V77.7551ZM120.185 77.7551H138.34V81.9228C138.34 82.5181 138.042 82.8158 137.447 82.8158H123.459C122.566 82.8158 122.268 82.5181 121.971 81.9228L120.185 77.7551ZM142.209 77.7551H179.412V81.9228C179.412 82.5181 179.115 82.8158 178.817 82.8158H142.804C142.507 82.8158 142.209 82.5181 142.209 81.9228V77.7551Z" fill="#E01C66"/>
<path fill-rule="evenodd" clip-rule="evenodd" d="M50.8379 52.154H62.4453V62.2754C62.4453 66.7407 64.2311 69.1222 68.1002 69.1222C71.6717 69.1222 73.7551 66.7407 73.7551 62.2754V52.154H90.1245V60.7869C90.1245 68.5268 88.3388 74.1829 84.4696 77.7551C80.3029 81.6251 74.9456 83.7089 68.1002 83.7089C61.2548 83.7089 55.5999 81.6251 51.7308 77.7551C51.4331 77.4575 51.1355 77.1598 50.8379 76.8621V52.154ZM93.9937 52.154H120.78L122.863 56.3216H123.459V52.154H138.34V81.9228C138.34 82.5182 138.042 82.8158 137.447 82.8158H123.459C122.566 82.8158 122.268 82.5182 121.971 81.9228L109.47 55.4286H108.875V81.9228C108.875 82.5182 108.577 82.8158 107.982 82.8158H94.8866C94.2913 82.8158 93.9937 82.5182 93.9937 81.9228V52.154ZM142.209 52.154H149.65V82.8158H142.804C142.507 82.8158 142.209 82.5182 142.209 81.9228V52.154Z" fill="#29B99A"/>
<path fill-rule="evenodd" clip-rule="evenodd" d="M52.9213 67.6338C53.219 67.6338 53.219 69.1222 53.219 69.4199C53.219 69.7176 53.219 70.313 52.9213 70.313C52.3261 70.0153 52.6237 67.9315 52.9213 67.6338ZM56.4928 81.3274C54.7071 80.4344 53.219 79.2436 51.7308 77.7552C49.6474 75.6714 47.8617 72.9922 46.9688 69.7176C46.9688 69.7176 46.9688 69.7176 46.9688 69.4199C47.2664 69.1222 47.2664 67.3361 46.9688 67.3361C46.6712 67.3361 46.6712 68.2292 46.6712 68.5268C46.3736 67.6338 46.3736 66.7407 46.0759 65.8477L52.3261 66.1453C52.9213 66.1453 53.219 66.1453 53.5166 66.1453C53.8142 66.1453 54.4095 66.443 54.7071 66.443C55.6 66.443 55.8976 66.443 55.8976 67.0384C56.1952 67.3361 56.1952 67.3361 56.1952 67.6338C56.1952 67.9315 56.1952 67.9315 56.1952 68.2292V71.206C56.1952 72.0991 56.1952 72.9922 56.1952 73.5875C56.1952 74.4806 56.1952 75.3737 56.1952 76.2667C56.1952 77.7552 56.1952 79.5413 56.4928 81.3274ZM50.8379 69.1222C50.8379 68.5268 50.8379 67.6338 51.1356 67.3361C51.4332 67.6338 51.4332 69.1222 51.1356 69.4199C51.1356 69.7176 51.1356 69.7176 51.1356 70.0153C51.1356 69.7176 50.8379 69.4199 50.8379 69.1222ZM49.3498 70.0153C49.0522 69.7176 49.0522 69.4199 49.0522 68.8245C49.0522 67.9315 49.3498 67.9315 49.3498 67.3361C49.6474 67.3361 49.6474 67.3361 49.6474 67.9315C49.6474 68.2292 49.6474 68.8245 49.6474 69.4199C49.6474 69.7176 49.3498 69.7176 49.3498 70.0153Z" fill="#E01C66"/>
<path fill-rule="evenodd" clip-rule="evenodd" d="M89.8269 65.8477C89.2316 70.9083 87.4459 75.076 84.4696 77.7552C82.6838 79.5413 80.8981 80.732 78.8147 81.6251C78.8147 80.732 78.8147 79.5413 78.8147 78.6482C78.8147 77.4575 78.8147 76.2667 78.8147 74.7783V66.7407C79.1123 66.7407 79.1123 66.443 79.4099 66.443C80.0052 66.443 80.3028 66.443 80.8981 66.443C81.1957 66.1453 81.791 66.1453 82.0886 66.1453L84.4696 65.8477C84.7672 65.8477 85.0648 65.8477 85.6601 65.8477C86.8506 65.8477 88.3387 65.8477 89.8269 65.8477ZM93.9936 81.9228V70.0153C93.9936 70.0153 93.9936 70.0153 93.9936 69.7176C94.2913 69.1222 94.2913 67.6338 93.9936 67.3361V66.1453L95.1841 66.443C96.3746 66.443 97.2675 66.7407 97.5651 66.7407V80.1367V82.8159H94.8865C94.2913 82.8159 93.9936 82.5182 93.9936 81.9228ZM83.5767 68.8245C83.5767 67.6338 83.8743 67.6338 83.8743 67.3361C83.8743 67.3361 83.8743 67.3361 83.8743 67.9315C84.172 68.5268 84.172 68.5268 83.8743 69.4199C83.8743 69.7176 83.8743 69.7176 83.8743 70.0153C83.8743 69.4199 83.5767 69.1222 83.5767 68.8245ZM87.7435 68.5268C87.7435 67.9315 87.7435 67.6338 88.0411 67.0384C88.3387 67.9315 88.3387 69.1222 88.0411 70.0153C87.7435 69.4199 87.7435 69.1222 87.7435 68.5268ZM85.3625 68.5268C85.3625 68.2292 85.3625 68.2292 85.3625 67.9315C85.3625 67.6338 85.3625 67.6338 85.3625 67.6338C85.3625 67.3361 85.3625 67.3361 85.6601 67.3361C85.6601 67.6338 85.6601 67.6338 85.6601 67.9315V69.7176C85.6601 69.7176 85.6601 69.7176 85.6601 70.0153C85.3625 69.7176 85.3625 68.8245 85.3625 68.5268ZM82.0886 70.0153C82.0886 69.7176 81.791 69.7176 81.791 69.4199C81.791 68.8245 81.791 67.9315 81.791 67.6338C82.0886 67.3361 81.791 67.6338 82.0886 67.3361C82.3862 67.6338 82.0886 67.6338 82.0886 67.9315V69.4199C82.0886 69.7176 82.0886 69.7176 82.0886 70.0153Z" fill="#E01C66"/>
<path fill-rule="evenodd" clip-rule="evenodd" d="M73.4576 69.4199C73.16 69.1222 73.16 68.5268 73.4576 68.2291C73.7552 69.1222 73.4576 68.8245 73.4576 69.4199ZM62.4454 83.1135C61.8502 83.1135 61.2549 82.8158 60.6597 82.8158V67.0384H63.3383C63.9336 67.9315 65.1241 68.5268 66.3146 68.8245C66.3146 69.1222 66.3146 69.1222 66.6122 69.1222C66.6122 69.1222 66.6122 69.1222 66.6122 68.8245C66.9098 68.8245 67.5051 69.1222 68.1003 69.1222H68.3979L68.6956 69.4199V69.1222C69.5885 68.8245 70.1837 68.8245 70.779 68.5268C70.779 68.5268 70.779 68.5268 70.779 68.8245C70.779 69.1222 70.779 69.4199 71.0766 69.4199C71.0766 69.1222 71.0766 68.8245 71.0766 68.2291C71.6718 67.9315 72.2671 67.6338 72.5647 67.0384H74.3505C74.3505 67.9315 74.3505 77.7552 74.3505 78.6482C74.3505 78.9459 74.3505 79.2436 74.3505 79.5413C74.3505 80.1367 74.3505 81.9228 74.6481 82.2205C74.6481 82.5182 74.6481 82.8158 74.6481 83.1135C74.0528 83.1135 73.16 83.1135 72.5647 83.4112V78.0528C72.5647 77.7552 72.5647 77.4575 72.5647 77.1598C72.5647 76.5644 72.5647 75.6713 72.5647 75.076C72.5647 74.7783 72.5647 74.7783 72.5647 74.4806C72.2671 73.8852 71.9695 73.2898 71.6718 72.6945C71.3742 72.0991 70.779 71.8014 70.4813 71.5037C70.4813 71.5037 70.1837 71.206 69.8861 71.206C69.2908 70.9083 68.9932 70.6106 68.3979 70.313C67.5051 70.0153 67.5051 70.0153 66.9098 70.313C65.7193 70.6106 65.1241 70.9083 64.2312 71.5037C62.4454 73.2898 62.4454 74.1829 62.4454 76.5644C62.4454 76.8621 62.4454 80.4343 62.4454 83.1135ZM61.2549 68.8245C61.2549 68.5268 61.2549 68.2291 61.5525 67.9315C61.8502 68.5268 61.8502 69.1222 61.5525 69.4199C61.2549 69.4199 61.2549 69.1222 61.2549 68.8245ZM63.9336 67.9315C64.2312 68.5268 64.2312 68.8245 63.9336 69.4199C63.6359 68.5268 63.6359 68.8245 63.9336 67.9315Z" fill="#E01C66"/>
<path fill-rule="evenodd" clip-rule="evenodd" d="M56.7905 67.0384V81.3274C57.6834 81.9228 58.8739 82.2205 60.0644 82.5182C60.0644 81.9228 60.0644 81.0297 60.0644 80.4344C60.0644 80.1367 60.0644 79.5413 60.0644 79.2436V75.6714C60.0644 75.3737 60.0644 75.076 60.0644 74.7783V70.6107C60.0644 70.0153 60.0644 69.7176 60.0644 69.1222C60.0644 66.7407 60.0644 67.0384 59.4692 67.0384C59.1715 67.0384 58.8739 66.7407 58.5763 66.7407H57.3858C57.0882 66.7407 56.7905 66.7407 56.7905 67.0384Z" fill="#E01C66"/>
<path fill-rule="evenodd" clip-rule="evenodd" d="M74.6479 72.6945L74.9456 82.8159C76.1361 82.5182 77.029 82.2205 78.2195 81.9228C78.2195 81.0297 78.2195 80.4344 78.2195 79.839V68.8245C78.2195 68.2292 78.2195 67.6338 78.2195 67.0384C77.9218 66.7407 77.9218 66.7407 77.3266 66.7407C74.9456 66.7407 74.9456 66.7407 74.9456 68.2292C74.9456 68.5268 74.9456 68.8245 74.9456 69.1222C74.9456 70.313 74.6479 71.5037 74.6479 72.6945Z" fill="#E01C66"/>
<path fill-rule="evenodd" clip-rule="evenodd" d="M81.791 62.8708C81.791 62.2754 81.791 61.3823 82.3862 61.3823C82.9815 61.3823 82.6838 62.2754 82.6838 62.8708C82.6838 63.1684 82.3862 63.1684 82.0886 63.1684C82.0886 63.1684 81.791 63.1684 81.791 62.8708ZM90.1245 60.4893V60.7869C90.1245 61.9777 90.1245 62.8708 90.1245 63.7638H87.1482C86.553 63.7638 85.9577 63.7638 85.0648 63.7638H82.9815C82.0886 63.7638 81.4933 63.7638 80.6005 64.0615H79.1123L78.8147 64.3592V62.5731C78.8147 62.2754 78.8147 61.9777 79.1123 61.68C79.7076 61.3823 81.1957 61.0846 81.791 60.7869C82.9815 60.7869 82.3862 60.7869 83.5767 60.4893C83.8743 60.4893 87.4459 60.4893 90.1245 60.4893ZM93.9936 63.7638V63.1684C94.5889 62.8708 94.2912 61.9777 93.9936 61.3823V60.7869C94.2912 61.0846 94.5889 61.0846 95.1841 61.0846C97.8628 61.9777 97.5651 61.9777 97.5651 64.0615C97.5651 64.0615 97.5651 64.0615 97.5651 64.3592C97.2675 64.3592 97.2675 64.3592 96.9699 64.3592C96.6723 64.0615 96.3746 64.0615 95.7794 64.0615C95.4818 63.7638 94.5889 63.7638 93.9936 63.7638ZM87.4459 62.8708C87.4459 62.5731 87.4459 62.5731 87.4459 62.2754C87.4459 62.2754 87.4459 61.3823 87.4459 61.0846C87.7435 60.7869 88.0411 60.7869 88.3387 60.7869C88.3387 60.7869 88.6364 61.3823 88.6364 61.68C88.6364 62.8708 88.6364 62.8708 87.4459 62.8708Z" fill="#E01C66"/>
<path fill-rule="evenodd" clip-rule="evenodd" d="M45.7783 63.7638C45.7783 62.8708 45.7783 61.9777 45.7783 60.7869V60.4893C46.0759 60.4893 46.6712 60.4893 46.9688 60.4893C49.6475 60.4893 51.7308 60.4893 54.4095 61.3823C54.7071 61.3823 55.0047 61.3823 55.3024 61.68C55.6 61.68 56.1952 61.9777 56.1952 62.2754V63.7638C56.1952 64.0615 56.1952 63.7638 56.1952 64.0615C55.0047 64.0615 54.7071 64.0615 53.8142 63.7638C52.9213 63.7638 51.7308 63.7638 50.838 63.7638C50.5403 63.7638 50.2427 63.7638 49.6475 63.7638C49.3498 63.7638 49.0522 63.7638 48.7546 63.7638H46.3736C46.0759 63.7638 46.0759 63.7638 45.7783 63.7638ZM52.0285 62.5731C52.0285 61.9777 52.0285 61.0846 52.6237 61.0846C53.219 61.0846 53.219 62.2754 53.219 62.8708C53.219 63.4661 52.0285 63.1684 52.0285 62.5731ZM46.9688 60.7869C47.5641 60.7869 47.5641 61.9777 47.5641 62.5731C47.5641 63.1684 47.2665 62.8708 46.3736 62.8708C46.0759 62.8708 46.3736 61.3823 46.3736 61.0846C46.3736 60.7869 46.6712 60.7869 46.9688 60.7869Z" fill="#E01C66"/>
<path fill-rule="evenodd" clip-rule="evenodd" d="M62.4454 57.2147V58.4055C62.1478 58.4055 62.1478 58.4055 62.1478 58.4055C61.5526 58.4055 61.2549 58.4055 61.2549 58.7032C60.9573 59.0009 60.9573 61.3824 60.9573 61.9777H62.4454V62.2754C62.4454 62.5731 62.4454 62.5731 62.4454 62.8708H60.6597C60.6597 62.2754 60.6597 61.9777 60.6597 61.3824C60.6597 61.0847 60.6597 60.4893 60.6597 59.8939C60.3621 59.5962 60.6597 59.0009 60.6597 58.7032C60.6597 58.1078 60.3621 57.8101 60.3621 57.2147H62.1478H62.4454ZM73.7552 62.8708C73.7552 62.5731 73.7552 62.5731 73.7552 62.2754V61.9777H74.0529V60.4893C74.0529 60.4893 74.0529 60.4893 74.0529 60.1916C74.0529 60.4893 74.0529 60.787 74.0529 61.0847C74.3505 61.3824 74.3505 62.2754 74.3505 62.8708H73.7552ZM73.7552 58.4055V57.2147C74.0529 57.2147 74.0529 57.2147 74.3505 57.2147C74.3505 57.5124 74.3505 57.8101 74.3505 57.8101C74.3505 58.4055 74.3505 58.4055 74.3505 59.2985C74.0529 59.5962 74.0529 59.5962 74.0529 59.8939C73.7552 59.5962 73.7552 59.5962 73.7552 59.2985C74.0529 59.0009 74.0529 59.0009 73.7552 58.7032C73.7552 58.7032 73.7552 58.7032 73.7552 58.4055Z" fill="#E01C66"/>
<path fill-rule="evenodd" clip-rule="evenodd" d="M62.7429 77.1598V82.8158C63.0405 82.8158 63.0405 83.1135 63.0405 83.1135C63.3382 83.4112 63.6358 83.4112 63.9334 83.4112C63.9334 83.1135 63.9334 82.5181 63.9334 82.2205C63.9334 81.9228 63.9334 81.9228 63.9334 81.3274V78.3505C64.2311 78.0528 63.9334 77.7551 63.9334 77.4574C63.9334 76.8621 64.2311 75.3736 64.2311 74.7783C64.5287 73.8852 65.4216 72.9921 66.3144 72.6944C67.2073 72.0991 67.2073 72.0991 68.1002 72.3968C68.3978 72.3968 68.3978 72.3968 68.3978 72.3968C70.1836 73.2898 70.7788 74.1829 70.7788 75.969C70.7788 76.2667 70.7788 76.2667 70.7788 76.5644L71.0764 80.732C71.0764 81.3274 71.0764 81.3274 71.0764 81.9228V82.2205V83.4112C71.3741 83.4112 71.6717 83.4112 71.9693 83.4112C71.9693 82.8158 71.9693 82.2205 71.9693 81.3274C71.9693 80.732 72.267 80.4343 72.267 80.1366C72.267 78.3505 72.267 75.0759 71.6717 73.8852C71.6717 73.5875 71.0764 72.3968 70.4812 72.6944C70.7788 72.3968 70.7788 72.3968 70.4812 72.0991C70.1836 71.8014 68.9931 70.9083 68.3978 70.9083C67.2073 70.3129 67.5049 70.6106 66.3144 70.9083C65.4216 71.206 63.9334 72.3968 63.3382 73.5875C63.0405 74.4806 62.7429 75.969 62.7429 77.1598Z" fill="#E01C66"/>
<path fill-rule="evenodd" clip-rule="evenodd" d="M46.0759 65.55C46.6712 65.55 47.2664 65.55 47.8617 65.55C49.0522 65.55 49.9451 65.55 51.1356 65.55C51.4332 65.55 51.4332 65.55 51.7308 65.55C52.6237 65.55 54.1118 65.8477 55.3023 65.8477C55.3023 65.8477 55.6 65.8477 55.6 66.1453C55.8976 66.1453 55.8976 66.1453 56.1952 66.1453C56.1952 65.8477 56.1952 65.55 56.1952 65.2523C56.1952 64.9546 55.8976 64.6569 55.6 64.6569C55.3023 64.6569 52.9213 64.3592 52.6237 64.0615C52.0285 64.0615 51.7308 64.0615 51.4332 64.0615H50.2427C49.9451 64.0615 49.3498 64.0615 49.0522 64.0615C48.7546 64.0615 47.2664 64.0615 46.0759 64.0615C46.0759 64.3592 46.0759 64.9546 46.0759 65.55Z" fill="#E01C66"/>
<path fill-rule="evenodd" clip-rule="evenodd" d="M78.5171 66.1453C78.5171 66.1453 78.5171 66.1453 78.8147 66.1453H79.1123L80.8981 65.8476C81.4934 65.8476 82.3862 65.55 83.2791 65.55H85.6601C85.9577 65.55 86.553 65.55 86.8506 65.55C87.1482 65.55 87.1482 65.55 87.4459 65.55H88.6364C88.934 65.55 89.2316 65.55 89.2316 65.55C89.5293 65.55 89.8269 65.55 89.8269 65.55C89.8269 64.9546 90.1245 64.3592 90.1245 64.0615C89.5293 64.0615 89.2316 64.0615 88.934 64.0615C86.553 64.0615 84.4696 64.0615 82.0886 64.3592C81.4934 64.3592 79.41 64.3592 78.8147 64.9546C78.8147 64.9546 78.5171 65.55 78.5171 66.1453ZM93.9936 65.8476C95.1841 65.8476 96.3747 65.8476 96.9699 66.1453C97.5652 66.1453 97.5652 66.443 97.5652 65.2523C97.5652 64.9546 97.2675 64.6569 96.9699 64.6569C96.3747 64.3592 95.1841 64.3592 93.9936 64.3592V65.8476Z" fill="#E01C66"/>
<path fill-rule="evenodd" clip-rule="evenodd" d="M62.4454 63.4661H60.6597V64.9546H62.743C62.4454 64.6569 62.4454 64.0615 62.4454 63.4661ZM73.4576 64.9546H74.3505V64.3592C74.3505 63.7638 74.3505 63.7638 74.3505 63.4661C74.0528 63.4661 74.0528 63.1685 73.7552 63.1685C73.4576 64.0615 73.4576 64.6569 73.4576 64.9546Z" fill="#E01C66"/>
<path fill-rule="evenodd" clip-rule="evenodd" d="M58.5762 56.6193H60.6596C60.6596 56.6193 61.5524 56.6193 62.4453 56.6193V56.0239C61.8501 56.0239 61.2548 56.0239 60.6596 56.0239C60.3619 56.0239 60.3619 56.0239 60.0643 56.0239C59.7667 56.0239 59.7667 56.0239 59.4691 56.0239C59.1714 56.0239 58.8738 56.3216 58.5762 56.6193ZM73.7551 56.6193H74.0527C74.3504 56.6193 74.648 56.6193 74.9456 56.6193C74.9456 56.6193 76.1361 56.6193 76.1361 56.3216C76.1361 56.0239 74.648 56.0239 74.3504 56.0239C74.0527 56.0239 74.0527 56.0239 73.7551 56.0239V56.6193Z" fill="#E01C66"/>
<path fill-rule="evenodd" clip-rule="evenodd" d="M87.4458 59.8939H90.1245V59.2985C89.8268 59.2985 89.5292 59.2985 88.934 59.2985H86.8506C86.553 59.2985 85.9577 59.2985 85.6601 59.2985H84.4696C83.2791 59.5962 81.7909 59.8939 80.6004 60.1916C80.3028 60.1916 80.0052 60.4893 79.7076 60.4893C79.4099 60.787 79.1123 61.0846 79.1123 61.3823C79.4099 61.3823 79.4099 61.0846 80.0052 60.787L82.9814 60.1916C84.4696 59.8939 85.9577 59.8939 87.4458 59.8939ZM93.9936 60.4893C94.2912 60.4893 94.8865 60.4893 95.1841 60.787C95.7794 60.787 96.077 60.787 96.6722 61.0846C96.9699 61.3823 96.9699 61.3823 97.2675 61.3823C97.2675 60.4893 95.4817 60.1916 93.9936 59.8939V60.4893Z" fill="#E01C66"/>
<path fill-rule="evenodd" clip-rule="evenodd" d="M37.7424 61.0846C37.7424 61.0846 37.7424 61.0846 37.7424 61.3823C38.3377 61.3823 38.0401 61.0846 38.9329 60.787C39.2306 60.787 39.5282 60.4893 39.8258 60.1916H39.5282C39.2306 60.1916 37.7424 60.787 37.7424 61.0846ZM45.7783 59.8939C46.076 59.8939 46.076 59.8939 46.076 59.8939C46.3736 59.8939 46.6712 59.8939 46.9688 59.8939H47.2665C47.8617 59.8939 49.0522 59.8939 49.3498 59.8939C49.9451 60.1916 50.5404 59.8939 51.7309 60.1916C52.6237 60.4893 53.219 60.4893 53.8142 60.787C54.4095 60.787 55.0047 61.0846 55.3024 61.0846C55.6 61.0846 55.6 61.3823 55.8976 61.3823C55.8976 61.0846 55.6 61.0846 55.6 60.787L55.3024 60.4893C55.0047 60.4893 54.7071 60.1916 54.4095 60.1916C53.219 59.8939 51.7309 59.5962 50.838 59.2985H48.1593C47.8617 59.2985 47.8617 59.2985 47.5641 59.2985H45.7783V59.8939Z" fill="#E01C66"/>
<path fill-rule="evenodd" clip-rule="evenodd" d="M60.3621 65.8476C60.3621 66.443 61.5526 66.1453 62.1478 66.1453C62.7431 66.1453 62.7431 66.1453 63.0407 66.443C63.0407 66.1453 62.7431 65.8476 62.7431 65.5499C61.8502 65.5499 60.3621 65.5499 60.3621 65.8476ZM72.8623 66.1453H73.4576C74.0529 66.1453 74.3505 66.1453 74.6481 65.8476C74.3505 65.8476 74.3505 65.8476 73.7552 65.8476C73.7552 65.5499 73.4576 65.5499 73.16 65.5499C73.16 65.8476 73.16 66.1453 72.8623 66.1453Z" fill="#E01C66"/>
<path fill-rule="evenodd" clip-rule="evenodd" d="M56.4929 63.7638C56.4929 64.3592 56.7905 64.9546 57.3858 64.9546H59.7668C60.3621 64.9546 60.3621 64.6569 60.0644 64.0615C60.0644 63.4661 59.7668 63.1685 58.8739 63.1685C58.2787 63.1685 56.4929 63.1685 56.4929 63.7638Z" fill="#E01C66"/>
<path fill-rule="evenodd" clip-rule="evenodd" d="M74.6479 64.3592C74.6479 64.6569 74.6479 64.9546 74.9456 64.9546H77.9218C78.2195 64.9546 78.2195 64.9546 78.2195 64.9546V63.4662C77.6242 63.4662 75.2432 63.1685 74.9456 63.4662C74.9456 63.4662 74.6479 64.0615 74.6479 64.3592Z" fill="#E01C66"/>
<path fill-rule="evenodd" clip-rule="evenodd" d="M74.9456 57.8101C74.9456 58.1077 75.2432 58.1077 75.5408 58.1077C75.8384 58.1077 76.1361 58.1077 76.4337 58.1077L77.9218 58.4054C78.2194 58.4054 78.2194 58.4054 78.2194 58.4054C78.2194 59.0008 78.2194 60.7869 78.5171 61.3823C78.5171 61.3823 78.5171 61.3823 78.5171 60.7869L78.8147 58.1077C78.8147 57.8101 78.8147 57.5124 78.8147 57.5124C78.5171 56.917 76.1361 57.2147 75.5408 57.2147C75.2432 57.2147 74.9456 57.5124 74.9456 57.8101Z" fill="#E01C66"/>
<path fill-rule="evenodd" clip-rule="evenodd" d="M56.1953 57.8101C56.1953 58.7031 56.1953 59.5962 56.1953 60.4893L56.4929 58.7031C56.7906 58.4054 56.4929 58.4054 57.3858 58.4054C57.6834 58.4054 57.9811 58.4054 58.2787 58.4054C58.5763 58.4054 60.3621 58.4054 60.3621 57.8101C60.3621 56.917 58.2787 57.2147 57.3858 57.2147C56.7906 57.2147 56.1953 57.2147 56.1953 57.8101Z" fill="#E01C66"/>
<path fill-rule="evenodd" clip-rule="evenodd" d="M58.2786 61.3823C58.2786 61.9777 58.2786 62.8708 58.5762 62.8708C59.1714 62.8708 58.8738 61.9777 58.8738 61.68C58.8738 59.8939 59.7667 59.0008 59.7667 60.1916C60.0643 61.0846 60.0643 61.3823 60.0643 61.9777C60.0643 62.2754 60.0643 62.5731 60.0643 62.5731C60.0643 62.2754 60.0643 62.2754 60.0643 61.68V59.5962C60.0643 58.7031 60.6596 58.7031 58.2786 58.7031V61.3823Z" fill="#E01C66"/>
<path fill-rule="evenodd" clip-rule="evenodd" d="M62.4454 76.5644C62.4454 76.8621 62.4454 80.4344 62.4454 83.1136V76.5644ZM60.6597 82.8159H60.3621V66.7407H63.3383V67.0384H60.6597V82.8159ZM72.5647 67.0384V66.7407H74.3505V78.6482C74.3505 77.7552 74.3505 67.9315 74.3505 67.0384H72.5647Z" fill="#E01C66"/>
<path fill-rule="evenodd" clip-rule="evenodd" d="M74.9456 62.5731C74.9456 61.9777 74.9456 59.5962 75.5408 59.5962C76.1361 59.5962 76.1361 61.9777 76.1361 61.9777C76.1361 62.5731 76.1361 62.8708 76.4337 62.8708C76.4337 62.2754 76.4337 61.9777 76.4337 61.3823V58.7031H74.6479C74.6479 59.0008 74.6479 59.2985 74.6479 59.8939C74.6479 60.1916 74.9456 60.1916 74.9456 60.7869V61.9777C74.9456 62.2754 74.9456 62.2754 74.9456 62.5731Z" fill="#E01C66"/>
<path fill-rule="evenodd" clip-rule="evenodd" d="M77.0291 60.4893V61.3824C77.0291 61.68 77.0291 61.68 77.0291 61.9777C77.0291 63.1685 77.6243 62.8708 77.9219 62.5731C77.9219 62.2754 77.9219 59.8939 77.9219 59.5962V59.0009C77.6243 58.7032 77.3267 58.7032 77.3267 59.0009C77.0291 59.0009 77.0291 60.1916 77.0291 60.4893Z" fill="#E01C66"/>
<path fill-rule="evenodd" clip-rule="evenodd" d="M57.0881 59.5962V61.9777C57.0881 62.8708 57.3858 62.8708 57.6834 62.8708C57.981 62.2754 57.981 60.1916 57.981 59.5962C57.981 59.2985 57.981 59.0009 57.981 59.0009C57.6834 58.7032 57.3858 58.7032 57.3858 59.0009C57.0881 59.0009 57.0881 59.2985 57.0881 59.5962Z" fill="#E01C66"/>
<path fill-rule="evenodd" clip-rule="evenodd" d="M56.7905 65.8476C56.7905 66.443 57.6834 66.443 58.2787 66.443L59.4692 66.1453C59.7668 66.1453 60.0644 66.443 60.0644 66.1453C60.0644 65.5499 59.1715 65.5499 58.5763 65.5499C58.2787 65.5499 56.7905 65.5499 56.7905 65.8476Z" fill="#E01C66"/>
<path fill-rule="evenodd" clip-rule="evenodd" d="M74.9456 66.1453C74.9456 66.443 77.9218 66.443 78.2194 66.1453C78.2194 66.1453 78.2194 65.8476 78.2194 65.5499C77.6242 65.5499 76.4337 65.5499 75.8384 65.5499C75.5408 65.5499 74.9456 65.5499 74.9456 66.1453Z" fill="#E01C66"/>
<path fill-rule="evenodd" clip-rule="evenodd" d="M55.0046 56.917C55.3023 56.917 57.6833 56.6193 57.6833 56.6193C57.9809 56.6193 58.2785 56.3216 58.5762 56.0239C57.6833 56.0239 55.8975 56.3216 55.3023 56.6193C55.0046 56.6193 55.0046 56.6193 55.0046 56.917Z" fill="#E01C66"/>
<path fill-rule="evenodd" clip-rule="evenodd" d="M76.7314 56.0239C76.7314 56.3216 76.7314 56.6193 77.0291 56.6193C77.9219 56.917 78.8148 56.917 79.4101 56.917H79.7077C79.7077 56.917 80.0053 56.6193 79.4101 56.6193C78.8148 56.3216 77.3267 56.0239 76.7314 56.0239Z" fill="#E01C66"/>
<path fill-rule="evenodd" clip-rule="evenodd" d="M85.6602 65.5499V65.8476H89.5293V65.5499C88.9341 65.5499 88.3388 65.5499 87.4459 65.5499C86.8507 65.5499 86.553 65.5499 85.6602 65.5499Z" fill="#E01C66"/>
<path fill-rule="evenodd" clip-rule="evenodd" d="M0.241455 59.0009H21.9682V66.1454H17.2061C16.6109 66.1454 16.6109 66.4431 16.6109 66.7407V76.8621H0.241455V59.0009Z" fill="#29B99A"/>
<path fill-rule="evenodd" clip-rule="evenodd" d="M10.6584 63.7638C10.6584 63.7638 10.6584 63.7638 10.956 63.4661C10.956 63.1684 11.2536 62.8708 11.2536 62.8708C11.5512 62.5731 11.8489 62.2754 12.1465 62.2754C12.7418 61.68 12.4441 61.9777 12.4441 61.68C12.7418 61.68 12.7418 61.68 12.7418 61.3823C13.0394 61.3823 13.6346 60.7869 13.9323 60.7869C14.5275 60.7869 14.2299 60.7869 14.5275 60.4893C14.8251 60.4893 14.5275 60.7869 14.8251 60.7869C15.1228 60.7869 15.1228 61.0846 15.1228 61.0846C15.4204 61.0846 15.4204 60.7869 15.718 60.7869C15.718 61.0846 15.718 61.3823 15.4204 61.3823C15.4204 61.68 15.4204 61.9777 15.4204 62.2754C15.4204 62.2754 15.4204 62.2754 15.4204 62.5731C15.4204 62.8708 15.718 62.5731 15.1228 63.1684C15.1228 63.4661 14.8251 63.7638 14.8251 64.0615C14.8251 64.0615 14.8251 64.3592 14.5275 64.6569C14.5275 64.6569 14.5275 65.2523 14.2299 64.9546C13.9323 64.9546 13.9323 64.6569 13.9323 64.6569V65.2523C13.9323 65.55 13.9323 65.55 13.9323 65.8476V66.1453C14.2299 66.1453 14.8251 65.2523 15.1228 65.2523C15.718 65.2523 16.3133 65.8476 16.6109 66.1453C16.9085 66.1453 16.9085 66.1453 16.9085 66.1453C16.6109 66.1453 16.6109 66.443 16.6109 66.7407C16.3133 66.7407 16.0156 66.443 15.718 66.443C15.4204 66.1453 15.1228 66.443 14.8251 66.7407C14.5275 67.0384 13.6346 67.9315 13.6346 67.9315C14.2299 68.2291 15.4204 68.2291 16.0156 68.5268C16.6109 68.8245 16.3133 69.1222 16.0156 69.4199C15.718 70.0153 15.4204 70.313 15.1228 70.9083C14.8251 71.5037 15.1228 71.206 14.5275 71.5037C14.2299 71.8014 13.9323 72.0991 13.6346 72.0991C13.337 72.0991 13.337 71.8014 13.337 71.8014C13.337 71.206 13.9323 71.206 14.2299 71.206C14.5275 70.6106 15.4204 69.7176 15.4204 69.4199C14.8251 69.4199 13.0394 69.7176 12.7418 69.4199L12.4441 69.1222C12.4441 69.1222 12.4441 68.8245 12.1465 68.5268C11.8489 68.2291 11.5512 68.5268 11.2536 68.8245C10.956 69.1222 10.956 69.1222 10.3607 69.4199C9.46786 69.4199 8.27736 69.7176 7.38448 70.0153H7.08685C6.78923 70.0153 6.78923 70.313 6.78923 70.313C6.4916 70.6106 6.4916 70.313 6.19398 70.9083C5.89635 71.206 5.89635 71.5037 5.59872 71.8014C5.3011 72.0991 5.00347 72.3968 4.40822 72.9922C3.81297 73.5875 4.11059 73.8852 3.51534 74.1829C2.62246 75.076 3.51534 76.2667 1.43196 76.2667C1.43196 75.969 1.43196 75.969 1.43196 75.969C1.13433 75.969 0.836707 75.969 0.836707 75.969C0.539081 75.969 0.539081 75.3737 1.13433 75.3737C1.13433 75.076 1.43196 75.3737 1.72959 75.076C1.72959 75.076 1.72959 74.7783 1.72959 74.4806C2.02721 74.4806 2.02721 74.4806 2.02721 74.1829C2.32484 74.1829 2.32484 73.8852 2.32484 73.8852C2.62246 73.5875 2.62246 72.9922 2.92009 72.6945C2.92009 72.3968 3.21772 72.3968 3.51534 72.0991C3.51534 72.0991 3.81297 71.8014 4.11059 71.5037C4.40822 70.9083 4.40822 71.206 4.11059 70.6106C4.11059 70.313 4.11059 69.7176 4.11059 69.1222C3.81297 69.4199 3.51534 70.0153 3.51534 70.313C2.92009 71.206 2.92009 71.5037 2.32484 72.0991L2.02721 72.3968H1.72959C1.43196 72.6945 1.13433 72.6945 1.13433 72.6945C0.836707 72.6945 0.241455 72.6945 0.241455 72.6945C0.241455 72.3968 0.241455 72.6945 0.241455 72.3968C0.539081 72.3968 1.13433 72.0991 1.43196 71.8014C1.43196 71.5037 2.02721 70.9083 2.32484 70.0153C2.62246 70.0153 2.62246 69.7176 2.92009 69.4199C2.92009 69.1222 3.21772 68.8245 3.81297 68.5268C3.81297 68.5268 4.11059 68.2291 4.40822 68.2291C4.70585 67.9315 4.11059 67.9315 5.3011 67.3361C5.59872 67.0384 5.89635 67.0384 5.89635 67.0384C6.19398 67.0384 6.19398 67.0384 6.19398 66.7407C6.4916 66.7407 6.19398 66.7407 6.4916 66.443C6.4916 66.443 6.4916 66.443 6.4916 66.1453L7.08685 65.2523C7.38448 65.2523 7.38448 64.9546 7.68211 64.6569C7.38448 64.3592 7.38448 64.3592 7.68211 64.0615C7.08685 63.7638 5.89635 63.7638 6.78923 62.8708C6.78923 62.5731 7.08685 62.5731 7.08685 62.2754L7.38448 61.9777C7.68211 61.68 7.97973 61.68 7.97973 61.0846L7.68211 60.7869C7.38448 60.7869 7.38448 60.7869 7.38448 60.7869C7.38448 60.7869 7.38448 61.3823 7.08685 61.3823C6.78923 61.0846 7.08685 61.0846 7.38448 60.4893C7.08685 60.4893 7.08685 60.7869 7.08685 60.7869C7.08685 60.7869 7.08685 61.0846 6.78923 61.0846C6.78923 61.0846 6.78923 60.7869 7.08685 60.4893C7.08685 60.4893 7.08685 60.4893 7.38448 60.4893C7.68211 60.1916 7.68211 59.8939 7.97973 59.8939C8.27736 59.8939 8.27736 59.8939 8.57499 59.8939L8.87261 60.4893C9.17024 60.7869 8.87261 60.4893 8.87261 60.7869H9.17024C9.17024 61.0846 9.17024 61.0846 9.17024 61.0846C9.17024 61.0846 8.87261 61.0846 8.87261 61.3823C8.87261 61.3823 8.87261 61.3823 9.17024 61.3823H9.46786C9.76549 61.3823 10.3607 60.7869 10.6584 60.4893C10.956 60.1916 11.2536 59.8939 11.5512 59.5962C11.5512 59.2985 11.5512 59.2985 11.8489 59.2985V59.0008C12.1465 58.7031 12.1465 58.7031 12.4441 58.4054C13.0394 57.5124 14.5275 55.7262 15.1228 54.5355C15.4204 53.9401 15.4204 53.6424 16.0156 53.0471C16.0156 53.6424 14.8251 55.4286 14.5275 56.0239C13.9323 56.917 13.337 57.8101 12.7418 58.4054C12.4441 58.7031 12.1465 59.0008 12.1465 59.2985C12.1465 59.5962 12.1465 59.5962 12.1465 59.5962C11.8489 59.8939 11.8489 59.8939 11.5512 60.4893C11.2536 60.7869 10.956 61.3823 10.6584 61.3823C10.6584 61.68 10.6584 61.68 10.3607 61.68C10.3607 61.9777 10.3607 61.9777 10.0631 61.9777C10.0631 62.2754 10.0631 62.2754 10.0631 62.2754V63.4661C10.0631 63.4661 10.0631 63.4661 10.0631 63.7638C10.3607 63.7638 10.6584 63.7638 10.6584 63.7638ZM16.6109 68.2291C16.6109 67.9315 16.3133 67.9315 16.6109 67.6338V68.2291Z" fill="#E01C66"/>
<path fill-rule="evenodd" clip-rule="evenodd" d="M142.209 65.2523H158.579V68.5268C158.579 68.8245 158.579 69.1222 158.876 69.1222H178.817C179.115 69.1222 179.412 69.4199 179.412 69.7176V81.9228C179.412 82.5182 179.115 82.8158 178.817 82.8158H142.804C142.507 82.8158 142.209 82.5182 142.209 81.9228V65.2523Z" fill="#29B99A"/>
<path fill-rule="evenodd" clip-rule="evenodd" d="M177.924 69.1222C178.222 70.9083 178.222 72.9921 178.222 74.1829C178.222 77.1598 178.222 79.839 178.222 82.8158H178.817C179.115 82.8158 179.412 82.5181 179.412 81.9228V69.7176C179.412 69.4199 179.115 69.1222 178.817 69.1222H177.924ZM177.031 82.8158C176.734 81.3274 177.031 78.3505 177.031 76.8621H177.329C177.627 76.5644 177.627 76.8621 177.924 76.5644C177.031 75.6713 174.353 76.2667 172.865 76.2667C172.865 73.5875 172.865 74.1829 172.269 73.8852L171.972 73.2898H168.698C168.698 72.0991 168.698 70.3129 168.103 69.1222H166.317C166.019 70.3129 166.019 71.5037 165.722 73.2898H161.555C160.96 73.2898 159.769 71.5037 159.472 70.9083C159.174 72.0991 158.876 71.8014 158.281 72.6944C157.388 73.8852 156.495 73.2898 154.114 73.2898H150.245C150.543 72.0991 150.245 72.6944 150.84 72.0991C149.352 71.206 149.947 72.0991 149.055 69.1222C148.459 71.206 148.162 71.5037 147.269 72.0991C147.864 72.6944 147.864 72.3968 147.864 73.5875C146.674 73.5875 146.376 73.8852 145.781 73.2898C145.185 74.7783 144.888 73.5875 144.59 74.7783C144.888 74.7783 144.888 74.7783 145.185 74.7783C145.483 74.7783 145.483 74.7783 145.483 74.7783L145.781 75.969C144.59 76.2667 143.995 75.6713 142.804 76.5644C143.102 78.0528 143.697 75.0759 143.4 81.6251C143.4 82.2205 143.697 82.5181 143.4 82.8158H177.031Z" fill="#E01C66"/>
<path fill-rule="evenodd" clip-rule="evenodd" d="M142.209 58.1078H152.924V66.1454H142.209V58.1078Z" fill="#29B99A"/>
<path fill-rule="evenodd" clip-rule="evenodd" d="M108.577 81.9228C108.875 79.839 108.28 78.3505 108.875 76.2667V64.3592C106.792 64.9546 105.006 65.2523 103.22 64.6569C102.03 61.9777 104.411 64.3592 101.732 61.0846C101.137 60.4893 102.03 60.787 100.839 60.1916C98.458 59.2985 95.4818 61.68 96.9699 64.0615C97.5652 65.2523 97.5652 64.3592 97.8628 65.55C97.8628 65.8477 97.8628 67.3361 98.1604 67.9315C98.1604 68.5268 97.8628 67.9315 98.458 68.5268C99.0533 69.1222 99.3509 70.0153 100.244 70.6107C102.03 71.5037 107.089 72.0991 107.387 77.1598C107.684 78.6482 107.684 80.1367 107.684 81.9228H108.577ZM114.827 67.0384L119.887 65.55C119.589 66.7407 119.292 67.0384 118.101 67.6338C121.078 64.6569 127.625 64.0615 131.792 68.5268C135.066 72.0991 135.959 79.2436 131.495 81.9228C135.661 81.9228 136.554 71.5037 132.09 68.2292C132.685 63.7638 136.554 51.5586 138.042 45.9026C138.34 44.7118 138.042 44.7118 137.745 44.4141C136.554 47.9864 132.387 65.55 131.197 67.0384C129.114 66.1453 127.625 64.0615 123.756 64.6569C121.97 64.9546 120.78 64.6569 118.697 64.9546C118.101 64.9546 117.506 64.9546 116.613 65.2523H114.827C114.53 65.2523 114.53 65.2523 114.232 65.2523L118.399 61.9777C119.589 62.2754 118.994 62.5731 120.482 62.8708C121.673 61.0846 120.185 60.787 123.459 57.5124C124.054 56.917 124.947 56.6193 124.054 55.7263C123.161 56.3216 123.161 57.8101 120.78 59.8939C119.887 60.787 119.589 60.1916 117.804 60.787C116.911 61.0846 116.018 61.68 115.125 61.9777C114.53 62.2754 113.637 62.5731 112.744 62.8708L114.827 67.0384Z" fill="#E01C66"/>
<path fill-rule="evenodd" clip-rule="evenodd" d="M119.59 76.8621C121.375 76.8621 123.161 78.6482 123.459 81.9228H128.816C129.709 72.9921 122.268 69.1222 116.613 70.6106L119.59 76.8621Z" fill="#E01C66"/>
<path fill-rule="evenodd" clip-rule="evenodd" d="M108.577 81.9228H108.875V76.2667C108.28 78.3505 108.875 79.8389 108.577 81.9228ZM116.316 69.7176C120.482 68.5268 124.054 70.3129 127.03 73.2898C129.114 75.6713 129.411 78.3505 129.709 81.9228C130.899 81.6251 131.197 81.3274 132.09 80.732C131.495 79.8389 131.197 79.5413 130.602 78.9459C131.495 78.3505 132.387 78.0528 132.685 76.8621H130.006L132.09 72.0991L127.923 72.6944L128.221 67.9314C127.03 68.2291 125.84 69.1222 124.649 69.7176L123.756 66.7407C122.268 67.3361 122.566 67.6337 121.375 68.5268L120.185 67.3361C118.697 67.3361 118.697 68.2291 117.804 68.2291C118.101 67.9314 117.804 67.9314 118.101 67.6337C119.292 67.0384 119.59 66.7407 119.887 65.5499L114.828 67.0384L116.316 69.7176Z" fill="#E01C66"/>
<path fill-rule="evenodd" clip-rule="evenodd" d="M136.554 53.6424C137.149 54.2378 137.745 54.5355 138.34 55.1309V47.391L136.554 53.6424ZM142.209 56.0239C143.102 58.4054 144.59 61.3823 147.566 61.3823C146.673 60.7869 145.781 61.0846 144.59 58.7031C143.697 57.5124 143.102 56.0239 142.804 54.2378C142.507 53.3447 142.507 52.154 142.209 50.9632V56.0239Z" fill="#E01C66"/>
<path fill-rule="evenodd" clip-rule="evenodd" d="M128.518 72.0991C129.709 71.8014 131.792 71.8014 132.685 71.206C132.09 69.4199 130.304 67.6338 128.816 67.0384L128.518 72.0991Z" fill="#E01C66"/>
<path fill-rule="evenodd" clip-rule="evenodd" d="M130.602 76.2667L133.578 76.5644C133.578 74.7783 133.578 72.9921 132.983 71.8014L130.602 76.2667Z" fill="#E01C66"/>
<path fill-rule="evenodd" clip-rule="evenodd" d="M124.947 69.1222L128.518 67.0384C127.03 66.1453 125.542 65.8477 124.054 65.8477L124.947 69.1222Z" fill="#E01C66"/>
<path fill-rule="evenodd" clip-rule="evenodd" d="M61.5525 30.4228C60.6596 30.4228 59.7667 30.1251 59.1715 29.232C58.8738 28.6367 58.8738 28.339 58.8738 27.7436V18.813H65.124V25.6598C65.124 26.8505 63.9335 30.4228 61.5525 30.4228ZM89.5293 6.90546C90.7198 6.90546 91.6127 7.79852 91.6127 8.69158C91.6127 9.88234 90.7198 10.7754 89.5293 10.7754C88.3388 10.7754 87.4459 9.88234 87.4459 8.69158C87.4459 7.79852 88.3388 6.90546 89.5293 6.90546ZM93.6961 13.7523H99.9462C100.839 13.7523 101.137 14.05 101.732 14.943C102.625 15.5384 105.304 18.2176 105.899 19.1107L98.4581 18.813C96.97 18.813 95.4818 18.813 94.2913 18.813C93.6961 18.813 93.1008 18.813 92.5056 18.813C90.7198 19.4083 91.3151 23.2783 91.3151 25.0644C91.9103 25.0644 92.5056 25.3621 93.1008 25.6598C95.7795 26.5529 96.6724 28.0413 98.7557 29.8274C99.351 30.4228 99.351 30.4228 99.9462 31.0182C99.9462 31.3159 99.9462 31.3159 100.244 31.6135C102.625 34.8881 99.9462 39.0557 96.3747 39.0557C94.8866 39.0557 93.9937 37.865 93.1008 36.9719C92.5056 36.3766 91.0175 35.1858 90.7198 34.5904C91.9103 35.1858 96.6724 35.1858 96.6724 31.9112C96.6724 28.339 89.827 28.339 89.827 31.6135C88.9341 31.6135 88.9341 31.3159 88.6365 31.0182L87.1483 29.232C86.5531 28.9344 86.5531 28.339 86.2554 28.0413C84.7673 26.5529 85.6602 27.1482 85.3626 25.6598C85.0649 25.3621 84.7673 24.469 84.7673 24.469C83.8744 23.8737 81.4934 24.1714 80.8982 24.469C80.0053 25.0644 79.1124 26.2552 78.8148 27.1482C77.9219 31.0182 78.8148 33.3997 81.791 35.7812C82.0887 36.3766 84.1721 36.9719 84.7673 36.9719C86.5531 36.9719 87.1483 36.0789 87.1483 34.5904C87.7436 34.5904 87.4459 34.5904 87.7436 35.1858C88.9341 36.0789 89.827 37.2696 91.0175 38.1627C91.3151 38.4604 92.208 39.0557 92.208 39.3534C92.208 41.7349 90.7198 42.9257 88.3388 42.9257C87.1483 42.9257 85.0649 41.7349 84.1721 41.1396L80.0053 36.9719C79.1124 36.3766 77.9219 34.8881 77.3267 33.9951C77.029 33.6974 76.7314 33.3997 76.4338 33.102C75.8385 31.6135 74.9456 30.4228 74.3504 28.9344C73.7551 26.5529 73.7551 23.576 75.8385 21.4922C76.4338 20.8968 76.7314 20.5991 77.6243 20.3014C82.0887 18.5153 85.9578 21.4922 86.2554 21.4922C86.2554 20.5991 85.9578 20.0037 85.9578 18.813H72.267C70.1836 18.813 70.1836 21.1945 70.1836 23.2783V36.0789C70.1836 37.5673 70.1836 40.5442 68.1002 40.5442C68.3979 41.4372 69.2907 41.1396 69.5884 42.3303L68.9931 42.628C68.3979 42.628 67.8026 41.7349 67.2074 41.4372C66.0169 40.2465 63.9335 37.2696 62.743 36.9719C62.743 36.3766 62.743 36.3766 63.0406 35.7812C64.5287 36.0789 65.124 36.3766 65.124 33.6974C63.6358 33.6974 62.1477 33.9951 60.6596 33.102C59.7667 32.8043 58.8738 32.2089 57.6833 31.3159L56.7905 30.7205C55.3023 29.232 53.8142 28.339 53.8142 25.6598V18.813C52.6237 18.813 51.7308 18.813 50.5403 18.813C49.0522 19.1107 48.4569 20.3014 48.4569 21.7898C48.4569 23.576 48.1593 32.2089 48.4569 33.6974C48.7545 35.1858 48.7545 40.5442 46.6712 40.5442C46.6712 41.4372 47.564 41.7349 47.8617 42.3303C46.9688 42.9257 46.9688 42.9257 45.4807 41.1396L40.7186 36.6742C41.0163 36.3766 41.0163 36.0789 41.3139 35.7812C42.2068 36.0789 43.3973 36.6742 43.3973 33.9951V18.813C41.9091 18.813 40.1234 18.5153 38.9329 19.4083C38.6353 19.706 38.3376 20.5991 38.04 21.1945C38.04 22.3852 38.04 35.1858 38.04 37.2696C38.04 38.7581 37.4448 40.2465 36.2542 40.5442C36.5519 41.7349 37.4448 41.1396 37.4448 42.3303C36.8495 42.628 37.4448 42.628 36.8495 42.628C36.2542 42.3303 31.4922 37.2696 30.5994 36.6742C30.897 36.3766 30.897 36.0789 31.1946 35.7812C32.0875 36.0789 32.6827 36.0789 32.9804 34.8881C33.278 33.3997 32.9804 33.102 32.9804 31.6135H29.1112C29.1112 33.102 29.4088 33.3997 29.4088 35.1858C29.4088 40.5442 23.4563 43.8188 18.3967 43.8188C16.3133 43.8188 14.5275 43.2234 12.4442 42.628C11.2537 42.3303 7.97977 39.9488 7.38452 39.3534C6.19401 38.4604 5.00351 37.2696 4.11063 36.0789C2.92013 34.5904 1.43199 32.8043 0.836743 31.0182C-0.0561358 28.9344 -0.353762 25.3621 0.539116 23.2783C2.02725 20.5991 4.11063 19.706 7.08689 20.0037C9.4679 20.3014 11.8489 21.7898 13.337 23.576C14.2299 24.469 13.9323 24.7667 14.5275 25.6598C13.9323 25.6598 13.6347 25.3621 13.0394 25.0644C10.3608 23.8737 7.38452 25.3621 5.89639 27.7436C4.40826 30.7205 5.30113 34.2927 7.38452 36.3766C10.3608 39.3534 16.3133 39.3534 19.5872 37.2696C21.9682 35.7812 23.754 33.3997 23.754 30.4228C23.754 27.7436 22.8611 26.8505 21.6706 24.7667C20.1824 24.7667 19.2896 25.3621 17.5038 24.469C15.718 23.2783 14.2299 21.4922 13.9323 18.813C14.5275 19.1107 14.5275 19.1107 15.1228 19.4083C16.9086 20.3014 19.2896 19.1107 19.2896 17.0268C19.2896 15.2407 17.8014 13.4546 16.0157 13.4546H15.4204C13.6347 13.4546 11.8489 15.2407 11.8489 17.0268C11.8489 18.5153 12.1465 18.5153 12.4442 19.4083C11.2537 19.1107 9.4679 17.3245 8.87265 16.4315C6.78926 14.6453 5.59876 11.3708 8.2774 9.28696C10.956 6.90546 14.2299 8.69158 16.6109 10.4777C17.8014 11.3708 18.6943 12.2638 19.8848 13.1569C20.1824 13.4546 20.4801 13.7523 20.7777 14.05C22.8611 16.1338 24.9445 18.813 24.3492 21.7898C24.3492 22.3852 24.0516 22.6829 23.754 23.2783C23.4563 23.576 23.1587 23.8737 22.8611 24.469C23.754 24.469 23.754 25.0644 24.3492 25.3621C24.6468 25.9575 24.9445 26.5529 25.5397 26.5529H32.9804V18.813C29.7065 18.813 29.4088 19.4083 27.9207 17.9199C27.3255 17.0268 24.3492 14.3477 24.0516 13.7523H93.6961Z" fill="#E01C66"/>
<path fill-rule="evenodd" clip-rule="evenodd" d="M217.806 31.3159C216.913 31.9113 216.318 32.2089 215.723 32.8043C215.425 32.8043 214.83 31.6136 213.044 32.5066C212.449 32.8043 211.556 33.3997 211.556 34.2928C211.258 35.1858 211.854 36.3766 212.151 36.9719C212.746 37.865 213.937 37.5673 214.83 37.2696C215.127 37.865 215.425 38.4604 215.723 38.7581C216.616 39.3535 217.806 39.0558 216.616 41.735C214.532 42.0326 213.937 41.1396 212.449 42.628C211.556 43.5211 211.258 44.7118 210.365 45.6049C209.77 45.9026 209.473 46.2003 209.175 46.7956C207.389 49.1772 207.984 47.9864 205.901 50.9633C205.306 52.4517 206.199 52.7494 206.794 53.9402C207.984 55.1309 208.282 56.3217 210.068 57.8101C212.151 59.5962 210.365 61.3824 209.175 62.2754C208.58 62.8708 207.687 64.3592 207.389 65.2523C206.794 66.7407 207.092 68.2292 207.687 69.4199C208.58 71.2061 208.877 71.2061 207.984 73.2899C205.603 78.0529 206.199 79.5413 205.603 80.7321C205.008 81.0298 205.306 80.7321 204.413 79.839C204.115 79.839 204.115 79.839 204.115 79.5413C203.52 78.9459 203.222 78.9459 202.33 78.6483C198.46 77.1598 197.568 78.0529 195.186 77.7552C191.02 77.1598 192.21 74.4806 191.02 73.5876C189.829 72.3968 188.936 73.8852 188.341 74.4806C187.151 76.2667 187.448 75.3737 185.365 75.6714C183.579 75.9691 180.305 78.0529 180.9 79.839C182.091 80.1367 186.258 78.6483 188.341 78.6483C189.532 78.9459 193.103 80.7321 194.294 81.0298L202.627 84.8997C204.115 85.4951 205.603 86.6858 207.092 86.3881C208.58 86.0904 209.473 84.602 210.068 83.4113C211.854 80.4344 212.746 78.9459 213.639 75.076C215.723 75.076 215.127 75.3737 216.913 78.3506L219.294 82.2205C220.782 83.4113 219.592 85.4951 219.592 87.5789C219.889 93.5326 223.163 95.3188 221.675 98.2956C220.782 100.379 221.08 101.868 223.759 101.57C226.437 101.273 226.14 101.57 228.521 101.868C229.711 101.868 232.39 102.166 232.687 100.677C231.795 98.891 226.14 99.4864 225.247 95.9141C224.651 93.8303 224.651 87.8766 224.354 84.3043C224.056 83.7089 224.354 82.8159 224.354 81.9228C224.354 77.1598 220.782 71.5037 219.889 68.2292C219.592 67.6338 219.294 66.7407 218.699 66.1454C218.104 65.2523 217.806 64.6569 218.104 63.4662C218.401 62.5731 219.592 59.0009 219.889 58.4055C221.973 58.4055 225.544 58.1078 227.33 58.7032C230.604 59.8939 230.604 55.7263 228.818 55.1309C227.925 55.1309 228.223 55.7263 227.33 55.7263L227.628 54.8332C227.032 54.8332 227.032 55.1309 226.735 55.1309C226.14 56.6193 225.842 56.6193 224.056 56.3217C223.163 56.024 221.973 55.7263 221.08 55.1309L221.378 53.3448C223.461 53.0471 223.759 51.5587 222.866 49.4748C221.675 46.7956 221.378 47.391 221.675 45.0095L221.378 44.1165C220.485 43.8188 219.889 43.8188 220.187 42.3303C221.08 38.7581 222.27 41.1396 223.461 39.9488C223.759 39.6511 223.759 39.0558 223.759 38.1627C223.759 36.9719 223.759 37.5673 224.354 36.6743C224.056 35.4835 223.163 35.4835 222.866 34.5904C222.866 33.6974 222.866 33.6974 222.27 33.102C221.973 31.9113 223.461 30.7205 219.889 31.0182C218.997 31.0182 218.401 31.3159 217.806 31.3159Z" fill="#E01C66"/>
<path fill-rule="evenodd" clip-rule="evenodd" d="M205.901 50.9632C207.985 47.9864 207.389 49.1771 209.175 46.7956C209.473 46.2002 209.77 45.9025 210.366 45.6049C211.258 44.7118 211.556 43.521 212.449 42.628C213.937 41.1395 214.532 42.0326 216.616 41.7349C217.806 39.0557 216.616 39.3534 215.723 38.758C215.425 38.4603 215.128 37.865 214.83 37.2696C213.937 37.5673 212.747 37.865 212.151 36.9719C211.854 36.3765 211.258 35.1858 211.556 34.2927C211.556 33.3997 212.449 32.8043 213.044 32.5066C214.83 31.6135 215.425 32.8043 215.723 32.8043C216.318 32.2089 216.913 31.9112 217.806 31.3158C215.425 30.4228 211.854 30.7205 210.366 31.9112C208.58 33.6973 208.877 36.6742 210.366 38.4603C210.961 39.3534 211.854 39.9488 211.556 41.4372C211.556 44.1164 208.58 42.3303 205.306 43.8187C204.711 44.1164 204.413 44.4141 203.818 44.7118C203.223 44.7118 202.627 45.0095 202.032 45.0095C199.949 45.6049 196.972 46.4979 195.782 47.6887C194.591 48.5817 194.889 49.4748 195.187 51.2609C196.079 54.8332 197.27 57.2147 198.163 61.3823C198.461 62.2754 199.056 64.0615 199.651 64.3592C200.544 65.2523 202.627 64.6569 203.223 63.7638C203.223 63.1684 202.925 62.2754 202.925 61.68C203.52 61.9777 204.115 62.2754 204.711 61.68C204.711 61.3823 203.52 60.7869 203.223 60.4892C202.33 60.1916 201.734 60.1916 200.842 60.1916C200.544 58.7031 199.949 51.2609 199.949 50.3679L205.604 49.7725L205.901 50.9632Z" fill="#29B99A"/>
<path fill-rule="evenodd" clip-rule="evenodd" d="M202.627 84.8997L194.294 81.0297L190.425 84.0066C187.151 86.0904 186.853 83.7089 185.067 84.0066C183.579 84.3043 183.877 87.5789 183.877 89.6627C183.579 91.1511 183.282 95.0211 184.77 95.3187C185.96 94.128 184.77 92.9372 186.853 90.258C188.341 88.1742 188.639 88.4719 191.615 87.5789C192.508 87.2812 200.246 85.1974 201.139 85.1974C201.734 84.8997 202.33 85.1974 202.627 84.8997Z" fill="#29B99A"/>
<path fill-rule="evenodd" clip-rule="evenodd" d="M223.759 101.57C221.08 101.868 220.782 100.379 221.675 98.2956C223.163 95.3187 219.89 93.5326 219.592 87.5788C219.592 85.495 220.782 83.4112 219.294 82.2205C218.699 84.0066 218.699 86.9835 218.104 88.7696L216.913 93.5326C216.318 94.7234 214.83 95.021 216.616 97.4025C216.913 97.9979 217.806 98.5933 218.104 99.784C218.401 100.677 219.294 101.272 220.187 101.57C221.08 101.868 223.163 101.868 223.759 101.57Z" fill="#29B99A"/>
<path fill-rule="evenodd" clip-rule="evenodd" d="M202.33 78.6482C203.222 78.9459 203.52 78.9459 204.115 79.5413C204.115 79.839 204.115 79.839 204.413 79.839C205.306 80.732 205.008 81.0297 205.603 80.732C206.199 79.5413 205.603 78.0528 207.984 73.2898C208.877 71.206 208.58 71.206 207.687 69.4199C207.092 68.2291 206.794 66.7407 207.389 65.2523C207.687 64.3592 208.58 62.8708 209.175 62.2754C210.365 61.3823 212.151 59.5962 210.068 57.8101C208.282 56.3216 207.984 55.1309 206.794 53.9401C207.092 56.0239 207.984 56.3216 207.984 60.4893C207.984 64.9546 206.496 63.4661 205.603 66.443C205.306 67.6338 205.306 68.8245 205.603 70.0153C205.901 70.9083 205.901 70.9083 205.603 71.5037L202.33 78.6482Z" fill="#29B99A"/>
<path fill-rule="evenodd" clip-rule="evenodd" d="M226.735 55.1309C227.33 53.9402 227.628 51.8563 228.223 50.9633C228.818 50.3679 230.009 48.2841 229.711 46.7956C229.414 46.2003 227.33 45.0095 226.437 45.3072C226.437 45.6049 226.14 45.9026 226.14 46.498L225.842 47.391C225.544 46.498 225.544 45.9026 224.652 45.9026C224.652 46.498 224.949 48.2841 225.247 48.8795C225.544 49.7725 226.437 49.4748 225.247 51.261C224.949 51.8563 224.652 52.4517 224.354 52.7494C224.056 52.154 222.866 46.2003 221.675 45.0095C221.378 47.391 221.675 46.7956 222.866 49.4748C223.759 51.5587 223.461 53.0471 221.378 53.3448L221.08 55.1309C221.973 55.7263 223.163 56.024 224.056 56.3217C225.842 56.6194 226.14 56.6194 226.735 55.1309Z" fill="#29B99A"/>
<path fill-rule="evenodd" clip-rule="evenodd" d="M224.354 84.3043C225.247 83.1135 225.545 81.0297 226.437 79.5413C227.033 78.0528 228.521 76.5644 227.628 74.4806C227.33 73.5875 226.735 72.9921 226.14 72.6944C224.652 71.5037 221.378 69.1222 219.89 68.2291C220.783 71.5037 224.354 77.1598 224.354 81.9228C224.354 82.8158 224.056 83.7089 224.354 84.3043Z" fill="#29B99A"/>
<path fill-rule="evenodd" clip-rule="evenodd" d="M85.3625 12.8592C86.2554 11.9661 85.3625 11.9661 87.7435 11.0731C88.6364 10.4777 89.8269 10.18 91.0174 9.88233C92.8031 9.58464 93.9936 8.39389 95.7794 8.98926C96.3747 8.98926 96.3747 8.98926 96.9699 9.58464C97.8628 8.69157 99.0533 4.22626 99.3509 3.0355C99.3509 2.73782 99.3509 2.14244 99.3509 1.84475C99.3509 0.356314 100.541 -0.53675 97.2675 0.356314C96.6723 0.654002 96.077 0.654002 95.7794 0.95169C95.1841 0.95169 94.8865 1.24938 94.5889 1.54707C93.696 1.84475 92.8031 2.14244 91.9103 2.44013C90.7198 3.0355 90.4221 3.33319 89.2316 3.63088C88.3387 3.92857 88.0411 4.52394 86.8506 4.82163C86.2554 5.11932 85.9577 5.11932 85.3625 5.11932C84.7672 5.41701 84.7672 5.7147 83.8744 5.7147L79.7076 6.31007C78.8147 6.60776 78.5171 6.31007 78.5171 6.90545C78.5171 8.0962 79.1123 7.79851 80.0052 8.69157C80.3028 8.69157 80.6005 8.98926 80.8981 9.28695L82.6839 10.7754C82.9815 11.0731 83.2791 11.3708 83.5767 11.6685C83.5767 11.6685 84.172 11.9661 84.4696 12.2638C84.7672 12.5615 84.7672 12.5615 85.3625 12.8592Z" fill="#E01C66"/>
<path d="M15.718 87.5788V102.761H13.6346V90.5557L8.87261 102.761H7.08685L2.02721 90.5557V102.761H0.241455V87.5788H2.62246L7.97973 100.379L13.337 87.5788H15.718ZM27.9207 99.1887H21.0753L19.8848 102.761H17.8014L23.4563 87.5788H25.5397L31.4922 102.761H29.1112L27.9207 99.1887ZM27.3254 97.7002L24.6468 89.6626L21.6705 97.7002H27.3254ZM41.6115 102.761L37.4447 96.5095H35.3613V102.761H33.278V87.2811H38.6352C40.1233 87.2811 41.6115 87.5788 42.5044 88.4719C43.3972 89.365 43.6949 90.5557 43.6949 91.7465C43.6949 93.2349 43.3972 94.128 42.802 95.021C41.9091 95.6164 41.0162 96.2118 39.5281 96.5095L43.9925 102.761H41.6115ZM35.3613 95.021H38.3376C40.7186 95.021 41.6115 94.128 41.6115 92.0442C41.6115 89.9603 40.7186 89.0673 38.3376 89.0673H35.3613V95.021ZM55.3023 99.1887H48.4569L47.2664 102.761H44.8854L50.8379 87.5788H52.9213L58.8738 102.761H56.4928L55.3023 99.1887ZM54.707 97.7002L52.0284 89.6626L49.0521 97.7002H54.707ZM70.1836 87.2811V88.7696H66.0168V102.761H63.9334V88.7696H59.469V87.2811H70.1836ZM84.172 87.2811V102.761H82.0886V95.6164H74.3503V102.761H72.267V87.2811H74.3503V93.8303H82.0886V87.2811H84.172ZM94.5889 86.9835C95.7794 86.9835 97.2676 87.2811 98.4581 88.1742C99.3509 88.7696 100.244 89.6626 101.137 90.8534C101.732 92.0442 102.03 93.5326 102.03 95.021C102.03 96.5095 101.732 97.9979 101.137 99.1887C100.244 100.379 99.3509 101.272 98.4581 101.868C97.2676 102.463 95.7794 103.059 94.5889 103.059C93.1008 103.059 91.6127 102.463 90.4222 101.868C89.2317 101.272 88.3388 100.379 87.7435 99.1887C87.1483 97.9979 86.8506 96.5095 86.8506 95.021C86.8506 93.5326 87.1483 92.0442 87.7435 90.8534C88.3388 89.6626 89.2317 88.7696 90.4222 88.1742C91.6127 87.2811 93.1008 86.9835 94.5889 86.9835ZM94.5889 89.0673C93.3984 89.0673 92.5055 89.0673 91.6127 89.6626C90.7198 90.258 90.1245 90.8534 89.5293 91.7465C89.2317 92.6395 88.934 93.8303 88.934 95.021C88.934 96.2118 89.2317 97.4025 89.5293 98.2956C90.1245 99.1887 90.7198 99.784 91.6127 100.379C92.5055 100.975 93.3984 100.975 94.5889 100.975C95.4818 100.975 96.3747 100.975 97.2676 100.379C98.1604 99.784 98.7557 99.1887 99.3509 98.2956C99.6486 97.4025 99.9462 96.2118 99.9462 95.021C99.9462 93.8303 99.6486 92.6395 99.3509 91.7465C98.7557 90.8534 98.1604 90.258 97.2676 89.6626C96.3747 89.0673 95.4818 89.0673 94.5889 89.0673ZM116.911 102.761H114.827L106.792 90.5557V102.761H104.708V87.2811H106.792L114.827 99.4863V87.2811H116.911V102.761ZM124.649 101.272C127.328 99.4863 129.114 97.9979 130.602 96.2118C132.09 94.7233 132.983 92.9372 132.983 91.7465C132.983 90.8534 132.685 89.9603 132.387 89.6626C131.792 89.0673 131.197 88.7696 130.006 88.7696C129.114 88.7696 128.221 89.0673 127.923 89.6626C127.328 90.258 127.03 91.1511 127.03 92.3418H124.947C124.947 90.5557 125.542 89.365 126.435 88.4719C127.625 87.5788 128.816 86.9835 130.304 86.9835C131.792 86.9835 132.983 87.2811 133.578 88.1742C134.471 89.0673 135.066 89.9603 135.066 91.4488C135.066 92.6395 134.768 93.8303 133.876 95.021C132.983 96.2118 132.09 97.4025 130.899 98.2956C130.006 99.4863 128.816 100.379 127.625 100.975H135.364V102.761H124.649V101.272ZM137.447 95.021C137.447 97.4025 138.042 99.4863 138.638 100.677C139.53 102.166 141.019 102.761 143.102 102.761C145.185 102.761 146.376 102.166 147.269 100.677C148.162 99.4863 148.459 97.4025 148.459 95.021C148.459 92.3418 148.162 90.5557 147.269 89.0673C146.376 87.8765 145.185 86.9835 143.102 86.9835C141.019 86.9835 139.53 87.8765 138.638 89.0673C138.042 90.5557 137.447 92.3418 137.447 95.021ZM146.673 95.021C146.673 96.2118 146.376 97.4025 146.376 97.9979C146.078 98.891 145.781 99.784 145.185 100.082C144.59 100.677 143.995 100.975 143.102 100.975C142.209 100.975 141.316 100.677 140.721 100.082C140.423 99.784 139.828 98.891 139.828 97.9979C139.53 97.4025 139.53 96.2118 139.53 95.021C139.53 93.5326 139.53 92.6395 139.828 91.7465C139.828 90.8534 140.423 90.258 140.721 89.6626C141.316 89.365 142.209 89.0673 143.102 89.0673C143.995 89.0673 144.59 89.365 145.185 89.6626C145.781 90.258 146.078 90.8534 146.376 91.7465C146.376 92.6395 146.673 93.5326 146.673 95.021ZM150.84 101.272C153.221 99.4863 155.305 97.9979 156.793 96.2118C158.281 94.7233 158.876 92.9372 158.876 91.7465C158.876 90.8534 158.579 89.9603 158.281 89.6626C157.686 89.0673 157.09 88.7696 156.198 88.7696C155.007 88.7696 154.412 89.0673 153.817 89.6626C153.221 90.258 152.924 91.1511 152.924 92.3418H150.84C151.138 90.5557 151.436 89.365 152.626 88.4719C153.519 87.5788 154.709 86.9835 156.198 86.9835C157.686 86.9835 158.876 87.2811 159.769 88.1742C160.662 89.0673 160.96 89.9603 160.96 91.4488C160.96 92.6395 160.662 93.8303 159.769 95.021C159.174 96.2118 157.983 97.4025 157.09 98.2956C155.9 99.4863 154.709 100.379 153.519 100.975H161.257V102.761H150.84V101.272ZM163.043 101.272C165.722 99.4863 167.507 97.9979 168.995 96.2118C170.484 94.7233 171.376 92.9372 171.376 91.7465C171.376 90.8534 171.079 89.9603 170.781 89.6626C170.186 89.0673 169.591 88.7696 168.4 88.7696C167.507 88.7696 166.614 89.0673 166.317 89.6626C165.722 90.258 165.424 91.1511 165.424 92.3418H163.341C163.341 90.5557 163.936 89.365 164.829 88.4719C166.019 87.5788 167.21 86.9835 168.698 86.9835C170.186 86.9835 171.376 87.2811 172.269 88.1742C172.865 89.0673 173.46 89.9603 173.46 91.4488C173.46 92.6395 173.162 93.8303 172.269 95.021C171.674 96.2118 170.484 97.4025 169.591 98.2956C168.4 99.4863 167.21 100.379 166.019 100.975H173.757V102.761H163.043V101.272Z" fill="#2B2A29"/>
</svg>
