<svg width="560" height="449" viewBox="0 0 560 449" fill="none" xmlns="http://www.w3.org/2000/svg">
<path fill-rule="evenodd" clip-rule="evenodd" d="M422.006 44.7565C422.006 44.7565 422.448 43.3597 422.006 43.4332C421.638 43.5802 420.829 43.6538 419.285 44.9035C419.285 44.9035 421.565 44.2419 422.006 44.7565ZM321.819 364.983C321.819 364.983 328.219 351.235 331.823 340.944L367.499 328.667C366.028 331.975 363.895 338.812 355.362 348.221C345.211 359.469 332.044 381.817 330.941 383.214C330.941 383.214 331.161 383.655 331.161 384.537L321.819 364.983ZM423.992 49.9759C423.919 50.123 423.33 50.417 422.521 50.27C421.638 50.0495 420.241 49.5349 419.137 49.9024C418.034 50.3435 415.533 51.0787 415.533 51.0787C415.533 51.0787 418.034 56.8862 420.241 56.9598C422.448 57.0333 423.698 56.8862 424.066 57.0333C424.434 57.1803 425.243 56.7392 424.728 56.1511L424.654 56.0776C422.521 53.5046 417.96 53.5046 417.96 53.5046C421.418 53.0635 423.33 53.8722 424.434 54.7543C424.36 54.1662 424.139 52.99 424.066 51.8873C423.919 51.8873 425.978 52.2549 423.772 51.8138C421.565 51.4462 418.328 51.3727 418.328 51.3727C419.799 50.9316 420.682 51.1522 421.933 51.2257C423.183 51.3727 423.624 51.3727 423.772 51.3727C423.919 51.3727 423.992 51.2257 423.992 51.1522C424.066 51.0787 423.992 50.7111 424.066 50.3435C424.066 50.1965 424.066 50.123 423.992 49.9759ZM367.499 117.241C366.249 119.741 364.851 122.093 363.453 124.225C362.277 122.461 360.952 120.255 359.702 117.903C362.277 117.682 364.925 117.462 367.499 117.241ZM360.29 71.2214C359.04 66.443 357.422 63.0614 356.024 60.7825C359.923 61.2236 365.66 62.6938 371.692 67.7663L360.29 71.2214ZM331.382 59.9003L305.783 64.8257L302.988 65.3403L281.583 69.3101L300.414 63.6495L302.4 63.0614L312.404 60.0473L299.972 61.8117L297.618 60.709C295.632 59.7533 290.042 53.4311 284.378 46.6678L312.624 36.964C315.567 39.0224 318.068 41.4483 319.907 44.5359C345.211 52.6224 349.477 57.3273 352.64 60.5619C355.656 64.1641 357.863 68.2809 359.334 71.5155L327.189 81.3663C324.762 79.0874 322.628 77.029 320.937 75.2647L350.949 64.9728L320.127 74.3825C318.803 73.0593 317.921 71.9566 317.406 71.2949C310.712 68.869 312.257 70.5598 307.843 66.002C307.843 66.002 307.622 65.8549 307.181 65.5609C315.199 63.723 323.29 61.8117 331.382 59.9003ZM281.509 43.1392L224.575 63.429L283.422 45.4181L286.217 44.6094L312.257 36.67C306.298 32.5532 298.795 30.0537 292.175 26.7456C290.557 25.9369 288.939 25.0548 287.394 24.0991L270.917 29.7597C272.388 31.671 276.728 37.2581 281.509 43.1392ZM269.225 27.7013L235.094 38.5078L266.356 25.4223C267.974 24.7607 269.74 24.0991 271.358 23.2904L264.664 25.0548C262.237 24.9077 259.294 22.4818 258.191 21.5261C257.75 21.5261 256.205 21.2321 254.44 20.1294C252.748 18.6591 250.467 16.6007 250.173 13.6601C250.173 13.6601 250.614 11.3077 252.748 12.3369C252.748 12.3369 250.614 8.58769 253.557 8.58769H254.881C254.881 8.58769 253.851 6.45579 254.734 5.20605C255.69 3.95632 257.75 5.05903 257.75 5.05903C257.75 5.05903 256.499 2.41253 257.308 1.75091C258.191 1.1628 259.515 0.354144 261.722 1.75091C261.722 1.75091 262.899 -0.380994 264.738 0.0600889C266.65 0.427658 269.372 2.11847 270.181 4.02983C270.917 5.86768 270.917 7.48498 271.652 8.22012C272.609 9.32283 273.491 12.8515 273.565 14.3953C273.565 14.3953 279.229 19.1737 286.658 23.658L270.108 28.7305C269.887 28.5099 269.593 28.1424 269.225 27.7013ZM483.207 126.651L457.461 133.341C457.094 127.533 456.652 122.314 456.137 118.123C456.064 117.609 455.99 117.168 455.917 116.726C444.956 116.065 433.923 115.697 422.889 115.55C405.088 115.33 387.434 115.844 369.853 117.094C367.793 121.505 365.881 124.739 364.336 128.121C365.145 129.665 365.66 131.282 366.764 133.194C366.911 133.561 368.014 133.267 368.455 133.488C372.869 130.253 379.931 123.931 379.931 123.931C375.591 129.885 371.839 133.267 369.338 135.105C372.501 141.427 375.37 149.22 376.988 159.217L457.535 134.59L483.207 126.651ZM387.949 158.923L308.211 186.05L377.871 166.054C378.165 169.215 378.312 172.597 378.312 176.126C378.312 176.126 374.267 183.624 372.428 187.226C370.515 190.828 371.398 190.534 371.618 191.563C371.839 192.519 373.31 199.429 373.31 199.429C376.473 196.93 391.553 180.463 391.553 180.463C389.346 184.506 366.028 212.956 366.028 212.956C365.145 220.601 366.984 221.998 366.984 221.998C368.529 223.395 374.487 221.998 374.487 221.998C374.487 221.998 368.088 228.247 368.235 230.011C368.382 231.702 370.294 233.54 370.294 233.54L366.322 249.492C384.418 242.656 436.865 228.247 436.865 228.247C427.597 230.305 381.475 247.14 363.233 254.712C360.438 255.815 260.471 294.409 250.394 299.041C250.394 299.041 316.817 275.149 355.141 261.402C355.068 263.828 355.436 266.548 355.436 266.548C357.127 265.739 368.897 260.593 368.897 260.593C368.897 260.593 348.742 272.355 347.638 274.34C346.535 276.398 349.772 285.661 350.434 285.073C351.022 284.411 355.877 281.103 355.877 281.103C355.877 281.103 345.432 294.042 347.123 295.586C348.889 297.203 354.479 298.085 354.479 298.085C353.523 302.055 351.022 305.142 351.022 305.142C342.931 312.053 335.722 324.55 333.883 333.886C333.589 335.283 333.147 336.974 332.559 338.812L367.793 328.005C368.014 327.638 368.161 327.343 368.308 327.123C370.074 324.77 369.265 323.668 373.163 321.462C377.062 319.257 378.312 312.861 378.827 309.774C379.269 306.613 384.271 299.629 384.271 299.629C384.271 299.629 389.567 298.526 390.817 297.276C392.068 296.027 391.332 290.66 391.332 290.66C391.332 290.66 403.322 278.971 404.426 278.53C405.529 278.016 405.235 272.87 405.823 271.473C406.485 270.076 413.032 264.93 413.032 264.93C405.676 266.327 375.517 273.164 375.517 273.164C383.829 270.15 418.77 259.49 426.861 256.991L440.175 252.8L431.495 257.138C431.569 257.579 432.157 262.137 433.334 263.166C434.585 264.269 439.44 263.828 439.44 263.828C440.984 265.665 451.797 272.87 455.843 275.369C459.962 277.869 461.949 282.721 461.949 282.721C469.378 280.001 474.306 280.809 474.306 280.809C468.054 281.544 455.402 287.646 445.986 292.645C436.644 297.644 414.871 302.202 414.871 302.202C409.575 301.246 408.619 312.273 406.118 313.523C403.617 314.773 410.31 315.655 409.501 318.816C408.766 321.903 398.541 312.126 398.835 314.111C399.203 316.169 399.203 317.125 397.585 321.977C396.04 326.829 400.233 344.619 406.706 348.221C413.106 351.824 409.354 355.793 412.664 352.632C415.901 349.545 414.209 342.34 413.694 339.988C413.253 337.635 413.4 332.783 413.253 329.843C413.106 326.902 421.123 322.05 423.919 319.036C426.788 316.096 438.63 315.434 438.63 315.434C486.149 312.935 502.774 305.289 502.774 305.289C502.774 305.289 507.628 305.289 513.366 302.79C519.177 300.29 521.972 291.395 521.384 286.69C520.722 282.059 519.471 280.148 518.221 278.604C516.97 277.06 514.175 273.899 505.716 259.858C499.611 249.639 493.285 240.156 490.342 235.745C473.424 238.833 454.298 248.757 454.298 248.757C464.817 240.891 481 235.598 488.724 233.393L488.503 233.099C488.503 233.099 487.4 228.908 486.958 227.218C485.855 225.6 485.487 225.086 481.957 224.498C478.352 225.159 472.835 217.955 471.953 216.999C470.996 216.117 469.452 211.339 467.833 208.913C465.185 206.854 461.287 205.605 461.287 205.605L460.624 200.679C460.624 200.679 459.595 202.958 461.581 198.4C463.64 193.916 462.684 193.107 460.845 187.52C459.374 183.183 458.859 156.203 457.535 134.958L387.949 158.923ZM444.368 89.9674C444.368 89.9674 447.457 93.7902 450.473 100.112C446.795 99.8918 443.044 99.6713 439.366 99.3037C431.422 98.5686 422.962 98.7156 415.018 98.8626C403.837 99.0096 392.656 99.3772 381.549 99.8918L375.664 100.112C376.988 95.0399 378.165 88.9383 379.269 81.4398C379.269 81.4398 377.577 89.9674 374.34 100.186C366.543 100.553 358.819 100.995 351.022 101.436C344.622 96.6572 337.561 90.7026 331.455 85.2626L295.853 95.1134L329.469 83.4982L337.34 80.7782L359.996 72.9858C361.026 75.4852 361.541 77.176 361.541 77.176C361.32 75.5587 361.026 74.162 360.658 72.7652L372.722 68.6484C373.384 69.3101 374.119 69.9717 374.855 70.7068L376.841 73.2063C377.871 73.2063 380.519 73.4268 381.108 73.7209C381.696 74.0885 382.799 75.6323 383.609 76.882L385.595 77.3966C385.595 77.3966 398.835 81.5134 403.028 83.7188C397.07 79.8961 393.245 77.9847 387.949 76.4409C388.316 75.9263 390.45 74.6766 390.597 73.1328C390.67 71.6625 389.714 70.7803 389.346 69.7512C385.742 70.4128 381.475 71.3685 377.65 71.589C377.65 71.589 381.99 68.0603 384.491 66.443C381.917 66.5901 379.489 66.8841 376.473 67.3252L404.131 57.8419L374.267 66.9576C375.149 65.6344 376.915 63.576 378.68 61.5911C378.68 61.5911 375.076 61.5176 367.426 62.9144C367.426 62.9144 370.809 59.3857 374.634 56.4452C374.634 56.4452 368.529 58.5771 358.378 59.2387C358.378 59.2387 363.895 54.9014 367.867 51.4462C359.628 53.2106 351.831 52.0343 351.831 52.0343C356.098 50.8581 361.835 48.3586 365.954 46.3738C362.424 46.4473 356.539 46.0797 351.684 47.0354C351.684 47.0354 358.746 41.2278 371.177 36.1554C371.177 36.1554 363.601 35.2732 359.481 34.9791C359.481 34.9791 368.529 27.8483 383.094 25.5694C383.094 25.5694 377.209 23.5845 373.972 23.5845C373.972 23.5845 383.756 19.3942 400.453 21.5996C400.453 21.5996 401.116 18.5856 400.159 12.6309C400.159 12.6309 404.058 15.8656 405.382 22.7023C405.382 22.7023 409.428 19.9823 415.974 22.0407C415.974 22.0407 412.885 22.3348 409.795 25.2018C409.795 25.2018 411.782 25.9369 413.179 26.9661C414.503 28.0688 416.416 30.2743 417.372 30.6418C418.328 31.0094 418.475 32.4062 417.666 36.5964C417.666 36.5964 422.742 40.4192 424.654 40.4192C426.64 40.4192 425.243 45.124 425.243 45.124C425.243 45.124 427.302 47.1089 427.523 49.7554C427.817 52.4019 428.259 58.2095 428.994 60.1944C429.73 62.1057 427.523 65.3403 423.772 67.6928C420.02 70.0452 418.034 70.7803 418.034 70.7803C418.034 70.7803 416.784 74.5295 418.99 78.1317L423.036 76.1469C423.036 76.1469 424.654 70.1922 433.996 63.9436C433.996 63.9436 439.66 55.2689 441.499 54.4603C441.499 54.4603 442.235 49.9024 443.632 46.8884C445.03 43.1392 450.4 38.9489 450.621 37.5521C450.768 36.1554 448.855 34.244 448.267 32.5532C447.605 30.7889 448.267 28.1424 450.106 27.4072C452.018 26.5986 453.857 26.5986 453.857 26.5986C453.857 26.5986 455.77 24.7607 457.167 25.3488C458.565 25.9369 458.638 27.8483 458.638 27.8483C458.638 27.8483 461.139 27.0396 461.801 27.8483C462.39 28.6569 462.169 30.7889 462.169 30.7889C462.169 30.7889 464.45 29.9067 465.038 30.7889C465.7 31.7445 465.332 33.7294 465.332 33.7294C465.332 33.7294 467.171 33.3618 467.539 34.0235C467.98 34.6116 468.422 35.1997 467.024 36.7435C467.024 36.7435 467.392 39.39 465.553 40.6397C463.714 41.8894 461.801 41.9629 461.801 41.9629C461.801 41.9629 460.992 41.3748 460.624 43.6538C460.183 45.9327 459.595 47.3295 459.448 49.3878C459.3 51.3727 459.889 54.1662 456.358 57.9154C456.358 57.9154 456.358 70.8539 449.223 79.6755C450.106 83.0572 451.871 86.8799 449.738 95.628C449.738 95.628 447.899 92.1729 444.368 89.9674Z" fill="black"/>
<path fill-rule="evenodd" clip-rule="evenodd" d="M372.501 195.68C368.676 196.489 365.292 197.592 362.571 198.915C343.225 208.913 318.803 204.281 318.803 204.281C318.803 204.281 351.978 200.826 356.318 194.578C358.966 190.902 362.497 188.035 373.09 185.977L372.942 186.124L372.869 186.344L372.795 186.491L372.648 186.712L372.575 186.859L372.501 187.079L372.428 187.226L372.28 187.373L372.207 187.594L372.133 187.741L372.06 187.888L371.986 188.035L371.913 188.182L371.839 188.255V188.402L371.765 188.549L371.692 188.623V188.697L371.618 188.77V188.917L371.545 188.991V189.064L371.471 189.211V189.285L371.398 189.358V189.432L371.324 189.579V189.652V189.726V189.799L371.251 189.873V189.946V190.02V190.093V190.167L371.177 190.24V190.314V190.387V190.461H371.251V190.534V190.608V190.681V190.755H371.324V190.828V190.902L371.398 190.975V191.049L371.471 191.122V191.196L371.545 191.27V191.343V191.417H371.618V191.49V191.564V191.637V191.711H371.692V191.784V191.858V191.931V192.005V192.078H371.765V192.152V192.225V192.299V192.372L371.839 192.446V192.519V192.593V192.666V192.74H371.913V192.813V192.887V192.96V193.034L371.986 193.107V193.181V193.254V193.328L372.06 193.401V193.475V193.548V193.622V193.695L372.133 193.769V193.842V193.916V193.99V194.063L372.207 194.137V194.21V194.284V194.357L372.28 194.431V194.504V194.578V194.651L372.354 194.798V194.872V194.945V195.019L372.428 195.092V195.166V195.239V195.313V195.386V195.46L372.501 195.533V195.607V195.68ZM388.316 183.918L388.243 183.992L388.316 183.918ZM553.382 126.724C553.382 126.724 564.636 130.841 552.72 142.677C540.877 154.586 529.622 172.082 515.205 172.082C500.787 172.082 487.694 169.583 480.779 173.332C476.66 175.538 468.716 182.301 460.845 187.594V187.52C460.33 185.977 459.962 181.786 459.595 175.979C466.436 174.361 470.555 172.965 471.732 172.376C474.895 170.833 473.644 169.289 476.145 165.834C478.646 162.379 477.028 163.04 515.205 164.29C515.205 164.29 519.03 164.51 523.076 160.614C527.195 156.645 535.139 144.147 541.098 140.913C547.056 137.604 551.69 134.37 547.791 131.062C543.893 127.754 531.682 124.004 531.682 124.004L553.382 126.724Z" fill="#00EAC5"/>
<path fill-rule="evenodd" clip-rule="evenodd" d="M95.6263 182.668C106.66 181.713 118.429 182.889 120.563 182.889C123.726 182.889 132.111 185.535 154.253 170.832C176.32 156.13 199.491 144 208.465 146.132C225.825 146.205 241.64 158.85 255.543 144.441C262.752 139.516 233.99 120.917 273.565 120.329C283.054 121.358 304.827 121.872 314.831 119.814C383.535 113.639 454.666 108.125 554.044 124.813C560.444 127.606 558.899 130.915 558.899 130.915C560.076 129.885 559.561 128.194 558.016 125.916C556.471 123.637 550.881 115.036 548.086 113.492C533.448 105.405 457.829 102.391 438.925 100.7C415.239 98.642 333.368 103.494 319.686 105.332C304.901 107.317 254.734 108.052 250.835 109.301C246.127 110.919 233.328 118.491 235.976 126.871C238.624 135.325 245.465 134.811 239.948 139.222C234.432 143.706 216.998 133.193 206.259 135.546C195.445 137.972 184.632 147.382 172.569 154.806C161.461 161.496 151.678 164.951 146.235 165.319L95.6263 182.668ZM0 192.887C17.2127 178.993 36.1909 182.668 47.004 182.668C57.7436 182.668 71.7197 174.802 85.9165 170.024C99.5985 165.466 136.672 165.098 144.101 165.245L48.1809 194.577C41.1193 195.092 34.6461 194.43 30.5269 191.857C19.5666 185.094 0.294235 192.813 0 192.887Z" fill="#00EAC5"/>
<path fill-rule="evenodd" clip-rule="evenodd" d="M317.185 421H317.111C313.875 420.927 310.565 419.75 309.02 416.589C305.121 410.929 306.813 398.725 307.917 390.786C309.02 382.773 306.666 383.14 305.857 379.832C305.121 376.524 306.151 371.084 308.652 368.585C311.153 366.085 317.185 365.718 321.819 364.983C324.173 367.114 324.761 369.982 326.306 372.775C327.924 375.936 330.646 378.215 331.161 382.332C331.161 382.332 331.676 384.831 330.573 387.845C329.469 390.786 328.219 392.991 328.072 394.094C327.924 395.123 327.115 404.312 326.674 409.973C327.63 413.943 326.674 417.03 323.217 419.383C321.819 420.338 319.539 421 317.185 421ZM414.871 302.202C409.575 301.246 403.322 303.157 400.821 304.407C398.32 305.657 395.525 310.803 394.716 313.891C393.907 317.052 395.966 321.756 396.26 323.741C396.628 325.8 396.628 326.755 395.01 331.534C393.465 336.386 397.658 354.25 404.131 357.852C410.531 361.38 413.915 358.44 417.225 355.352C420.535 352.191 418.769 344.987 418.328 342.634C417.887 340.282 418.034 335.504 417.887 332.489C417.666 329.549 421.123 322.051 423.919 319.036H423.992C423.33 318.595 422.668 318.228 422.227 318.007C420.535 316.905 414.871 302.202 414.871 302.202Z" fill="#00EAC5"/>
<g filter="url(#filter0_f_556_89)">
<ellipse cx="403.5" cy="433" rx="148.5" ry="12" fill="#7D1B40" fill-opacity="0.5"/>
</g>
<defs>
<filter id="filter0_f_556_89" x="251" y="417" width="305" height="32" filterUnits="userSpaceOnUse" color-interpolation-filters="sRGB">
<feFlood flood-opacity="0" result="BackgroundImageFix"/>
<feBlend mode="normal" in="SourceGraphic" in2="BackgroundImageFix" result="shape"/>
<feGaussianBlur stdDeviation="2" result="effect1_foregroundBlur_556_89"/>
</filter>
</defs>
</svg>
