<svg width="118" height="236" viewBox="0 0 118 236" fill="none" xmlns="http://www.w3.org/2000/svg">
<path d="M23.1611 0L41.3964 32.5471H76.2716L94.5052 0H23.1611ZM98.93 2.64056L61.7856 68.9448L79.7135 100.942L117.664 35.1283L98.93 2.64056ZM18.7191 2.66744L0 35.1268L39.4742 103.581H29.9115C27.8706 103.581 26.6377 105.842 27.7463 107.557L34.9775 118.717C35.2916 119.203 35.7619 119.569 36.3095 119.755L49.0337 124.091C49.0337 125.166 49.027 125.935 49.027 126.852H68.6379C68.6329 125.94 68.6312 125.129 68.6312 124.091L81.3554 119.755C81.903 119.569 82.3716 119.203 82.6874 118.717L89.9186 107.557C91.0255 105.844 89.7976 103.584 87.7584 103.581H75.2862C56.3909 69.8515 37.3691 36.4857 18.7219 2.66486L18.7191 2.66744ZM34.6464 108.731C50.7622 108.739 66.8994 108.731 83.0147 108.731L78.8456 115.166L67.1831 119.139C65.4529 116.324 62.3553 114.427 58.8313 114.427C55.3073 114.427 52.2082 116.324 50.4795 119.139L38.817 115.166L34.6464 108.731ZM58.8314 130.143C29.6105 130.143 5.97379 153.809 5.97379 183.074C5.97379 212.338 29.6097 236 58.8314 236C88.0532 236 111.689 212.337 111.689 183.074C111.689 153.81 88.0532 130.143 58.8314 130.143V130.143ZM58.8314 134.643C85.5161 134.643 107.2 156.359 107.2 183.071C107.2 209.784 85.5157 231.496 58.8314 231.496C32.1472 231.496 10.4632 209.785 10.4632 183.071C10.4632 156.358 32.1472 134.643 58.8314 134.643V134.643ZM58.8314 139.796C34.9354 139.796 15.6148 159.14 15.6148 183.073C15.6148 207.006 34.9354 226.341 58.8314 226.341C82.7274 226.341 102.048 207.002 102.048 183.073C102.048 159.144 82.7257 139.796 58.8314 139.796ZM58.5072 156.38C60.879 156.343 62.1204 157.931 63.1097 159.31C65.0582 162.063 66.2827 165.379 67.9758 168.515C68.5654 169.617 69.2507 170.431 69.328 170.562C69.4791 170.589 70.4803 170.957 71.7199 171.14C75.1684 171.637 78.543 171.698 82.0438 172.6C83.6782 173.062 85.5948 173.692 86.3659 175.939C87.1352 178.187 86.0013 179.858 84.9918 181.222C82.9711 183.923 80.1911 186.108 77.7267 188.685C76.8583 189.585 76.2922 190.486 76.1897 190.596C76.2166 190.751 76.1628 191.811 76.3795 193.04C76.9725 196.469 77.9568 199.689 78.1752 203.292C78.239 204.989 78.2306 207.004 76.3308 208.427C74.431 209.85 72.4959 209.294 70.8834 208.758C67.6851 207.674 64.744 205.707 61.5253 204.167C60.3982 203.621 59.3618 203.359 59.2224 203.297C59.0863 203.361 58.0583 203.655 56.9463 204.236C53.8623 205.857 51.099 207.79 47.7345 209.109C46.1388 209.693 44.2221 210.305 42.2802 208.941C40.3382 207.577 40.2678 205.565 40.2796 203.866C40.325 200.495 41.2824 197.097 41.7595 193.566C41.9325 192.328 41.8603 191.266 41.877 191.117C41.7695 191.004 41.1766 190.124 40.2847 189.252C37.7869 186.827 35.0909 184.803 32.7946 182.013C31.7448 180.679 30.5606 179.041 31.2627 176.772C31.9631 174.501 33.8613 173.819 35.4806 173.306C38.7074 172.307 42.2434 172.169 45.7558 171.531C46.9904 171.311 47.9815 170.914 48.1309 170.882C48.2032 170.748 48.8583 169.915 49.416 168.796C50.9563 165.675 52.0565 162.49 53.9982 159.448C54.9456 158.039 56.1416 156.415 58.5134 156.38L58.5072 156.38ZM58.5895 161.961C58.477 162.078 58.4199 162.098 58.2687 162.322C56.426 165.107 55.5928 168.108 54.0206 171.085C53.2714 172.595 52.6953 173.917 51.2171 175.022C49.7406 176.128 48.3112 176.309 46.6499 176.605C43.5155 177.154 40.262 177.342 37.03 178.221C36.7764 178.303 36.7394 178.348 36.5967 178.422C36.679 178.562 36.679 178.62 36.8369 178.824C38.9231 181.436 41.5232 183.15 43.8766 185.563C45.0827 186.74 46.1661 187.693 46.7641 189.44C47.3638 191.187 47.0917 192.601 46.8599 194.271C46.4164 197.413 45.5866 200.56 45.4254 203.897C45.4254 204.164 45.4523 204.213 45.4892 204.373C45.6488 204.346 45.7093 204.354 45.9612 204.265C49.094 203.093 51.5347 201.156 54.5616 199.668C56.0566 198.887 57.3013 198.154 59.1456 198.128C60.9899 198.101 62.2514 198.793 63.77 199.527C66.6289 200.919 69.3752 202.678 72.5079 203.864C72.7615 203.946 72.8186 203.936 72.9799 203.955C73.0068 203.795 73.0353 203.746 73.0253 203.483C72.8758 200.145 71.7873 197.232 71.3019 193.901C71.018 192.24 70.7022 190.834 71.2464 189.071C71.7923 187.307 72.8456 186.321 74.0163 185.108C76.2269 182.827 78.7499 180.766 80.848 178.159C81.0042 177.947 81.0042 177.889 81.0748 177.744C80.9286 177.672 80.8917 177.63 80.638 177.558C77.3777 176.965 74.2953 176.803 70.9695 176.234C69.2999 175.989 67.8653 175.854 66.3568 174.793C64.8467 173.733 64.2302 172.429 63.4357 170.943C61.944 168.139 60.7564 165.108 58.9239 162.311C58.7677 162.094 58.7089 162.07 58.593 161.958L58.5895 161.961Z" fill="#D83565"/>
</svg>
