<svg width="103" height="102" viewBox="0 0 103 102" fill="none" xmlns="http://www.w3.org/2000/svg">
<path d="M62.6479 20.5768C58.108 17.9268 52.8287 16.4272 47.2001 16.4272C30.2116 16.4272 16.4688 30.1701 16.4688 47.1585C16.4688 64.147 30.2116 77.9309 47.2001 77.9309C64.1886 77.9309 77.9725 64.147 77.9725 47.1585" stroke="#5F5F60" stroke-width="2" stroke-miterlimit="10" stroke-linecap="round" stroke-linejoin="round"/>
<path d="M71.2342 7.75842C64.2293 3.46508 55.9918 1 47.1586 1C21.6656 1 1 21.6656 1 47.1586C1 72.6927 21.6656 93.3583 47.1586 93.3583C72.6927 93.3583 93.3583 72.6927 93.3583 47.1586" stroke="#5F5F60" stroke-width="2" stroke-miterlimit="10" stroke-linecap="round" stroke-linejoin="round"/>
<path d="M81.793 101L71.9121 86.1477" stroke="#5F5F60" stroke-width="2" stroke-miterlimit="10" stroke-linecap="round" stroke-linejoin="round"/>
<path d="M22.4668 86.1477L12.5859 101" stroke="#5F5F60" stroke-width="2" stroke-miterlimit="10" stroke-linecap="round" stroke-linejoin="round"/>
<path d="M90.0921 22.8157L47.1587 47.3432" stroke="#5F5F60" stroke-width="2" stroke-miterlimit="10" stroke-linecap="round" stroke-linejoin="round"/>
<path d="M90.9553 30.5398L80.6431 28.2391L83.1903 16.8586" stroke="#5F5F60" stroke-width="2" stroke-miterlimit="10" stroke-linecap="round" stroke-linejoin="round"/>
<path d="M101.02 24.7879L90.0918 22.8158L92.146 11.7435" stroke="#5F5F60" stroke-width="2" stroke-miterlimit="10" stroke-linecap="round" stroke-linejoin="round"/>
<path d="M80.992 36.2299L71.2344 33.6211L74.2952 21.9325" stroke="#5F5F60" stroke-width="2" stroke-miterlimit="10" stroke-linecap="round" stroke-linejoin="round"/>
<path d="M54.7392 33.7649C52.5206 32.5118 49.9323 31.7928 47.2001 31.7928C38.7162 31.7928 31.8345 38.6745 31.8345 47.1585C31.8345 55.6425 38.7162 62.5241 47.2001 62.5241C55.6841 62.5241 62.5658 55.6425 62.5658 47.1585" stroke="#5F5F60" stroke-width="2" stroke-miterlimit="10" stroke-linecap="round" stroke-linejoin="round"/>
</svg>
