<svg width="81" height="102" viewBox="0 0 81 102" fill="none" xmlns="http://www.w3.org/2000/svg">
<path d="M79.5735 40.2895C79.5735 53.2527 73.2861 64.7179 63.6146 71.856C62.3201 72.7806 61.2661 73.9641 60.4339 75.2401H20.1205C19.2329 73.9271 18.1233 72.7066 16.8289 71.745C5.69646 63.4605 -0.886825 49.4247 1.4802 34.0391C4.16159 16.8227 18.4747 3.1938 35.7651 1.2521C59.4723 -1.39231 79.5735 17.1186 79.5735 40.2895Z" stroke="#5F5F60" stroke-width="2" stroke-miterlimit="10" stroke-linecap="round" stroke-linejoin="round"/>
<path d="M54.5715 93.8621C56.5317 93.8621 58.1406 92.2533 58.1406 90.2931V83.0811C58.1406 80.2887 58.9173 77.5518 60.4336 75.2588H20.1572C21.6181 77.5518 22.4503 80.2887 22.4503 83.0811V90.2931C22.4503 92.2533 24.0591 93.8621 26.0193 93.8621H47.452H54.5715Z" stroke="#5F5F60" stroke-width="2" stroke-miterlimit="10" stroke-linecap="round" stroke-linejoin="round"/>
<path d="M54.5712 93.8621H26.0005L28.5709 99.0399C29.1812 100.26 30.4202 101 31.7886 101H48.7831C50.1331 101 51.3905 100.242 52.0008 99.0399L54.5712 93.8621Z" stroke="#5F5F60" stroke-width="2" stroke-miterlimit="10" stroke-linecap="round" stroke-linejoin="round"/>
<path d="M22.4316 84.9302H58.1404" stroke="#5F5F60" stroke-width="2" stroke-miterlimit="10" stroke-linecap="round" stroke-linejoin="round"/>
<path d="M40.2964 75.2402V46.8174" stroke="#5F5F60" stroke-width="2" stroke-miterlimit="10" stroke-linecap="round" stroke-linejoin="round"/>
<path d="M30.1987 36.7206L40.2956 46.8174L50.3924 36.7206" stroke="#5F5F60" stroke-width="2" stroke-miterlimit="10" stroke-linecap="round" stroke-linejoin="round"/>
<path d="M48.8016 101H31.7886C30.4387 101 29.1997 100.242 28.5894 99.0214L26.0005 93.8621H54.5712L51.9823 99.0214C51.3905 100.223 50.1515 101 48.8016 101Z" stroke="#5F5F60" stroke-width="2" stroke-miterlimit="10" stroke-linecap="round" stroke-linejoin="round"/>
<path d="M58.1404 84.9302V90.293C58.1404 92.2532 56.5316 93.862 54.5714 93.862H26.0007C24.0405 93.862 22.4316 92.2532 22.4316 90.293V84.9302H58.1404Z" stroke="#5F5F60" stroke-width="2" stroke-miterlimit="10" stroke-linecap="round" stroke-linejoin="round"/>
</svg>
