<svg width="80" height="80" viewBox="0 0 80 80" fill="none" xmlns="http://www.w3.org/2000/svg">
<path fill-rule="evenodd" clip-rule="evenodd" d="M10.1761 21.0152L8 21.8657L10.91 35.2669L13.1721 34.8076L10.1761 21.0152ZM69.8153 21.0152L72 21.8657L69.09 35.2669L66.8279 34.8076L69.8153 21.0152ZM39.9998 21.9246C42.6766 21.9246 45.1115 20.8617 46.8816 19.1355C48.3666 17.6731 49.3855 15.7425 49.6619 13.6C46.4498 14.0931 43.2291 14.3312 39.9998 14.3312C36.7706 14.3312 33.5499 14.0931 30.3377 13.6C30.6142 15.743 31.6241 17.6731 33.118 19.1355C34.8795 20.8617 37.3144 21.9246 39.9998 21.9246ZM39.9998 66.4H58.3311V33.0551L64.8328 34.3902L67.9239 20.275L51.6561 13.8379C51.3279 16.4315 50.1019 18.77 48.2887 20.5384C46.1644 22.6216 43.2287 23.9141 39.9995 23.9141C36.7702 23.9141 33.8345 22.6216 31.7017 20.5384C29.897 18.7696 28.671 16.4315 28.3342 13.8379L12.0756 20.275L15.1581 34.3902L21.6684 33.0551V66.4H39.9998Z" fill="#696969"/>
</svg>
