<svg width="80" height="80" viewBox="0 0 80 80" fill="none" xmlns="http://www.w3.org/2000/svg">
<path d="M55.9155 14.3999H24.1011C23.1653 14.3999 22.3999 15.1654 22.3999 16.1011V55.9967C22.3999 56.9325 23.1654 57.6979 24.1011 57.6979H28.6943V53.1047C27.4185 51.318 26.5677 49.1913 26.5677 46.8097C26.5677 41.0255 31.2464 36.2614 37.1159 36.2614C42.9856 36.2614 47.6642 40.9402 47.6642 46.8097C47.6642 49.1915 46.8987 51.3181 45.5375 53.1047V57.6979H56.001C56.9368 57.6979 57.7022 56.9324 57.7022 55.9967L57.7016 16.1011C57.6167 15.1653 56.8507 14.3999 55.9149 14.3999H55.9155ZM48.2599 27.4149H31.7572C30.8215 27.4149 30.0561 26.6495 30.0561 25.7138C30.0561 24.778 30.8215 24.0126 31.7572 24.0126H48.1749C49.1106 24.0126 49.876 24.778 49.876 25.7138C49.8766 26.6495 49.196 27.4149 48.2602 27.4149H48.2599ZM37.031 57.2729C39.2425 57.2729 41.1994 56.5923 42.9007 55.4862V63.9078C42.9007 64.5036 42.5607 65.0138 42.0498 65.269C41.8801 65.3544 41.7098 65.4393 41.4546 65.4393C41.1146 65.4393 40.774 65.3544 40.5189 65.0993L37.031 62.2921L33.5432 65.0993C33.1177 65.4393 32.5226 65.5247 32.0123 65.2696C31.502 65.0144 31.1614 64.5041 31.1614 63.9084V55.4868C32.8632 56.6777 34.9045 57.2728 37.0311 57.2728L37.031 57.2729ZM45.0273 46.81C45.0273 51.2335 41.4545 54.8063 37.031 54.8063C32.6074 54.8063 29.0347 51.2335 29.0347 46.81C29.0347 42.3864 32.6074 38.8137 37.031 38.8137C41.4545 38.8137 45.0273 42.3864 45.0273 46.81Z" fill="#696969"/>
</svg>
