<svg width="80" height="80" viewBox="0 0 80 80" fill="none" xmlns="http://www.w3.org/2000/svg">
<path d="M40.6962 22.4218V17.6063C40.6856 17.169 40.3278 16.8198 39.8901 16.8198C39.4527 16.8198 39.0949 17.169 39.084 17.6063V22.4218C39.0787 22.639 39.1613 22.8494 39.3132 23.0047C39.4648 23.1604 39.6729 23.2479 39.8901 23.2479C40.1076 23.2479 40.3158 23.1604 40.4673 23.0047C40.6193 22.8494 40.7018 22.639 40.6962 22.4218Z" fill="#696969"/>
<path d="M33.0448 22.4217V17.6062C33.0445 17.1613 32.684 16.8008 32.2391 16.8001C32.0246 16.7978 31.8183 16.8823 31.6668 17.0339C31.5152 17.1854 31.4311 17.3917 31.4334 17.6062V22.4217C31.4311 22.6362 31.5152 22.8425 31.6668 22.994C31.8183 23.146 32.0246 23.2301 32.2391 23.2282C32.684 23.2274 33.0448 22.8666 33.0448 22.4217Z" fill="#696969"/>
<path d="M56.0023 22.4217V17.6062C56.0046 17.3917 55.9201 17.1854 55.7686 17.0339C55.617 16.8823 55.4104 16.7978 55.1962 16.8001C54.7513 16.8008 54.3909 17.1613 54.3909 17.6062V22.4217C54.3909 22.8666 54.7513 23.2271 55.1962 23.2282C55.4108 23.2304 55.617 23.146 55.7689 22.9944C55.9205 22.8425 56.0046 22.6362 56.0023 22.4217Z" fill="#696969"/>
<path d="M48.3512 22.4218V17.6063C48.3407 17.169 47.9829 16.8198 47.5451 16.8198C47.1078 16.8198 46.7499 17.169 46.739 17.6063V22.4218C46.7337 22.639 46.8163 22.8494 46.9682 23.0047C47.1198 23.1604 47.3279 23.2479 47.5451 23.2479C47.7627 23.2479 47.9708 23.1604 48.1224 23.0047C48.2743 22.8494 48.3569 22.639 48.3512 22.4218Z" fill="#696969"/>
<path d="M25.39 22.4217V17.6062C25.39 17.1609 25.0292 16.8 24.5843 16.8C24.1394 16.8 23.7786 17.1609 23.7786 17.6062V22.4217C23.7786 22.8666 24.1394 23.2274 24.5843 23.2274C25.0292 23.2274 25.39 22.8666 25.39 22.4217Z" fill="#696969"/>
<path d="M20.4741 32.3782H30.9186C31.19 32.3782 31.4098 32.598 31.4098 32.8694C31.4098 33.1409 31.19 33.3607 30.9186 33.3607H20.4741C20.2026 33.3607 19.9828 33.1409 19.9828 32.8694C19.9828 32.598 20.2026 32.3782 20.4741 32.3782ZM27.157 36.6567H20.4741V36.6564C20.2026 36.6564 19.9828 36.4366 19.9828 36.1651C19.9828 35.8936 20.2026 35.6738 20.4741 35.6738H27.157H27.1566C27.428 35.6738 27.6482 35.8936 27.6482 36.1651C27.6482 36.4366 27.4281 36.6564 27.1566 36.6564L27.157 36.6567ZM16.8003 29.7676V60.4293C16.801 61.0846 17.0616 61.7131 17.525 62.1765C17.9883 62.6399 18.6165 62.9004 19.2722 62.9008H60.5087C61.1643 62.9004 61.7925 62.6399 62.2559 62.1765C62.7193 61.7131 62.9798 61.0847 62.9805 60.4293V29.7676H16.8003ZM45.6928 55.1226L40.1206 52.1938H40.121C40.0505 52.1587 39.9732 52.1402 39.8948 52.1398C39.8149 52.1406 39.7361 52.1591 39.6637 52.1938L34.1013 55.1226L35.1626 48.9264L35.163 48.9261C35.1898 48.7658 35.1366 48.6026 35.0205 48.4887L30.5145 44.0959L36.7401 43.1921C36.9007 43.1702 37.0395 43.0684 37.1085 42.9218L39.8947 37.2806L42.681 42.9218C42.75 43.0684 42.8887 43.1702 43.0493 43.1921L49.2749 44.0962L44.769 48.4891V48.4895C44.6528 48.603 44.5997 48.7662 44.6268 48.9264L45.6928 55.1226Z" fill="#696969"/>
<path d="M62.9799 22.977C62.9825 22.3221 62.7242 21.6932 62.262 21.2295C61.8001 20.7658 61.1724 20.5052 60.5175 20.5056H56.985V22.422C56.985 23.0611 56.6442 23.6515 56.0907 23.9713C55.5372 24.2906 54.8555 24.2906 54.3021 23.9713C53.7486 23.6516 53.4078 23.0611 53.4078 22.422V20.5056H49.3343V22.422C49.3422 22.9016 49.1571 23.3642 48.8208 23.7062C48.4845 24.0482 48.0249 24.2409 47.5453 24.2409C47.0657 24.2409 46.6061 24.0482 46.2697 23.7062C45.9334 23.3643 45.7487 22.9017 45.7566 22.422V20.5056H41.6782V22.422C41.6861 22.9016 41.501 23.3642 41.1647 23.7062C40.8284 24.0482 40.3688 24.2409 39.8892 24.2409C39.4096 24.2409 38.95 24.0482 38.6137 23.7062C38.2773 23.3643 38.0922 22.9017 38.1001 22.422V20.5056H34.0278V22.422C34.0278 23.0611 33.687 23.6515 33.1335 23.9713C32.58 24.2906 31.8983 24.2906 31.3449 23.9713C30.7914 23.6516 30.4506 23.0611 30.4506 22.422V20.5056H26.3722V22.422C26.3722 23.0611 26.0313 23.6515 25.4779 23.9713C24.9244 24.2906 24.2427 24.2906 23.6892 23.9713C23.1357 23.6516 22.7949 23.0611 22.7949 22.422V20.5056H19.2719C18.6166 20.5067 17.9885 20.7673 17.5251 21.2303C17.0617 21.6937 16.8012 22.3218 16.8 22.9771V28.7857H62.9803L62.9799 22.977Z" fill="#696969"/>
</svg>
