<svg width="80" height="80" viewBox="0 0 80 80" fill="none" xmlns="http://www.w3.org/2000/svg">
<path d="M38.6993 65.1962V33.4172H19.0266V60.0511C19.0266 62.9261 21.2965 65.196 24.1716 65.196L38.6993 65.1962Z" fill="#696969"/>
<path d="M61.3988 60.0511V33.4172H41.7261V65.1962H56.2536C59.1287 65.1962 61.3986 62.9263 61.3986 60.0512L61.3988 60.0511Z" fill="#696969"/>
<path d="M48.3844 20.8568C49.5951 19.6461 49.5951 17.5277 48.3844 16.1655C47.1737 14.8037 45.0553 14.9547 43.693 16.1655C42.7849 17.0736 41.4231 20.7053 40.6664 22.8237H39.6072C38.8506 20.7053 37.4888 17.0732 36.5807 16.1655C35.3699 14.9547 33.2515 14.9547 31.8893 16.1655C30.6786 17.3762 30.6786 19.4946 31.8893 20.8568C32.4945 21.462 34.1592 22.2186 35.824 22.8242H16V30.3906H64.4251V22.8242H44.4498C46.1142 22.219 47.7789 21.4624 48.3841 20.8568H48.3844Z" fill="#696969"/>
</svg>
