<svg width="80" height="80" viewBox="0 0 80 80" fill="none" xmlns="http://www.w3.org/2000/svg">
<path d="M30.1227 24.3636C29.7541 24.3636 29.4469 24.0563 29.4469 23.6878V21.4759C29.4469 21.1073 29.7541 20.8 30.1227 20.8C30.4913 20.8 30.7986 21.1073 30.7986 21.4759V23.6878C30.7986 24.0563 30.4913 24.3636 30.1227 24.3636Z" fill="#696969"/>
<path d="M33.2562 25.2236C33.1332 25.3466 32.9489 25.4079 32.7646 25.4079C32.5803 25.4079 32.396 25.3466 32.273 25.2236C32.0274 24.978 32.0274 24.4864 32.273 24.2404L33.809 22.7044C34.0546 22.4589 34.5461 22.4589 34.7921 22.7044C35.0377 22.95 35.0377 23.4416 34.7921 23.6876L33.2562 25.2236Z" fill="#696969"/>
<path d="M36.0209 28.05H33.8091C33.4405 28.05 33.1332 27.7427 33.1332 27.3741C33.1332 27.0055 33.4405 26.6982 33.8091 26.6982H36.0209C36.3895 26.6982 36.6968 27.0055 36.6968 27.3741C36.6968 27.7427 36.3899 28.05 36.0209 28.05Z" fill="#696969"/>
<path d="M27.1121 27.3741C27.1121 27.7426 26.8048 28.0499 26.4362 28.0499H24.2244C23.8558 28.0499 23.5485 27.7426 23.5485 27.3741C23.5485 27.0055 23.8558 26.6982 24.2244 26.6982H26.4362C26.8048 26.6365 27.1121 27.0051 27.1121 27.3741Z" fill="#696969"/>
<path d="M27.4805 25.4081C27.2962 25.4081 27.1119 25.3468 26.9889 25.2238L25.4529 23.6878C25.2074 23.4423 25.2074 22.9507 25.4529 22.7047C25.6985 22.4591 26.1901 22.4591 26.4361 22.7047L27.9721 24.2407C28.2176 24.4863 28.2176 24.9778 27.9721 25.2238C27.8495 25.3468 27.6648 25.4081 27.4805 25.4081H27.4805Z" fill="#696969"/>
<path d="M12.7965 41.5056L19.6163 40.5841L23.5485 33.7643C24.3473 32.3513 25.7603 31.3069 27.3577 30.9378V29.6474C27.3577 29.4018 27.5419 29.1558 27.8492 29.1558H28.2795V27.3125C28.2795 26.2681 29.1397 25.408 30.1841 25.408C31.2284 25.408 32.0886 26.2681 32.0886 27.3125V29.1558H32.5189C32.7644 29.1558 33.0104 29.3401 33.0104 29.6474V30.7531H36.328C37.0651 30.7531 37.6184 31.3677 37.6184 32.0435V45.6832C37.6184 46.4204 38.233 46.9737 38.9089 46.9737H67.6014C68.3385 46.9737 68.8918 47.5882 68.8918 48.2641V52.2575C68.8918 52.9947 68.2773 53.548 67.6014 53.548H64.5907C64.3451 56.5586 61.826 58.9548 58.6923 58.9548C55.5589 58.9548 53.0398 56.5586 52.7938 53.548H26.6818C26.4362 56.5586 23.9171 58.9548 20.7833 58.9548C17.7113 58.9548 15.1309 56.5586 14.8849 53.548H13.0416C11.5669 53.548 10.3999 52.3805 10.3999 50.9063L10.4007 44.086C10.5237 42.796 11.5069 41.6898 12.7969 41.5055L12.7965 41.5056ZM58.6922 56.2512C60.4125 56.2512 61.8255 54.8381 61.8255 53.1178C61.8255 51.3975 60.4125 49.9845 58.6922 49.9845C56.9718 49.9845 55.5588 51.3975 55.5588 53.1178C55.6201 54.8994 56.9718 56.2512 58.6922 56.2512ZM33.256 40.3996V34.44H28.7093C27.9105 34.44 27.1733 34.8702 26.743 35.5457L23.9783 40.3992L33.256 40.3996ZM20.8451 56.2512C22.5654 56.2512 23.9785 54.8381 23.9785 53.1178C23.9785 51.3975 22.5654 49.9845 20.8451 49.9845C19.1248 49.9845 17.7118 51.3975 17.7118 53.1178C17.7118 54.8994 19.1248 56.2512 20.8451 56.2512Z" fill="#696969"/>
<path d="M67.6006 45.1301H40.7513C40.0142 45.1301 39.4609 44.5156 39.4609 43.8397L39.4613 24.1789C39.4613 23.4417 40.0759 22.8884 40.7517 22.8884H67.5999C68.3371 22.8884 68.8904 23.503 68.8904 24.1789V43.7782C68.8904 44.5154 68.2758 45.1299 67.5999 45.1299L67.6006 45.1301ZM54.1452 26.3295C49.9058 26.3295 46.4652 29.77 46.4652 34.0095C46.4652 38.249 49.9058 41.6895 54.1452 41.6895C58.3843 41.6895 61.8252 38.1876 61.8252 34.0095C61.8252 29.8318 58.3843 26.3295 54.1452 26.3295Z" fill="#696969"/>
<path d="M55.7431 38.5563H52.5481V35.6073H49.5378V32.4123H52.5481V29.4016H55.7431V32.4123H58.6921V35.6073H55.7431V38.5563Z" fill="#696969"/>
</svg>
