<svg width="80" height="80" viewBox="0 0 80 80" fill="none" xmlns="http://www.w3.org/2000/svg">
<path d="M42.1866 23.6068C42.214 23.634 44.3523 26.4997 44.0371 31.5112L44.4483 31.5383C44.7635 26.7577 42.9405 23.9328 42.5704 23.4303C44.133 23.1043 46.1754 22.5068 48.3 21.4338C48.3 21.4338 61.7058 35.0015 62.0896 62.7209C62.0896 62.7209 49.8489 64.826 39.6096 64.5408C29.3976 64.8396 17.1433 62.7345 17.1433 62.7345C17.5408 35.0151 30.9466 21.4474 30.9466 21.4474C33.0712 22.5203 35.1136 23.1179 36.6762 23.4439C36.3198 23.9464 34.4968 26.7713 34.812 31.5519L35.2232 31.5247C34.8943 26.5132 37.0463 23.6476 37.0737 23.6204H42.1866V23.6068Z" fill="#696969"/>
<path d="M20.4566 47.6592C20.4292 47.6049 18.0441 41.9551 16.2896 35.4904C13.9182 26.7305 13.7812 20.7275 15.8647 17.631C16.9064 16.0692 18.2497 15.2543 19.8535 15.2C19.9083 15.2 19.9631 15.2 20.0317 15.2C25.0349 15.2 30.7782 22.4931 31.0249 22.8055L30.4767 23.2265C30.4218 23.145 24.7059 15.879 20.0317 15.879C19.9769 15.879 19.9357 15.879 19.8809 15.879C18.5102 15.9198 17.3451 16.6396 16.4404 17.9977C11.6976 25.0328 21.0049 47.1703 21.1009 47.3876L20.4566 47.6592Z" fill="#696969"/>
<path d="M59.5501 47.6457L58.9196 47.3877C59.0155 47.1704 68.3091 25.0329 63.58 17.9978C62.6616 16.6397 61.5102 15.9334 60.1532 15.8927C55.4653 15.7569 49.6671 23.2537 49.5986 23.3352L49.0503 22.9278C49.297 22.6018 55.1363 15.0642 60.1669 15.2136C61.757 15.2679 63.1003 16.0692 64.142 17.6175C66.2255 20.714 66.0885 26.717 63.7034 35.4769C61.9626 41.928 59.5775 47.5778 59.5501 47.6457Z" fill="#696969"/>
</svg>
