<svg width="80" height="80" viewBox="0 0 80 80" fill="none" xmlns="http://www.w3.org/2000/svg">
<path d="M51.5975 35.2069C52.8392 35.2069 53.8558 34.1899 53.8558 32.9486V28.803C53.8558 27.4635 53.3573 26.1828 52.4577 25.1951L46.5135 18.713C47.6282 18.6738 48.5178 17.7646 48.5178 16.6503V13.4727C48.5178 12.3288 47.589 11.3999 46.445 11.3999H33.0109C31.8669 11.3999 30.9381 12.3287 30.9381 13.4727V16.6503C30.9381 17.765 31.8276 18.6742 32.9424 18.713L26.9981 25.2052C26.0986 26.1828 25.6001 27.4635 25.6001 28.803V32.9486C25.6001 34.1903 26.6171 35.2069 27.8685 35.2069C28.0348 35.2069 28.1714 35.344 28.1714 35.5199V52.6289C28.1714 52.7952 28.0343 52.9318 27.8584 52.9318C26.6167 52.9318 25.6001 53.9488 25.6001 55.1901V64.7226C25.6001 67.6653 28.0151 70.0606 30.9774 70.0606H48.4776C51.4399 70.0606 53.8549 67.6652 53.8549 64.7226V55.1901C53.8549 53.9484 52.8379 52.9318 51.5865 52.9318C51.4202 52.9318 51.2836 52.7948 51.2836 52.6289V35.5199C51.2836 35.344 51.4202 35.2069 51.5966 35.2069H51.5975ZM39.7277 51.916C35.9731 51.916 32.9232 48.8558 32.9232 45.1114C32.9232 40.3404 38.9556 36.537 39.2097 36.3807C39.5323 36.1852 39.9233 36.1852 40.2459 36.3807C40.4999 36.5369 46.5324 40.3404 46.5324 45.1114C46.5324 48.8555 43.4823 51.916 39.7279 51.916H39.7277Z" fill="#696969"/>
</svg>
